<ttFont>
    <TTGlyph name="A" xMin="103" yMin="-10" xMax="682" yMax="700">
      <contour>
        <pt x="427" y="67" on="0"/>
        <pt x="328" y="-10" on="0"/>
        <pt x="190" y="-10" on="0"/>
        <pt x="103" y="81" on="0"/>
        <pt x="103" y="165" on="1"/>
        <pt x="103" y="202" on="0"/>
        <pt x="112" y="247" on="1"/>
        <pt x="154" y="446" on="1"/>
        <pt x="180" y="569" on="0"/>
        <pt x="335" y="700" on="0"/>
        <pt x="421" y="700" on="1"/>
        <pt x="457" y="700" on="0"/>
        <pt x="510" y="670" on="0"/>
        <pt x="523" y="648" on="1"/>
        <pt x="544" y="611" on="0"/>
        <pt x="549" y="575" on="1"/>
        <pt x="573" y="690" on="1"/>
        <pt x="682" y="690" on="1"/>
        <pt x="536" y="0" on="1"/>
        <pt x="427" y="0" on="1"/>
        <pt x="450" y="110" on="1"/>
      </contour>
      <contour>
        <pt x="531" y="522" on="1"/>
        <pt x="531" y="582" on="0"/>
        <pt x="477" y="665" on="0"/>
        <pt x="424" y="665" on="1"/>
        <pt x="394" y="665" on="0"/>
        <pt x="343" y="638" on="0"/>
        <pt x="312" y="601" on="0"/>
        <pt x="300" y="575" on="1"/>
        <pt x="282" y="540" on="0"/>
        <pt x="273" y="497" on="1"/>
        <pt x="209" y="197" on="1"/>
        <pt x="201" y="157" on="0"/>
        <pt x="201" y="131" on="1"/>
        <pt x="201" y="25" on="0"/>
        <pt x="294" y="25" on="1"/>
        <pt x="359" y="25" on="0"/>
        <pt x="457" y="146" on="0"/>
        <pt x="474" y="227" on="1"/>
        <pt x="525" y="468" on="1"/>
        <pt x="531" y="495" on="0"/>
      </contour>
    </TTGlyph>
    <TTGlyph name="Aacute" xMin="103" yMin="-10" xMax="682" yMax="920">
      <contour>
        <pt x="427" y="67" on="0"/>
        <pt x="328" y="-10" on="0"/>
        <pt x="190" y="-10" on="0"/>
        <pt x="103" y="81" on="0"/>
        <pt x="103" y="165" on="1"/>
        <pt x="103" y="202" on="0"/>
        <pt x="112" y="247" on="1"/>
        <pt x="154" y="446" on="1"/>
        <pt x="180" y="569" on="0"/>
        <pt x="335" y="700" on="0"/>
        <pt x="421" y="700" on="1"/>
        <pt x="457" y="700" on="0"/>
        <pt x="510" y="670" on="0"/>
        <pt x="523" y="648" on="1"/>
        <pt x="544" y="611" on="0"/>
        <pt x="549" y="575" on="1"/>
        <pt x="573" y="690" on="1"/>
        <pt x="682" y="690" on="1"/>
        <pt x="536" y="0" on="1"/>
        <pt x="427" y="0" on="1"/>
        <pt x="450" y="110" on="1"/>
      </contour>
      <contour>
        <pt x="531" y="522" on="1"/>
        <pt x="531" y="582" on="0"/>
        <pt x="477" y="665" on="0"/>
        <pt x="424" y="665" on="1"/>
        <pt x="394" y="665" on="0"/>
        <pt x="343" y="638" on="0"/>
        <pt x="312" y="601" on="0"/>
        <pt x="300" y="575" on="1"/>
        <pt x="282" y="540" on="0"/>
        <pt x="273" y="497" on="1"/>
        <pt x="209" y="197" on="1"/>
        <pt x="201" y="157" on="0"/>
        <pt x="201" y="131" on="1"/>
        <pt x="201" y="25" on="0"/>
        <pt x="294" y="25" on="1"/>
        <pt x="359" y="25" on="0"/>
        <pt x="457" y="146" on="0"/>
        <pt x="474" y="227" on="1"/>
        <pt x="525" y="468" on="1"/>
        <pt x="531" y="495" on="0"/>
      </contour>
      <contour>
        <pt x="497" y="904" on="1"/>
        <pt x="506" y="920" on="0"/>
        <pt x="539" y="920" on="0"/>
        <pt x="566" y="895" on="0"/>
        <pt x="566" y="866" on="0"/>
        <pt x="555" y="857" on="1"/>
        <pt x="440" y="757" on="1"/>
        <pt x="423" y="769" on="1"/>
      </contour>
    </TTGlyph>
    <TTGlyph name="Acircumflex" xMin="103" yMin="-10" xMax="682" yMax="910">
      <contour>
        <pt x="427" y="67" on="0"/>
        <pt x="328" y="-10" on="0"/>
        <pt x="190" y="-10" on="0"/>
        <pt x="103" y="81" on="0"/>
        <pt x="103" y="165" on="1"/>
        <pt x="103" y="202" on="0"/>
        <pt x="112" y="247" on="1"/>
        <pt x="154" y="446" on="1"/>
        <pt x="180" y="569" on="0"/>
        <pt x="335" y="700" on="0"/>
        <pt x="421" y="700" on="1"/>
        <pt x="457" y="700" on="0"/>
        <pt x="510" y="670" on="0"/>
        <pt x="523" y="648" on="1"/>
        <pt x="544" y="611" on="0"/>
        <pt x="549" y="575" on="1"/>
        <pt x="573" y="690" on="1"/>
        <pt x="682" y="690" on="1"/>
        <pt x="536" y="0" on="1"/>
        <pt x="427" y="0" on="1"/>
        <pt x="450" y="110" on="1"/>
      </contour>
      <contour>
        <pt x="531" y="522" on="1"/>
        <pt x="531" y="582" on="0"/>
        <pt x="477" y="665" on="0"/>
        <pt x="424" y="665" on="1"/>
        <pt x="394" y="665" on="0"/>
        <pt x="343" y="638" on="0"/>
        <pt x="312" y="601" on="0"/>
        <pt x="300" y="575" on="1"/>
        <pt x="282" y="540" on="0"/>
        <pt x="273" y="497" on="1"/>
        <pt x="209" y="197" on="1"/>
        <pt x="201" y="157" on="0"/>
        <pt x="201" y="131" on="1"/>
        <pt x="201" y="25" on="0"/>
        <pt x="294" y="25" on="1"/>
        <pt x="359" y="25" on="0"/>
        <pt x="457" y="146" on="0"/>
        <pt x="474" y="227" on="1"/>
        <pt x="525" y="468" on="1"/>
        <pt x="531" y="495" on="0"/>
      </contour>
      <contour>
        <pt x="458" y="893" on="1"/>
        <pt x="469" y="910" on="0"/>
        <pt x="508" y="910" on="0"/>
        <pt x="516" y="893" on="1"/>
        <pt x="564" y="767" on="1"/>
        <pt x="550" y="757" on="1"/>
        <pt x="479" y="854" on="1"/>
        <pt x="366" y="757" on="1"/>
        <pt x="356" y="767" on="1"/>
      </contour>
    </TTGlyph>
    <TTGlyph name="Adieresis" xMin="103" yMin="-10" xMax="682" yMax="866">
      <contour>
        <pt x="427" y="67" on="0"/>
        <pt x="328" y="-10" on="0"/>
        <pt x="190" y="-10" on="0"/>
        <pt x="103" y="81" on="0"/>
        <pt x="103" y="165" on="1"/>
        <pt x="103" y="202" on="0"/>
        <pt x="112" y="247" on="1"/>
        <pt x="154" y="446" on="1"/>
        <pt x="180" y="569" on="0"/>
        <pt x="335" y="700" on="0"/>
        <pt x="421" y="700" on="1"/>
        <pt x="457" y="700" on="0"/>
        <pt x="510" y="670" on="0"/>
        <pt x="523" y="648" on="1"/>
        <pt x="544" y="611" on="0"/>
        <pt x="549" y="575" on="1"/>
        <pt x="573" y="690" on="1"/>
        <pt x="682" y="690" on="1"/>
        <pt x="536" y="0" on="1"/>
        <pt x="427" y="0" on="1"/>
        <pt x="450" y="110" on="1"/>
      </contour>
      <contour>
        <pt x="531" y="522" on="1"/>
        <pt x="531" y="582" on="0"/>
        <pt x="477" y="665" on="0"/>
        <pt x="424" y="665" on="1"/>
        <pt x="394" y="665" on="0"/>
        <pt x="343" y="638" on="0"/>
        <pt x="312" y="601" on="0"/>
        <pt x="300" y="575" on="1"/>
        <pt x="282" y="540" on="0"/>
        <pt x="273" y="497" on="1"/>
        <pt x="209" y="197" on="1"/>
        <pt x="201" y="157" on="0"/>
        <pt x="201" y="131" on="1"/>
        <pt x="201" y="25" on="0"/>
        <pt x="294" y="25" on="1"/>
        <pt x="359" y="25" on="0"/>
        <pt x="457" y="146" on="0"/>
        <pt x="474" y="227" on="1"/>
        <pt x="525" y="468" on="1"/>
        <pt x="531" y="495" on="0"/>
      </contour>
      <contour>
        <pt x="569" y="866" on="0"/>
        <pt x="588" y="843" on="0"/>
        <pt x="588" y="800" on="0"/>
        <pt x="552" y="758" on="0"/>
        <pt x="516" y="758" on="0"/>
        <pt x="497" y="781" on="0"/>
        <pt x="497" y="824" on="0"/>
        <pt x="532" y="866" on="0"/>
      </contour>
      <contour>
        <pt x="417" y="866" on="0"/>
        <pt x="436" y="843" on="0"/>
        <pt x="436" y="800" on="0"/>
        <pt x="400" y="758" on="0"/>
        <pt x="364" y="758" on="0"/>
        <pt x="345" y="781" on="0"/>
        <pt x="345" y="824" on="0"/>
        <pt x="380" y="866" on="0"/>
      </contour>
    </TTGlyph>
    <TTGlyph name="Agrave" xMin="103" yMin="-10" xMax="682" yMax="922">
      <contour>
        <pt x="427" y="67" on="0"/>
        <pt x="328" y="-10" on="0"/>
        <pt x="190" y="-10" on="0"/>
        <pt x="103" y="81" on="0"/>
        <pt x="103" y="165" on="1"/>
        <pt x="103" y="202" on="0"/>
        <pt x="112" y="247" on="1"/>
        <pt x="154" y="446" on="1"/>
        <pt x="180" y="569" on="0"/>
        <pt x="335" y="700" on="0"/>
        <pt x="421" y="700" on="1"/>
        <pt x="457" y="700" on="0"/>
        <pt x="510" y="670" on="0"/>
        <pt x="523" y="648" on="1"/>
        <pt x="544" y="611" on="0"/>
        <pt x="549" y="575" on="1"/>
        <pt x="573" y="690" on="1"/>
        <pt x="682" y="690" on="1"/>
        <pt x="536" y="0" on="1"/>
        <pt x="427" y="0" on="1"/>
        <pt x="450" y="110" on="1"/>
      </contour>
      <contour>
        <pt x="531" y="522" on="1"/>
        <pt x="531" y="582" on="0"/>
        <pt x="477" y="665" on="0"/>
        <pt x="424" y="665" on="1"/>
        <pt x="394" y="665" on="0"/>
        <pt x="343" y="638" on="0"/>
        <pt x="312" y="601" on="0"/>
        <pt x="300" y="575" on="1"/>
        <pt x="282" y="540" on="0"/>
        <pt x="273" y="497" on="1"/>
        <pt x="209" y="197" on="1"/>
        <pt x="201" y="157" on="0"/>
        <pt x="201" y="131" on="1"/>
        <pt x="201" y="25" on="0"/>
        <pt x="294" y="25" on="1"/>
        <pt x="359" y="25" on="0"/>
        <pt x="457" y="146" on="0"/>
        <pt x="474" y="227" on="1"/>
        <pt x="525" y="468" on="1"/>
        <pt x="531" y="495" on="0"/>
      </contour>
      <contour>
        <pt x="344" y="858" on="1"/>
        <pt x="333" y="869" on="0"/>
        <pt x="333" y="897" on="0"/>
        <pt x="359" y="922" on="0"/>
        <pt x="393" y="922" on="0"/>
        <pt x="402" y="906" on="1"/>
        <pt x="476" y="771" on="1"/>
        <pt x="459" y="758" on="1"/>
      </contour>
    </TTGlyph>
    <TTGlyph name="Aring" xMin="103" yMin="-10" xMax="682" yMax="892">
      <contour>
        <pt x="427" y="67" on="0"/>
        <pt x="328" y="-10" on="0"/>
        <pt x="190" y="-10" on="0"/>
        <pt x="103" y="81" on="0"/>
        <pt x="103" y="165" on="1"/>
        <pt x="103" y="202" on="0"/>
        <pt x="112" y="247" on="1"/>
        <pt x="154" y="446" on="1"/>
        <pt x="180" y="569" on="0"/>
        <pt x="335" y="700" on="0"/>
        <pt x="421" y="700" on="1"/>
        <pt x="457" y="700" on="0"/>
        <pt x="510" y="670" on="0"/>
        <pt x="523" y="648" on="1"/>
        <pt x="544" y="611" on="0"/>
        <pt x="549" y="575" on="1"/>
        <pt x="573" y="690" on="1"/>
        <pt x="682" y="690" on="1"/>
        <pt x="536" y="0" on="1"/>
        <pt x="427" y="0" on="1"/>
        <pt x="450" y="110" on="1"/>
      </contour>
      <contour>
        <pt x="531" y="522" on="1"/>
        <pt x="531" y="582" on="0"/>
        <pt x="477" y="665" on="0"/>
        <pt x="424" y="665" on="1"/>
        <pt x="394" y="665" on="0"/>
        <pt x="343" y="638" on="0"/>
        <pt x="312" y="601" on="0"/>
        <pt x="300" y="575" on="1"/>
        <pt x="282" y="540" on="0"/>
        <pt x="273" y="497" on="1"/>
        <pt x="209" y="197" on="1"/>
        <pt x="201" y="157" on="0"/>
        <pt x="201" y="131" on="1"/>
        <pt x="201" y="25" on="0"/>
        <pt x="294" y="25" on="1"/>
        <pt x="359" y="25" on="0"/>
        <pt x="457" y="146" on="0"/>
        <pt x="474" y="227" on="1"/>
        <pt x="525" y="468" on="1"/>
        <pt x="531" y="495" on="0"/>
      </contour>
      <contour>
        <pt x="536" y="795" on="0"/>
        <pt x="495" y="758" on="0"/>
        <pt x="449" y="758" on="0"/>
        <pt x="423" y="785" on="0"/>
        <pt x="423" y="813" on="0"/>
        <pt x="431" y="854" on="0"/>
        <pt x="473" y="892" on="0"/>
        <pt x="519" y="892" on="0"/>
        <pt x="545" y="864" on="0"/>
        <pt x="545" y="837" on="0"/>
      </contour>
      <contour>
        <pt x="489" y="782" on="0"/>
        <pt x="515" y="807" on="0"/>
        <pt x="520" y="829" on="0"/>
        <pt x="520" y="849" on="0"/>
        <pt x="505" y="867" on="0"/>
        <pt x="479" y="867" on="0"/>
        <pt x="466" y="854" on="1"/>
        <pt x="448" y="837" on="0"/>
        <pt x="448" y="819" on="1"/>
        <pt x="448" y="782" on="0"/>
        <pt x="475" y="782" on="1"/>
      </contour>
    </TTGlyph>
    <TTGlyph name="Atilde" xMin="103" yMin="-10" xMax="682" yMax="844">
      <contour>
        <pt x="427" y="67" on="0"/>
        <pt x="328" y="-10" on="0"/>
        <pt x="190" y="-10" on="0"/>
        <pt x="103" y="81" on="0"/>
        <pt x="103" y="165" on="1"/>
        <pt x="103" y="202" on="0"/>
        <pt x="112" y="247" on="1"/>
        <pt x="154" y="446" on="1"/>
        <pt x="180" y="569" on="0"/>
        <pt x="335" y="700" on="0"/>
        <pt x="421" y="700" on="1"/>
        <pt x="457" y="700" on="0"/>
        <pt x="510" y="670" on="0"/>
        <pt x="523" y="648" on="1"/>
        <pt x="544" y="611" on="0"/>
        <pt x="549" y="575" on="1"/>
        <pt x="573" y="690" on="1"/>
        <pt x="682" y="690" on="1"/>
        <pt x="536" y="0" on="1"/>
        <pt x="427" y="0" on="1"/>
        <pt x="450" y="110" on="1"/>
      </contour>
      <contour>
        <pt x="531" y="522" on="1"/>
        <pt x="531" y="582" on="0"/>
        <pt x="477" y="665" on="0"/>
        <pt x="424" y="665" on="1"/>
        <pt x="394" y="665" on="0"/>
        <pt x="343" y="638" on="0"/>
        <pt x="312" y="601" on="0"/>
        <pt x="300" y="575" on="1"/>
        <pt x="282" y="540" on="0"/>
        <pt x="273" y="497" on="1"/>
        <pt x="209" y="197" on="1"/>
        <pt x="201" y="157" on="0"/>
        <pt x="201" y="131" on="1"/>
        <pt x="201" y="25" on="0"/>
        <pt x="294" y="25" on="1"/>
        <pt x="359" y="25" on="0"/>
        <pt x="457" y="146" on="0"/>
        <pt x="474" y="227" on="1"/>
        <pt x="525" y="468" on="1"/>
        <pt x="531" y="495" on="0"/>
      </contour>
      <contour>
        <pt x="539" y="761" on="0"/>
        <pt x="495" y="761" on="0"/>
        <pt x="421" y="798" on="0"/>
        <pt x="405" y="798" on="1"/>
        <pt x="374" y="798" on="0"/>
        <pt x="345" y="769" on="1"/>
        <pt x="332" y="780" on="1"/>
        <pt x="387" y="844" on="0"/>
        <pt x="441" y="844" on="1"/>
        <pt x="458" y="844" on="0"/>
        <pt x="521" y="811" on="0"/>
        <pt x="569" y="811" on="0"/>
        <pt x="591" y="825" on="1"/>
        <pt x="592" y="826" on="1"/>
        <pt x="604" y="816" on="1"/>
        <pt x="586" y="791" on="0"/>
      </contour>
    </TTGlyph>
    <TTGlyph name="B" xMin="70" yMin="0" xMax="587" yMax="690">
      <contour>
        <pt x="541" y="230" on="1"/>
        <pt x="541" y="166" on="0"/>
        <pt x="489" y="72" on="0"/>
        <pt x="446" y="47" on="1"/>
        <pt x="364" y="0" on="0"/>
        <pt x="251" y="0" on="1"/>
        <pt x="70" y="0" on="1"/>
        <pt x="216" y="690" on="1"/>
        <pt x="372" y="690" on="1"/>
        <pt x="528" y="690" on="0"/>
        <pt x="570" y="628" on="1"/>
        <pt x="587" y="601" on="0"/>
        <pt x="587" y="562" on="1"/>
        <pt x="587" y="485" on="0"/>
        <pt x="499" y="383" on="0"/>
        <pt x="425" y="365" on="1"/>
        <pt x="541" y="327" on="0"/>
      </contour>
      <contour>
        <pt x="485" y="567" on="1"/>
        <pt x="485" y="622" on="0"/>
        <pt x="409" y="656" on="0"/>
        <pt x="336" y="656" on="1"/>
        <pt x="317" y="656" on="1"/>
        <pt x="258" y="378" on="1"/>
        <pt x="298" y="378" on="1"/>
        <pt x="374" y="378" on="0"/>
        <pt x="485" y="477" on="0"/>
      </contour>
      <contour>
        <pt x="438" y="238" on="1"/>
        <pt x="438" y="291" on="0"/>
        <pt x="370" y="349" on="0"/>
        <pt x="316" y="349" on="1"/>
        <pt x="252" y="349" on="1"/>
        <pt x="185" y="34" on="1"/>
        <pt x="220" y="34" on="1"/>
        <pt x="325" y="34" on="0"/>
        <pt x="438" y="135" on="0"/>
      </contour>
    </TTGlyph>
    <TTGlyph name="C" xMin="105" yMin="-10" xMax="622" yMax="700">
      <contour>
        <pt x="295" y="-10" on="1"/>
        <pt x="204" y="-10" on="0"/>
        <pt x="105" y="97" on="0"/>
        <pt x="105" y="184" on="1"/>
        <pt x="105" y="216" on="0"/>
        <pt x="113" y="254" on="1"/>
        <pt x="152" y="436" on="1"/>
        <pt x="177" y="550" on="0"/>
        <pt x="337" y="700" on="0"/>
        <pt x="446" y="700" on="1"/>
        <pt x="519" y="700" on="0"/>
        <pt x="622" y="618" on="0"/>
        <pt x="622" y="545" on="1"/>
        <pt x="622" y="520" on="0"/>
        <pt x="615" y="486" on="1"/>
        <pt x="529" y="486" on="1"/>
        <pt x="539" y="532" on="0"/>
        <pt x="539" y="559" on="1"/>
        <pt x="539" y="608" on="0"/>
        <pt x="490" y="665" on="0"/>
        <pt x="375" y="665" on="0"/>
        <pt x="292" y="579" on="0"/>
        <pt x="277" y="509" on="1"/>
        <pt x="207" y="182" on="1"/>
        <pt x="201" y="155" on="0"/>
        <pt x="201" y="130" on="1"/>
        <pt x="201" y="81" on="0"/>
        <pt x="252" y="25" on="0"/>
        <pt x="366" y="25" on="0"/>
        <pt x="448" y="111" on="0"/>
        <pt x="464" y="182" on="1"/>
        <pt x="469" y="204" on="1"/>
        <pt x="555" y="204" on="1"/>
        <pt x="539" y="124" on="0"/>
        <pt x="491" y="75" on="1"/>
        <pt x="406" y="-10" on="0"/>
      </contour>
    </TTGlyph>
    <TTGlyph name="Ccedilla" xMin="105" yMin="-188" xMax="622" yMax="700">
      <contour>
        <pt x="105" y="183" on="1"/>
        <pt x="105" y="214" on="0"/>
        <pt x="113" y="254" on="1"/>
        <pt x="152" y="436" on="1"/>
        <pt x="177" y="550" on="0"/>
        <pt x="337" y="700" on="0"/>
        <pt x="446" y="700" on="1"/>
        <pt x="519" y="700" on="0"/>
        <pt x="622" y="618" on="0"/>
        <pt x="622" y="545" on="1"/>
        <pt x="622" y="520" on="0"/>
        <pt x="615" y="486" on="1"/>
        <pt x="529" y="486" on="1"/>
        <pt x="539" y="532" on="0"/>
        <pt x="539" y="559" on="1"/>
        <pt x="539" y="608" on="0"/>
        <pt x="490" y="665" on="0"/>
        <pt x="375" y="665" on="0"/>
        <pt x="292" y="579" on="0"/>
        <pt x="277" y="509" on="1"/>
        <pt x="207" y="182" on="1"/>
        <pt x="201" y="155" on="0"/>
        <pt x="201" y="130" on="1"/>
        <pt x="201" y="81" on="0"/>
        <pt x="252" y="25" on="0"/>
        <pt x="303" y="25" on="1"/>
        <pt x="431" y="25" on="0"/>
        <pt x="469" y="204" on="1"/>
        <pt x="555" y="204" on="1"/>
        <pt x="541" y="133" on="0"/>
        <pt x="502" y="87" on="1"/>
        <pt x="434" y="8" on="0"/>
        <pt x="333" y="-7" on="1"/>
        <pt x="319" y="-71" on="0"/>
        <pt x="263" y="-148" on="0"/>
        <pt x="203" y="-188" on="1"/>
        <pt x="193" y="-178" on="1"/>
        <pt x="212" y="-159" on="0"/>
        <pt x="228" y="-124" on="1"/>
        <pt x="244" y="-86" on="0"/>
        <pt x="262" y="-8" on="1"/>
        <pt x="186" y="2" on="0"/>
        <pt x="105" y="105" on="0"/>
      </contour>
    </TTGlyph>
    <TTGlyph name="D" xMin="70" yMin="0" xMax="612" yMax="690">
      <contour>
        <pt x="261" y="0" on="1"/>
        <pt x="70" y="0" on="1"/>
        <pt x="216" y="690" on="1"/>
        <pt x="407" y="690" on="1"/>
        <pt x="502" y="690" on="0"/>
        <pt x="612" y="578" on="0"/>
        <pt x="612" y="487" on="1"/>
        <pt x="612" y="453" on="0"/>
        <pt x="605" y="421" on="1"/>
        <pt x="573" y="269" on="1"/>
        <pt x="548" y="152" on="0"/>
        <pt x="373" y="0" on="0"/>
      </contour>
      <contour>
        <pt x="513" y="522" on="1"/>
        <pt x="513" y="587" on="0"/>
        <pt x="434" y="656" on="0"/>
        <pt x="363" y="656" on="1"/>
        <pt x="317" y="656" on="1"/>
        <pt x="185" y="34" on="1"/>
        <pt x="231" y="34" on="1"/>
        <pt x="317" y="34" on="0"/>
        <pt x="436" y="131" on="0"/>
        <pt x="455" y="222" on="1"/>
        <pt x="507" y="468" on="1"/>
        <pt x="513" y="498" on="0"/>
      </contour>
    </TTGlyph>
    <TTGlyph name="E" xMin="105" yMin="-10" xMax="622" yMax="700">
      <contour>
        <pt x="295" y="-10" on="1"/>
        <pt x="204" y="-10" on="0"/>
        <pt x="105" y="97" on="0"/>
        <pt x="105" y="184" on="1"/>
        <pt x="105" y="216" on="0"/>
        <pt x="113" y="254" on="1"/>
        <pt x="152" y="436" on="1"/>
        <pt x="177" y="550" on="0"/>
        <pt x="337" y="700" on="0"/>
        <pt x="446" y="700" on="1"/>
        <pt x="519" y="700" on="0"/>
        <pt x="622" y="618" on="0"/>
        <pt x="622" y="545" on="1"/>
        <pt x="622" y="520" on="0"/>
        <pt x="615" y="486" on="1"/>
        <pt x="529" y="486" on="1"/>
        <pt x="539" y="541" on="0"/>
        <pt x="539" y="560" on="1"/>
        <pt x="539" y="609" on="0"/>
        <pt x="490" y="665" on="0"/>
        <pt x="375" y="665" on="0"/>
        <pt x="291" y="579" on="0"/>
        <pt x="276" y="508" on="1"/>
        <pt x="251" y="388" on="1"/>
        <pt x="515" y="388" on="1"/>
        <pt x="505" y="341" on="1"/>
        <pt x="241" y="341" on="1"/>
        <pt x="207" y="182" on="1"/>
        <pt x="201" y="155" on="0"/>
        <pt x="201" y="130" on="1"/>
        <pt x="201" y="81" on="0"/>
        <pt x="252" y="25" on="0"/>
        <pt x="366" y="25" on="0"/>
        <pt x="448" y="111" on="0"/>
        <pt x="464" y="182" on="1"/>
        <pt x="469" y="204" on="1"/>
        <pt x="555" y="204" on="1"/>
        <pt x="539" y="124" on="0"/>
        <pt x="491" y="75" on="1"/>
        <pt x="406" y="-10" on="0"/>
      </contour>
    </TTGlyph>
    <TTGlyph name="Eacute" xMin="105" yMin="-10" xMax="622" yMax="922">
      <contour>
        <pt x="295" y="-10" on="1"/>
        <pt x="204" y="-10" on="0"/>
        <pt x="105" y="97" on="0"/>
        <pt x="105" y="184" on="1"/>
        <pt x="105" y="216" on="0"/>
        <pt x="113" y="254" on="1"/>
        <pt x="152" y="436" on="1"/>
        <pt x="177" y="550" on="0"/>
        <pt x="337" y="700" on="0"/>
        <pt x="446" y="700" on="1"/>
        <pt x="519" y="700" on="0"/>
        <pt x="622" y="618" on="0"/>
        <pt x="622" y="545" on="1"/>
        <pt x="622" y="520" on="0"/>
        <pt x="615" y="486" on="1"/>
        <pt x="529" y="486" on="1"/>
        <pt x="539" y="541" on="0"/>
        <pt x="539" y="560" on="1"/>
        <pt x="539" y="609" on="0"/>
        <pt x="490" y="665" on="0"/>
        <pt x="375" y="665" on="0"/>
        <pt x="291" y="579" on="0"/>
        <pt x="276" y="508" on="1"/>
        <pt x="251" y="388" on="1"/>
        <pt x="515" y="388" on="1"/>
        <pt x="505" y="341" on="1"/>
        <pt x="241" y="341" on="1"/>
        <pt x="207" y="182" on="1"/>
        <pt x="201" y="155" on="0"/>
        <pt x="201" y="130" on="1"/>
        <pt x="201" y="81" on="0"/>
        <pt x="252" y="25" on="0"/>
        <pt x="366" y="25" on="0"/>
        <pt x="448" y="111" on="0"/>
        <pt x="464" y="182" on="1"/>
        <pt x="469" y="204" on="1"/>
        <pt x="555" y="204" on="1"/>
        <pt x="539" y="124" on="0"/>
        <pt x="491" y="75" on="1"/>
        <pt x="406" y="-10" on="0"/>
      </contour>
      <contour>
        <pt x="504" y="906" on="1"/>
        <pt x="513" y="922" on="0"/>
        <pt x="546" y="922" on="0"/>
        <pt x="573" y="897" on="0"/>
        <pt x="573" y="868" on="0"/>
        <pt x="562" y="859" on="1"/>
        <pt x="447" y="759" on="1"/>
        <pt x="430" y="771" on="1"/>
      </contour>
    </TTGlyph>
    <TTGlyph name="Ecircumflex" xMin="105" yMin="-10" xMax="622" yMax="915">
      <contour>
        <pt x="295" y="-10" on="1"/>
        <pt x="204" y="-10" on="0"/>
        <pt x="105" y="97" on="0"/>
        <pt x="105" y="184" on="1"/>
        <pt x="105" y="216" on="0"/>
        <pt x="113" y="254" on="1"/>
        <pt x="152" y="436" on="1"/>
        <pt x="177" y="550" on="0"/>
        <pt x="337" y="700" on="0"/>
        <pt x="446" y="700" on="1"/>
        <pt x="519" y="700" on="0"/>
        <pt x="622" y="618" on="0"/>
        <pt x="622" y="545" on="1"/>
        <pt x="622" y="520" on="0"/>
        <pt x="615" y="486" on="1"/>
        <pt x="529" y="486" on="1"/>
        <pt x="539" y="541" on="0"/>
        <pt x="539" y="560" on="1"/>
        <pt x="539" y="609" on="0"/>
        <pt x="490" y="665" on="0"/>
        <pt x="375" y="665" on="0"/>
        <pt x="291" y="579" on="0"/>
        <pt x="276" y="508" on="1"/>
        <pt x="251" y="388" on="1"/>
        <pt x="515" y="388" on="1"/>
        <pt x="505" y="341" on="1"/>
        <pt x="241" y="341" on="1"/>
        <pt x="207" y="182" on="1"/>
        <pt x="201" y="155" on="0"/>
        <pt x="201" y="130" on="1"/>
        <pt x="201" y="81" on="0"/>
        <pt x="252" y="25" on="0"/>
        <pt x="366" y="25" on="0"/>
        <pt x="448" y="111" on="0"/>
        <pt x="464" y="182" on="1"/>
        <pt x="469" y="204" on="1"/>
        <pt x="555" y="204" on="1"/>
        <pt x="539" y="124" on="0"/>
        <pt x="491" y="75" on="1"/>
        <pt x="406" y="-10" on="0"/>
      </contour>
      <contour>
        <pt x="483" y="898" on="1"/>
        <pt x="494" y="915" on="0"/>
        <pt x="533" y="915" on="0"/>
        <pt x="541" y="898" on="1"/>
        <pt x="589" y="772" on="1"/>
        <pt x="575" y="762" on="1"/>
        <pt x="504" y="859" on="1"/>
        <pt x="391" y="762" on="1"/>
        <pt x="381" y="772" on="1"/>
      </contour>
    </TTGlyph>
    <TTGlyph name="Edieresis" xMin="105" yMin="-10" xMax="622" yMax="866">
      <contour>
        <pt x="295" y="-10" on="1"/>
        <pt x="204" y="-10" on="0"/>
        <pt x="105" y="97" on="0"/>
        <pt x="105" y="184" on="1"/>
        <pt x="105" y="216" on="0"/>
        <pt x="113" y="254" on="1"/>
        <pt x="152" y="436" on="1"/>
        <pt x="177" y="550" on="0"/>
        <pt x="337" y="700" on="0"/>
        <pt x="446" y="700" on="1"/>
        <pt x="519" y="700" on="0"/>
        <pt x="622" y="618" on="0"/>
        <pt x="622" y="545" on="1"/>
        <pt x="622" y="520" on="0"/>
        <pt x="615" y="486" on="1"/>
        <pt x="529" y="486" on="1"/>
        <pt x="539" y="541" on="0"/>
        <pt x="539" y="560" on="1"/>
        <pt x="539" y="609" on="0"/>
        <pt x="490" y="665" on="0"/>
        <pt x="375" y="665" on="0"/>
        <pt x="291" y="579" on="0"/>
        <pt x="276" y="508" on="1"/>
        <pt x="251" y="388" on="1"/>
        <pt x="515" y="388" on="1"/>
        <pt x="505" y="341" on="1"/>
        <pt x="241" y="341" on="1"/>
        <pt x="207" y="182" on="1"/>
        <pt x="201" y="155" on="0"/>
        <pt x="201" y="130" on="1"/>
        <pt x="201" y="81" on="0"/>
        <pt x="252" y="25" on="0"/>
        <pt x="366" y="25" on="0"/>
        <pt x="448" y="111" on="0"/>
        <pt x="464" y="182" on="1"/>
        <pt x="469" y="204" on="1"/>
        <pt x="555" y="204" on="1"/>
        <pt x="539" y="124" on="0"/>
        <pt x="491" y="75" on="1"/>
        <pt x="406" y="-10" on="0"/>
      </contour>
      <contour>
        <pt x="577" y="866" on="0"/>
        <pt x="596" y="843" on="0"/>
        <pt x="596" y="800" on="0"/>
        <pt x="560" y="758" on="0"/>
        <pt x="524" y="758" on="0"/>
        <pt x="505" y="781" on="0"/>
        <pt x="505" y="824" on="0"/>
        <pt x="540" y="866" on="0"/>
      </contour>
      <contour>
        <pt x="425" y="866" on="0"/>
        <pt x="444" y="843" on="0"/>
        <pt x="444" y="800" on="0"/>
        <pt x="408" y="758" on="0"/>
        <pt x="372" y="758" on="0"/>
        <pt x="353" y="781" on="0"/>
        <pt x="353" y="824" on="0"/>
        <pt x="388" y="866" on="0"/>
      </contour>
    </TTGlyph>
    <TTGlyph name="Egrave" xMin="105" yMin="-10" xMax="622" yMax="922">
      <contour>
        <pt x="295" y="-10" on="1"/>
        <pt x="204" y="-10" on="0"/>
        <pt x="105" y="97" on="0"/>
        <pt x="105" y="184" on="1"/>
        <pt x="105" y="216" on="0"/>
        <pt x="113" y="254" on="1"/>
        <pt x="152" y="436" on="1"/>
        <pt x="177" y="550" on="0"/>
        <pt x="337" y="700" on="0"/>
        <pt x="446" y="700" on="1"/>
        <pt x="519" y="700" on="0"/>
        <pt x="622" y="618" on="0"/>
        <pt x="622" y="545" on="1"/>
        <pt x="622" y="520" on="0"/>
        <pt x="615" y="486" on="1"/>
        <pt x="529" y="486" on="1"/>
        <pt x="539" y="541" on="0"/>
        <pt x="539" y="560" on="1"/>
        <pt x="539" y="609" on="0"/>
        <pt x="490" y="665" on="0"/>
        <pt x="375" y="665" on="0"/>
        <pt x="291" y="579" on="0"/>
        <pt x="276" y="508" on="1"/>
        <pt x="251" y="388" on="1"/>
        <pt x="515" y="388" on="1"/>
        <pt x="505" y="341" on="1"/>
        <pt x="241" y="341" on="1"/>
        <pt x="207" y="182" on="1"/>
        <pt x="201" y="155" on="0"/>
        <pt x="201" y="130" on="1"/>
        <pt x="201" y="81" on="0"/>
        <pt x="252" y="25" on="0"/>
        <pt x="366" y="25" on="0"/>
        <pt x="448" y="111" on="0"/>
        <pt x="464" y="182" on="1"/>
        <pt x="469" y="204" on="1"/>
        <pt x="555" y="204" on="1"/>
        <pt x="539" y="124" on="0"/>
        <pt x="491" y="75" on="1"/>
        <pt x="406" y="-10" on="0"/>
      </contour>
      <contour>
        <pt x="360" y="858" on="1"/>
        <pt x="349" y="869" on="0"/>
        <pt x="349" y="897" on="0"/>
        <pt x="375" y="922" on="0"/>
        <pt x="409" y="922" on="0"/>
        <pt x="418" y="906" on="1"/>
        <pt x="492" y="771" on="1"/>
        <pt x="475" y="758" on="1"/>
      </contour>
    </TTGlyph>
    <TTGlyph name="Eth" xMin="71" yMin="0" xMax="613" yMax="690">
      <contour>
        <pt x="262" y="0" on="1"/>
        <pt x="71" y="0" on="1"/>
        <pt x="148" y="364" on="1"/>
        <pt x="77" y="364" on="1"/>
        <pt x="91" y="429" on="1"/>
        <pt x="162" y="429" on="1"/>
        <pt x="217" y="690" on="1"/>
        <pt x="408" y="690" on="1"/>
        <pt x="503" y="690" on="0"/>
        <pt x="613" y="578" on="0"/>
        <pt x="613" y="487" on="1"/>
        <pt x="613" y="453" on="0"/>
        <pt x="606" y="421" on="1"/>
        <pt x="574" y="269" on="1"/>
        <pt x="549" y="152" on="0"/>
        <pt x="374" y="0" on="0"/>
      </contour>
      <contour>
        <pt x="232" y="34" on="1"/>
        <pt x="318" y="34" on="0"/>
        <pt x="437" y="131" on="0"/>
        <pt x="456" y="222" on="1"/>
        <pt x="508" y="468" on="1"/>
        <pt x="514" y="498" on="0"/>
        <pt x="514" y="522" on="1"/>
        <pt x="514" y="587" on="0"/>
        <pt x="435" y="656" on="0"/>
        <pt x="364" y="656" on="1"/>
        <pt x="318" y="656" on="1"/>
        <pt x="270" y="429" on="1"/>
        <pt x="394" y="429" on="1"/>
        <pt x="380" y="364" on="1"/>
        <pt x="256" y="364" on="1"/>
        <pt x="186" y="34" on="1"/>
      </contour>
    </TTGlyph>
    <TTGlyph name="Euro" xMin="119" yMin="-10" xMax="680" yMax="700">
      <contour>
        <pt x="503" y="700" on="1"/>
        <pt x="577" y="700" on="0"/>
        <pt x="680" y="618" on="0"/>
        <pt x="680" y="544" on="1"/>
        <pt x="680" y="521" on="0"/>
        <pt x="672" y="486" on="1"/>
        <pt x="586" y="486" on="1"/>
        <pt x="597" y="537" on="0"/>
        <pt x="597" y="560" on="1"/>
        <pt x="597" y="609" on="0"/>
        <pt x="547" y="665" on="0"/>
        <pt x="432" y="665" on="0"/>
        <pt x="349" y="579" on="0"/>
        <pt x="334" y="509" on="1"/>
        <pt x="315" y="420" on="1"/>
        <pt x="573" y="420" on="1"/>
        <pt x="563" y="373" on="1"/>
        <pt x="305" y="373" on="1"/>
        <pt x="295" y="326" on="1"/>
        <pt x="553" y="326" on="1"/>
        <pt x="543" y="279" on="1"/>
        <pt x="285" y="279" on="1"/>
        <pt x="264" y="182" on="1"/>
        <pt x="258" y="155" on="0"/>
        <pt x="258" y="130" on="1"/>
        <pt x="258" y="81" on="0"/>
        <pt x="308" y="25" on="0"/>
        <pt x="423" y="25" on="0"/>
        <pt x="506" y="111" on="0"/>
        <pt x="521" y="182" on="1"/>
        <pt x="526" y="204" on="1"/>
        <pt x="612" y="204" on="1"/>
        <pt x="596" y="124" on="0"/>
        <pt x="548" y="75" on="1"/>
        <pt x="463" y="-10" on="0"/>
        <pt x="352" y="-10" on="1"/>
        <pt x="261" y="-10" on="0"/>
        <pt x="162" y="97" on="0"/>
        <pt x="162" y="184" on="1"/>
        <pt x="162" y="221" on="0"/>
        <pt x="176" y="279" on="1"/>
        <pt x="119" y="279" on="1"/>
        <pt x="129" y="326" on="1"/>
        <pt x="186" y="326" on="1"/>
        <pt x="196" y="373" on="1"/>
        <pt x="139" y="373" on="1"/>
        <pt x="149" y="420" on="1"/>
        <pt x="206" y="420" on="1"/>
        <pt x="209" y="435" on="1"/>
        <pt x="233" y="549" on="0"/>
        <pt x="394" y="700" on="0"/>
      </contour>
    </TTGlyph>
    <TTGlyph name="F" xMin="85" yMin="0" xMax="529" yMax="700">
      <contour>
        <pt x="456" y="583" on="1"/>
        <pt x="459" y="596" on="0"/>
        <pt x="459" y="634" on="0"/>
        <pt x="430" y="665" on="0"/>
        <pt x="374" y="665" on="0"/>
        <pt x="325" y="620" on="0"/>
        <pt x="317" y="583" on="1"/>
        <pt x="276" y="388" on="1"/>
        <pt x="418" y="388" on="1"/>
        <pt x="408" y="341" on="1"/>
        <pt x="266" y="341" on="1"/>
        <pt x="194" y="0" on="1"/>
        <pt x="85" y="0" on="1"/>
        <pt x="157" y="341" on="1"/>
        <pt x="117" y="341" on="1"/>
        <pt x="127" y="388" on="1"/>
        <pt x="167" y="388" on="1"/>
        <pt x="196" y="527" on="1"/>
        <pt x="214" y="609" on="0"/>
        <pt x="331" y="700" on="0"/>
        <pt x="456" y="700" on="0"/>
        <pt x="529" y="630" on="0"/>
        <pt x="529" y="568" on="1"/>
        <pt x="529" y="546" on="0"/>
        <pt x="517" y="486" on="1"/>
        <pt x="436" y="486" on="1"/>
      </contour>
    </TTGlyph>
    <TTGlyph name="G" xMin="56" yMin="-209" xMax="619" yMax="700">
      <contour>
        <pt x="379" y="-186" on="0"/>
        <pt x="302" y="-209" on="0"/>
        <pt x="181" y="-209" on="0"/>
        <pt x="79" y="-169" on="0"/>
        <pt x="56" y="-144" on="1"/>
        <pt x="81" y="-116" on="1"/>
        <pt x="99" y="-136" on="0"/>
        <pt x="176" y="-170" on="0"/>
        <pt x="228" y="-170" on="1"/>
        <pt x="327" y="-170" on="0"/>
        <pt x="369" y="-118" on="1"/>
        <pt x="411" y="-66" on="0"/>
        <pt x="437" y="65" on="1"/>
        <pt x="384" y="-10" on="0"/>
        <pt x="203" y="-10" on="0"/>
        <pt x="105" y="95" on="0"/>
        <pt x="105" y="182" on="1"/>
        <pt x="105" y="214" on="0"/>
        <pt x="113" y="252" on="1"/>
        <pt x="152" y="437" on="1"/>
        <pt x="177" y="551" on="0"/>
        <pt x="336" y="700" on="0"/>
        <pt x="444" y="700" on="1"/>
        <pt x="517" y="700" on="0"/>
        <pt x="619" y="618" on="0"/>
        <pt x="619" y="545" on="1"/>
        <pt x="619" y="523" on="0"/>
        <pt x="611" y="486" on="1"/>
        <pt x="527" y="486" on="1"/>
        <pt x="535" y="534" on="0"/>
        <pt x="535" y="556" on="1"/>
        <pt x="535" y="665" on="0"/>
        <pt x="437" y="665" on="1"/>
        <pt x="374" y="665" on="0"/>
        <pt x="291" y="580" on="0"/>
        <pt x="276" y="510" on="1"/>
        <pt x="206" y="181" on="1"/>
        <pt x="200" y="154" on="0"/>
        <pt x="200" y="129" on="1"/>
        <pt x="200" y="25" on="0"/>
        <pt x="301" y="25" on="1"/>
        <pt x="421" y="25" on="0"/>
        <pt x="461" y="181" on="1"/>
        <pt x="466" y="202" on="1"/>
        <pt x="566" y="202" on="1"/>
        <pt x="532" y="40" on="0"/>
        <pt x="525" y="13" on="0"/>
        <pt x="502" y="-55" on="0"/>
        <pt x="477" y="-99" on="0"/>
        <pt x="432" y="-154" on="0"/>
      </contour>
    </TTGlyph>
    <TTGlyph name="H" xMin="70" yMin="0" xMax="687" yMax="690">
      <contour>
        <pt x="541" y="0" on="1"/>
        <pt x="432" y="0" on="1"/>
        <pt x="504" y="340" on="1"/>
        <pt x="250" y="340" on="1"/>
        <pt x="178" y="0" on="1"/>
        <pt x="70" y="0" on="1"/>
        <pt x="216" y="690" on="1"/>
        <pt x="324" y="690" on="1"/>
        <pt x="260" y="388" on="1"/>
        <pt x="514" y="388" on="1"/>
        <pt x="578" y="690" on="1"/>
        <pt x="687" y="690" on="1"/>
      </contour>
    </TTGlyph>
    <TTGlyph name="I" xMin="70" yMin="0" xMax="325" yMax="690">
      <contour>
        <pt x="179" y="0" on="1"/>
        <pt x="70" y="0" on="1"/>
        <pt x="216" y="690" on="1"/>
        <pt x="325" y="690" on="1"/>
      </contour>
    </TTGlyph>
    <TTGlyph name="Iacute" xMin="70" yMin="0" xMax="391" yMax="919">
      <contour>
        <pt x="179" y="0" on="1"/>
        <pt x="70" y="0" on="1"/>
        <pt x="216" y="690" on="1"/>
        <pt x="325" y="690" on="1"/>
      </contour>
      <contour>
        <pt x="322" y="903" on="1"/>
        <pt x="331" y="919" on="0"/>
        <pt x="364" y="919" on="0"/>
        <pt x="391" y="894" on="0"/>
        <pt x="391" y="865" on="0"/>
        <pt x="380" y="856" on="1"/>
        <pt x="265" y="756" on="1"/>
        <pt x="248" y="768" on="1"/>
      </contour>
    </TTGlyph>
    <TTGlyph name="Icircumflex" xMin="70" yMin="0" xMax="391" yMax="912">
      <contour>
        <pt x="179" y="0" on="1"/>
        <pt x="70" y="0" on="1"/>
        <pt x="216" y="690" on="1"/>
        <pt x="325" y="690" on="1"/>
      </contour>
      <contour>
        <pt x="285" y="895" on="1"/>
        <pt x="296" y="912" on="0"/>
        <pt x="335" y="912" on="0"/>
        <pt x="343" y="895" on="1"/>
        <pt x="391" y="769" on="1"/>
        <pt x="377" y="759" on="1"/>
        <pt x="306" y="856" on="1"/>
        <pt x="193" y="759" on="1"/>
        <pt x="183" y="769" on="1"/>
      </contour>
    </TTGlyph>
    <TTGlyph name="Idieresis" xMin="70" yMin="0" xMax="419" yMax="865">
      <contour>
        <pt x="179" y="0" on="1"/>
        <pt x="70" y="0" on="1"/>
        <pt x="216" y="690" on="1"/>
        <pt x="325" y="690" on="1"/>
      </contour>
      <contour>
        <pt x="400" y="865" on="0"/>
        <pt x="419" y="842" on="0"/>
        <pt x="419" y="799" on="0"/>
        <pt x="383" y="757" on="0"/>
        <pt x="347" y="757" on="0"/>
        <pt x="328" y="780" on="0"/>
        <pt x="328" y="823" on="0"/>
        <pt x="363" y="865" on="0"/>
      </contour>
      <contour>
        <pt x="248" y="865" on="0"/>
        <pt x="267" y="842" on="0"/>
        <pt x="267" y="799" on="0"/>
        <pt x="231" y="757" on="0"/>
        <pt x="195" y="757" on="0"/>
        <pt x="176" y="780" on="0"/>
        <pt x="176" y="823" on="0"/>
        <pt x="211" y="865" on="0"/>
      </contour>
    </TTGlyph>
    <TTGlyph name="Igrave" xMin="70" yMin="0" xMax="336" yMax="919">
      <contour>
        <pt x="179" y="0" on="1"/>
        <pt x="70" y="0" on="1"/>
        <pt x="216" y="690" on="1"/>
        <pt x="325" y="690" on="1"/>
      </contour>
      <contour>
        <pt x="204" y="855" on="1"/>
        <pt x="193" y="866" on="0"/>
        <pt x="193" y="894" on="0"/>
        <pt x="219" y="919" on="0"/>
        <pt x="253" y="919" on="0"/>
        <pt x="262" y="903" on="1"/>
        <pt x="336" y="768" on="1"/>
        <pt x="319" y="755" on="1"/>
      </contour>
    </TTGlyph>
    <TTGlyph name="J" xMin="51" yMin="-10" xMax="534" yMax="690">
      <contour>
        <pt x="407" y="93" on="0"/>
        <pt x="287" y="-10" on="0"/>
        <pt x="134" y="-10" on="0"/>
        <pt x="51" y="71" on="0"/>
        <pt x="51" y="132" on="1"/>
        <pt x="51" y="150" on="0"/>
        <pt x="63" y="204" on="1"/>
        <pt x="143" y="204" on="1"/>
        <pt x="122" y="106" on="0"/>
        <pt x="122" y="97" on="1"/>
        <pt x="122" y="67" on="0"/>
        <pt x="162" y="26" on="0"/>
        <pt x="234" y="26" on="0"/>
        <pt x="294" y="77" on="0"/>
        <pt x="304" y="121" on="1"/>
        <pt x="425" y="690" on="1"/>
        <pt x="534" y="690" on="1"/>
        <pt x="423" y="167" on="1"/>
      </contour>
    </TTGlyph>
    <TTGlyph name="K" xMin="70" yMin="0" xMax="582" yMax="690">
      <contour>
        <pt x="375" y="135" on="1"/>
        <pt x="392" y="215" on="0"/>
        <pt x="392" y="264" on="1"/>
        <pt x="392" y="370" on="0"/>
        <pt x="266" y="370" on="1"/>
        <pt x="256" y="369" on="1"/>
        <pt x="178" y="0" on="1"/>
        <pt x="70" y="0" on="1"/>
        <pt x="216" y="690" on="1"/>
        <pt x="324" y="690" on="1"/>
        <pt x="264" y="408" on="1"/>
        <pt x="329" y="408" on="0"/>
        <pt x="431" y="497" on="0"/>
        <pt x="446" y="565" on="1"/>
        <pt x="473" y="690" on="1"/>
        <pt x="582" y="690" on="1"/>
        <pt x="570" y="637" on="1"/>
        <pt x="553" y="558" on="0"/>
        <pt x="450" y="433" on="0"/>
        <pt x="379" y="401" on="1"/>
        <pt x="489" y="372" on="0"/>
        <pt x="489" y="240" on="1"/>
        <pt x="489" y="192" on="0"/>
        <pt x="471" y="111" on="1"/>
        <pt x="448" y="0" on="1"/>
        <pt x="347" y="0" on="1"/>
      </contour>
    </TTGlyph>
    <TTGlyph name="L" xMin="70" yMin="0" xMax="371" yMax="690">
      <contour>
        <pt x="362" y="0" on="1"/>
        <pt x="70" y="0" on="1"/>
        <pt x="216" y="690" on="1"/>
        <pt x="324" y="690" on="1"/>
        <pt x="187" y="47" on="1"/>
        <pt x="371" y="47" on="1"/>
      </contour>
    </TTGlyph>
    <TTGlyph name="Lslash" xMin="68" yMin="0" xMax="392" yMax="690">
      <contour>
        <pt x="392" y="412" on="1"/>
        <pt x="252" y="358" on="1"/>
        <pt x="185" y="47" on="1"/>
        <pt x="369" y="47" on="1"/>
        <pt x="360" y="0" on="1"/>
        <pt x="68" y="0" on="1"/>
        <pt x="134" y="314" on="1"/>
        <pt x="87" y="296" on="1"/>
        <pt x="75" y="356" on="1"/>
        <pt x="149" y="384" on="1"/>
        <pt x="214" y="690" on="1"/>
        <pt x="322" y="690" on="1"/>
        <pt x="267" y="429" on="1"/>
        <pt x="380" y="472" on="1"/>
      </contour>
    </TTGlyph>
    <TTGlyph name="M" xMin="70" yMin="0" xMax="950" yMax="700">
      <contour>
        <pt x="850" y="589" on="1"/>
        <pt x="850" y="665" on="0"/>
        <pt x="784" y="665" on="1"/>
        <pt x="737" y="665" on="0"/>
        <pt x="629" y="562" on="0"/>
        <pt x="608" y="464" on="1"/>
        <pt x="510" y="0" on="1"/>
        <pt x="401" y="0" on="1"/>
        <pt x="510" y="514" on="1"/>
        <pt x="519" y="557" on="0"/>
        <pt x="519" y="593" on="1"/>
        <pt x="519" y="665" on="0"/>
        <pt x="452" y="665" on="1"/>
        <pt x="406" y="665" on="0"/>
        <pt x="297" y="561" on="0"/>
        <pt x="276" y="464" on="1"/>
        <pt x="178" y="0" on="1"/>
        <pt x="70" y="0" on="1"/>
        <pt x="216" y="690" on="1"/>
        <pt x="324" y="690" on="1"/>
        <pt x="300" y="578" on="1"/>
        <pt x="376" y="700" on="0"/>
        <pt x="485" y="700" on="1"/>
        <pt x="614" y="700" on="0"/>
        <pt x="619" y="553" on="1"/>
        <pt x="652" y="618" on="0"/>
        <pt x="751" y="700" on="0"/>
        <pt x="882" y="700" on="0"/>
        <pt x="950" y="623" on="0"/>
        <pt x="950" y="550" on="1"/>
        <pt x="950" y="513" on="0"/>
        <pt x="941" y="468" on="1"/>
        <pt x="842" y="0" on="1"/>
        <pt x="732" y="0" on="1"/>
        <pt x="841" y="514" on="1"/>
        <pt x="850" y="559" on="0"/>
      </contour>
    </TTGlyph>
    <TTGlyph name="N" xMin="70" yMin="0" xMax="648" yMax="700">
      <contour>
        <pt x="549" y="565" on="1"/>
        <pt x="549" y="665" on="0"/>
        <pt x="464" y="665" on="1"/>
        <pt x="400" y="665" on="0"/>
        <pt x="293" y="544" on="0"/>
        <pt x="276" y="464" on="1"/>
        <pt x="178" y="0" on="1"/>
        <pt x="70" y="0" on="1"/>
        <pt x="216" y="690" on="1"/>
        <pt x="324" y="690" on="1"/>
        <pt x="300" y="575" on="1"/>
        <pt x="333" y="634" on="0"/>
        <pt x="429" y="700" on="0"/>
        <pt x="481" y="700" on="1"/>
        <pt x="554" y="700" on="0"/>
        <pt x="648" y="606" on="0"/>
        <pt x="648" y="520" on="1"/>
        <pt x="648" y="487" on="0"/>
        <pt x="640" y="447" on="1"/>
        <pt x="546" y="0" on="1"/>
        <pt x="436" y="0" on="1"/>
        <pt x="541" y="498" on="1"/>
        <pt x="549" y="536" on="0"/>
      </contour>
    </TTGlyph>
    <TTGlyph name="Ntilde" xMin="70" yMin="0" xMax="648" yMax="844">
      <contour>
        <pt x="549" y="565" on="1"/>
        <pt x="549" y="665" on="0"/>
        <pt x="464" y="665" on="1"/>
        <pt x="400" y="665" on="0"/>
        <pt x="293" y="544" on="0"/>
        <pt x="276" y="464" on="1"/>
        <pt x="178" y="0" on="1"/>
        <pt x="70" y="0" on="1"/>
        <pt x="216" y="690" on="1"/>
        <pt x="324" y="690" on="1"/>
        <pt x="300" y="575" on="1"/>
        <pt x="333" y="634" on="0"/>
        <pt x="429" y="700" on="0"/>
        <pt x="481" y="700" on="1"/>
        <pt x="554" y="700" on="0"/>
        <pt x="648" y="606" on="0"/>
        <pt x="648" y="520" on="1"/>
        <pt x="648" y="487" on="0"/>
        <pt x="640" y="447" on="1"/>
        <pt x="546" y="0" on="1"/>
        <pt x="436" y="0" on="1"/>
        <pt x="541" y="498" on="1"/>
        <pt x="549" y="536" on="0"/>
      </contour>
      <contour>
        <pt x="569" y="761" on="0"/>
        <pt x="525" y="761" on="0"/>
        <pt x="451" y="798" on="0"/>
        <pt x="435" y="798" on="1"/>
        <pt x="404" y="798" on="0"/>
        <pt x="375" y="769" on="1"/>
        <pt x="362" y="780" on="1"/>
        <pt x="417" y="844" on="0"/>
        <pt x="471" y="844" on="1"/>
        <pt x="488" y="844" on="0"/>
        <pt x="551" y="811" on="0"/>
        <pt x="599" y="811" on="0"/>
        <pt x="621" y="825" on="1"/>
        <pt x="622" y="826" on="1"/>
        <pt x="634" y="816" on="1"/>
        <pt x="616" y="791" on="0"/>
      </contour>
    </TTGlyph>
    <TTGlyph name="O" xMin="105" yMin="-10" xMax="636" yMax="700">
      <contour>
        <pt x="295" y="-10" on="1"/>
        <pt x="201" y="-10" on="0"/>
        <pt x="105" y="88" on="0"/>
        <pt x="105" y="175" on="1"/>
        <pt x="105" y="210" on="0"/>
        <pt x="115" y="260" on="1"/>
        <pt x="151" y="429" on="1"/>
        <pt x="177" y="554" on="0"/>
        <pt x="330" y="700" on="0"/>
        <pt x="446" y="700" on="1"/>
        <pt x="540" y="700" on="0"/>
        <pt x="636" y="601" on="0"/>
        <pt x="636" y="513" on="1"/>
        <pt x="636" y="470" on="0"/>
        <pt x="627" y="429" on="1"/>
        <pt x="591" y="260" on="1"/>
        <pt x="565" y="136" on="0"/>
        <pt x="411" y="-10" on="0"/>
      </contour>
      <contour>
        <pt x="539" y="560" on="1"/>
        <pt x="539" y="609" on="0"/>
        <pt x="490" y="665" on="0"/>
        <pt x="375" y="665" on="0"/>
        <pt x="291" y="578" on="0"/>
        <pt x="276" y="508" on="1"/>
        <pt x="207" y="182" on="1"/>
        <pt x="201" y="155" on="0"/>
        <pt x="201" y="130" on="1"/>
        <pt x="201" y="81" on="0"/>
        <pt x="252" y="25" on="0"/>
        <pt x="366" y="25" on="0"/>
        <pt x="449" y="111" on="0"/>
        <pt x="464" y="182" on="1"/>
        <pt x="533" y="508" on="1"/>
        <pt x="539" y="535" on="0"/>
      </contour>
    </TTGlyph>
    <TTGlyph name="OE" xMin="105" yMin="-10" xMax="988" yMax="700">
      <contour>
        <pt x="539" y="559" on="1"/>
        <pt x="539" y="608" on="0"/>
        <pt x="490" y="665" on="0"/>
        <pt x="375" y="665" on="0"/>
        <pt x="292" y="580" on="0"/>
        <pt x="277" y="509" on="1"/>
        <pt x="207" y="182" on="1"/>
        <pt x="201" y="155" on="0"/>
        <pt x="201" y="130" on="1"/>
        <pt x="201" y="81" on="0"/>
        <pt x="252" y="25" on="0"/>
        <pt x="366" y="25" on="0"/>
        <pt x="449" y="111" on="0"/>
        <pt x="464" y="182" on="1"/>
        <pt x="534" y="509" on="1"/>
        <pt x="539" y="534" on="0"/>
      </contour>
      <contour>
        <pt x="498" y="75" on="1"/>
        <pt x="418" y="-10" on="0"/>
        <pt x="295" y="-10" on="1"/>
        <pt x="201" y="-10" on="0"/>
        <pt x="105" y="88" on="0"/>
        <pt x="105" y="175" on="1"/>
        <pt x="105" y="210" on="0"/>
        <pt x="115" y="260" on="1"/>
        <pt x="151" y="430" on="1"/>
        <pt x="177" y="554" on="0"/>
        <pt x="330" y="700" on="0"/>
        <pt x="568" y="700" on="0"/>
        <pt x="613" y="615" on="1"/>
        <pt x="698" y="700" on="0"/>
        <pt x="812" y="700" on="1"/>
        <pt x="886" y="700" on="0"/>
        <pt x="988" y="619" on="0"/>
        <pt x="988" y="546" on="1"/>
        <pt x="988" y="532" on="0"/>
        <pt x="981" y="486" on="1"/>
        <pt x="896" y="486" on="1"/>
        <pt x="906" y="537" on="0"/>
        <pt x="906" y="560" on="1"/>
        <pt x="906" y="609" on="0"/>
        <pt x="856" y="665" on="0"/>
        <pt x="741" y="665" on="0"/>
        <pt x="658" y="579" on="0"/>
        <pt x="643" y="508" on="1"/>
        <pt x="618" y="388" on="1"/>
        <pt x="881" y="388" on="1"/>
        <pt x="871" y="341" on="1"/>
        <pt x="608" y="341" on="1"/>
        <pt x="574" y="182" on="1"/>
        <pt x="568" y="155" on="0"/>
        <pt x="568" y="130" on="1"/>
        <pt x="568" y="81" on="0"/>
        <pt x="618" y="25" on="0"/>
        <pt x="669" y="25" on="1"/>
        <pt x="791" y="25" on="0"/>
        <pt x="831" y="182" on="1"/>
        <pt x="837" y="204" on="1"/>
        <pt x="921" y="204" on="1"/>
        <pt x="905" y="124" on="0"/>
        <pt x="857" y="75" on="1"/>
        <pt x="772" y="-10" on="0"/>
        <pt x="547" y="-10" on="0"/>
      </contour>
    </TTGlyph>
    <TTGlyph name="Oacute" xMin="105" yMin="-10" xMax="636" yMax="922">
      <contour>
        <pt x="295" y="-10" on="1"/>
        <pt x="201" y="-10" on="0"/>
        <pt x="105" y="88" on="0"/>
        <pt x="105" y="175" on="1"/>
        <pt x="105" y="210" on="0"/>
        <pt x="115" y="260" on="1"/>
        <pt x="151" y="429" on="1"/>
        <pt x="177" y="554" on="0"/>
        <pt x="330" y="700" on="0"/>
        <pt x="446" y="700" on="1"/>
        <pt x="540" y="700" on="0"/>
        <pt x="636" y="601" on="0"/>
        <pt x="636" y="513" on="1"/>
        <pt x="636" y="470" on="0"/>
        <pt x="627" y="429" on="1"/>
        <pt x="591" y="260" on="1"/>
        <pt x="565" y="136" on="0"/>
        <pt x="411" y="-10" on="0"/>
      </contour>
      <contour>
        <pt x="539" y="560" on="1"/>
        <pt x="539" y="609" on="0"/>
        <pt x="490" y="665" on="0"/>
        <pt x="375" y="665" on="0"/>
        <pt x="291" y="578" on="0"/>
        <pt x="276" y="508" on="1"/>
        <pt x="207" y="182" on="1"/>
        <pt x="201" y="155" on="0"/>
        <pt x="201" y="130" on="1"/>
        <pt x="201" y="81" on="0"/>
        <pt x="252" y="25" on="0"/>
        <pt x="366" y="25" on="0"/>
        <pt x="449" y="111" on="0"/>
        <pt x="464" y="182" on="1"/>
        <pt x="533" y="508" on="1"/>
        <pt x="539" y="535" on="0"/>
      </contour>
      <contour>
        <pt x="530" y="906" on="1"/>
        <pt x="539" y="922" on="0"/>
        <pt x="572" y="922" on="0"/>
        <pt x="599" y="897" on="0"/>
        <pt x="599" y="868" on="0"/>
        <pt x="588" y="859" on="1"/>
        <pt x="473" y="759" on="1"/>
        <pt x="456" y="771" on="1"/>
      </contour>
    </TTGlyph>
    <TTGlyph name="Ocircumflex" xMin="105" yMin="-10" xMax="636" yMax="910">
      <contour>
        <pt x="295" y="-10" on="1"/>
        <pt x="201" y="-10" on="0"/>
        <pt x="105" y="88" on="0"/>
        <pt x="105" y="175" on="1"/>
        <pt x="105" y="210" on="0"/>
        <pt x="115" y="260" on="1"/>
        <pt x="151" y="429" on="1"/>
        <pt x="177" y="554" on="0"/>
        <pt x="330" y="700" on="0"/>
        <pt x="446" y="700" on="1"/>
        <pt x="540" y="700" on="0"/>
        <pt x="636" y="601" on="0"/>
        <pt x="636" y="513" on="1"/>
        <pt x="636" y="470" on="0"/>
        <pt x="627" y="429" on="1"/>
        <pt x="591" y="260" on="1"/>
        <pt x="565" y="136" on="0"/>
        <pt x="411" y="-10" on="0"/>
      </contour>
      <contour>
        <pt x="539" y="560" on="1"/>
        <pt x="539" y="609" on="0"/>
        <pt x="490" y="665" on="0"/>
        <pt x="375" y="665" on="0"/>
        <pt x="291" y="578" on="0"/>
        <pt x="276" y="508" on="1"/>
        <pt x="207" y="182" on="1"/>
        <pt x="201" y="155" on="0"/>
        <pt x="201" y="130" on="1"/>
        <pt x="201" y="81" on="0"/>
        <pt x="252" y="25" on="0"/>
        <pt x="366" y="25" on="0"/>
        <pt x="449" y="111" on="0"/>
        <pt x="464" y="182" on="1"/>
        <pt x="533" y="508" on="1"/>
        <pt x="539" y="535" on="0"/>
      </contour>
      <contour>
        <pt x="478" y="893" on="1"/>
        <pt x="489" y="910" on="0"/>
        <pt x="528" y="910" on="0"/>
        <pt x="536" y="893" on="1"/>
        <pt x="584" y="767" on="1"/>
        <pt x="570" y="757" on="1"/>
        <pt x="499" y="854" on="1"/>
        <pt x="386" y="757" on="1"/>
        <pt x="376" y="767" on="1"/>
      </contour>
    </TTGlyph>
    <TTGlyph name="Odieresis" xMin="105" yMin="-10" xMax="636" yMax="867">
      <contour>
        <pt x="295" y="-10" on="1"/>
        <pt x="201" y="-10" on="0"/>
        <pt x="105" y="88" on="0"/>
        <pt x="105" y="175" on="1"/>
        <pt x="105" y="210" on="0"/>
        <pt x="115" y="260" on="1"/>
        <pt x="151" y="429" on="1"/>
        <pt x="177" y="554" on="0"/>
        <pt x="330" y="700" on="0"/>
        <pt x="446" y="700" on="1"/>
        <pt x="540" y="700" on="0"/>
        <pt x="636" y="601" on="0"/>
        <pt x="636" y="513" on="1"/>
        <pt x="636" y="470" on="0"/>
        <pt x="627" y="429" on="1"/>
        <pt x="591" y="260" on="1"/>
        <pt x="565" y="136" on="0"/>
        <pt x="411" y="-10" on="0"/>
      </contour>
      <contour>
        <pt x="539" y="560" on="1"/>
        <pt x="539" y="609" on="0"/>
        <pt x="490" y="665" on="0"/>
        <pt x="375" y="665" on="0"/>
        <pt x="291" y="578" on="0"/>
        <pt x="276" y="508" on="1"/>
        <pt x="207" y="182" on="1"/>
        <pt x="201" y="155" on="0"/>
        <pt x="201" y="130" on="1"/>
        <pt x="201" y="81" on="0"/>
        <pt x="252" y="25" on="0"/>
        <pt x="366" y="25" on="0"/>
        <pt x="449" y="111" on="0"/>
        <pt x="464" y="182" on="1"/>
        <pt x="533" y="508" on="1"/>
        <pt x="539" y="535" on="0"/>
      </contour>
      <contour>
        <pt x="582" y="867" on="0"/>
        <pt x="601" y="844" on="0"/>
        <pt x="601" y="801" on="0"/>
        <pt x="565" y="759" on="0"/>
        <pt x="529" y="759" on="0"/>
        <pt x="510" y="782" on="0"/>
        <pt x="510" y="824" on="0"/>
        <pt x="545" y="867" on="0"/>
      </contour>
      <contour>
        <pt x="430" y="867" on="0"/>
        <pt x="449" y="844" on="0"/>
        <pt x="449" y="801" on="0"/>
        <pt x="413" y="759" on="0"/>
        <pt x="377" y="759" on="0"/>
        <pt x="358" y="782" on="0"/>
        <pt x="358" y="824" on="0"/>
        <pt x="393" y="867" on="0"/>
      </contour>
    </TTGlyph>
    <TTGlyph name="Ograve" xMin="105" yMin="-10" xMax="636" yMax="922">
      <contour>
        <pt x="295" y="-10" on="1"/>
        <pt x="201" y="-10" on="0"/>
        <pt x="105" y="88" on="0"/>
        <pt x="105" y="175" on="1"/>
        <pt x="105" y="210" on="0"/>
        <pt x="115" y="260" on="1"/>
        <pt x="151" y="429" on="1"/>
        <pt x="177" y="554" on="0"/>
        <pt x="330" y="700" on="0"/>
        <pt x="446" y="700" on="1"/>
        <pt x="540" y="700" on="0"/>
        <pt x="636" y="601" on="0"/>
        <pt x="636" y="513" on="1"/>
        <pt x="636" y="470" on="0"/>
        <pt x="627" y="429" on="1"/>
        <pt x="591" y="260" on="1"/>
        <pt x="565" y="136" on="0"/>
        <pt x="411" y="-10" on="0"/>
      </contour>
      <contour>
        <pt x="539" y="560" on="1"/>
        <pt x="539" y="609" on="0"/>
        <pt x="490" y="665" on="0"/>
        <pt x="375" y="665" on="0"/>
        <pt x="291" y="578" on="0"/>
        <pt x="276" y="508" on="1"/>
        <pt x="207" y="182" on="1"/>
        <pt x="201" y="155" on="0"/>
        <pt x="201" y="130" on="1"/>
        <pt x="201" y="81" on="0"/>
        <pt x="252" y="25" on="0"/>
        <pt x="366" y="25" on="0"/>
        <pt x="449" y="111" on="0"/>
        <pt x="464" y="182" on="1"/>
        <pt x="533" y="508" on="1"/>
        <pt x="539" y="535" on="0"/>
      </contour>
      <contour>
        <pt x="367" y="858" on="1"/>
        <pt x="356" y="869" on="0"/>
        <pt x="356" y="897" on="0"/>
        <pt x="382" y="922" on="0"/>
        <pt x="416" y="922" on="0"/>
        <pt x="425" y="906" on="1"/>
        <pt x="499" y="771" on="1"/>
        <pt x="482" y="758" on="1"/>
      </contour>
    </TTGlyph>
    <TTGlyph name="Oslash" xMin="105" yMin="-39" xMax="636" yMax="731">
      <contour>
        <pt x="439" y="665" on="1"/>
        <pt x="375" y="665" on="0"/>
        <pt x="292" y="579" on="0"/>
        <pt x="277" y="509" on="1"/>
        <pt x="207" y="182" on="1"/>
        <pt x="201" y="154" on="0"/>
        <pt x="201" y="130" on="1"/>
        <pt x="201" y="62" on="0"/>
        <pt x="246" y="37" on="1"/>
        <pt x="453" y="665" on="1"/>
      </contour>
      <contour>
        <pt x="303" y="25" on="1"/>
        <pt x="366" y="25" on="0"/>
        <pt x="449" y="111" on="0"/>
        <pt x="464" y="182" on="1"/>
        <pt x="534" y="509" on="1"/>
        <pt x="540" y="536" on="0"/>
        <pt x="540" y="560" on="1"/>
        <pt x="540" y="628" on="0"/>
        <pt x="495" y="653" on="1"/>
        <pt x="289" y="25" on="1"/>
      </contour>
      <contour>
        <pt x="636" y="513" on="1"/>
        <pt x="636" y="475" on="0"/>
        <pt x="627" y="430" on="1"/>
        <pt x="591" y="260" on="1"/>
        <pt x="565" y="136" on="0"/>
        <pt x="411" y="-10" on="0"/>
        <pt x="295" y="-10" on="1"/>
        <pt x="277" y="-10" on="1"/>
        <pt x="268" y="-39" on="1"/>
        <pt x="223" y="-35" on="1"/>
        <pt x="234" y="-3" on="1"/>
        <pt x="105" y="27" on="0"/>
        <pt x="105" y="175" on="1"/>
        <pt x="105" y="217" on="0"/>
        <pt x="115" y="260" on="1"/>
        <pt x="151" y="430" on="1"/>
        <pt x="177" y="554" on="0"/>
        <pt x="330" y="700" on="0"/>
        <pt x="446" y="700" on="1"/>
        <pt x="464" y="700" on="1"/>
        <pt x="474" y="731" on="1"/>
        <pt x="519" y="726" on="1"/>
        <pt x="507" y="692" on="1"/>
        <pt x="636" y="662" on="0"/>
      </contour>
    </TTGlyph>
    <TTGlyph name="Otilde" xMin="105" yMin="-10" xMax="636" yMax="844">
      <contour>
        <pt x="295" y="-10" on="1"/>
        <pt x="201" y="-10" on="0"/>
        <pt x="105" y="88" on="0"/>
        <pt x="105" y="175" on="1"/>
        <pt x="105" y="210" on="0"/>
        <pt x="115" y="260" on="1"/>
        <pt x="151" y="429" on="1"/>
        <pt x="177" y="554" on="0"/>
        <pt x="330" y="700" on="0"/>
        <pt x="446" y="700" on="1"/>
        <pt x="540" y="700" on="0"/>
        <pt x="636" y="601" on="0"/>
        <pt x="636" y="513" on="1"/>
        <pt x="636" y="470" on="0"/>
        <pt x="627" y="429" on="1"/>
        <pt x="591" y="260" on="1"/>
        <pt x="565" y="136" on="0"/>
        <pt x="411" y="-10" on="0"/>
      </contour>
      <contour>
        <pt x="539" y="560" on="1"/>
        <pt x="539" y="609" on="0"/>
        <pt x="490" y="665" on="0"/>
        <pt x="375" y="665" on="0"/>
        <pt x="291" y="578" on="0"/>
        <pt x="276" y="508" on="1"/>
        <pt x="207" y="182" on="1"/>
        <pt x="201" y="155" on="0"/>
        <pt x="201" y="130" on="1"/>
        <pt x="201" y="81" on="0"/>
        <pt x="252" y="25" on="0"/>
        <pt x="366" y="25" on="0"/>
        <pt x="449" y="111" on="0"/>
        <pt x="464" y="182" on="1"/>
        <pt x="533" y="508" on="1"/>
        <pt x="539" y="535" on="0"/>
      </contour>
      <contour>
        <pt x="544" y="761" on="0"/>
        <pt x="500" y="761" on="0"/>
        <pt x="426" y="798" on="0"/>
        <pt x="410" y="798" on="1"/>
        <pt x="379" y="798" on="0"/>
        <pt x="350" y="769" on="1"/>
        <pt x="337" y="780" on="1"/>
        <pt x="392" y="844" on="0"/>
        <pt x="446" y="844" on="1"/>
        <pt x="463" y="844" on="0"/>
        <pt x="526" y="811" on="0"/>
        <pt x="574" y="811" on="0"/>
        <pt x="596" y="825" on="1"/>
        <pt x="597" y="826" on="1"/>
        <pt x="609" y="816" on="1"/>
        <pt x="591" y="791" on="0"/>
      </contour>
    </TTGlyph>
    <TTGlyph name="P" xMin="27" yMin="-200" xMax="649" yMax="700">
      <contour>
        <pt x="330" y="-10" on="1"/>
        <pt x="295" y="-10" on="0"/>
        <pt x="242" y="19" on="0"/>
        <pt x="229" y="42" on="1"/>
        <pt x="206" y="83" on="0"/>
        <pt x="202" y="115" on="1"/>
        <pt x="135" y="-200" on="1"/>
        <pt x="27" y="-200" on="1"/>
        <pt x="216" y="690" on="1"/>
        <pt x="324" y="690" on="1"/>
        <pt x="301" y="580" on="1"/>
        <pt x="324" y="623" on="0"/>
        <pt x="423" y="700" on="0"/>
        <pt x="561" y="700" on="0"/>
        <pt x="649" y="610" on="0"/>
        <pt x="649" y="525" on="1"/>
        <pt x="649" y="488" on="0"/>
        <pt x="640" y="443" on="1"/>
        <pt x="597" y="244" on="1"/>
        <pt x="571" y="121" on="0"/>
        <pt x="416" y="-10" on="0"/>
      </contour>
      <contour>
        <pt x="549" y="561" on="1"/>
        <pt x="549" y="665" on="0"/>
        <pt x="457" y="665" on="1"/>
        <pt x="393" y="665" on="0"/>
        <pt x="294" y="544" on="0"/>
        <pt x="277" y="463" on="1"/>
        <pt x="226" y="222" on="1"/>
        <pt x="220" y="197" on="0"/>
        <pt x="220" y="169" on="1"/>
        <pt x="220" y="109" on="0"/>
        <pt x="275" y="25" on="0"/>
        <pt x="328" y="25" on="1"/>
        <pt x="365" y="25" on="0"/>
        <pt x="423" y="62" on="0"/>
        <pt x="440" y="93" on="1"/>
        <pt x="468" y="145" on="0"/>
        <pt x="478" y="193" on="1"/>
        <pt x="541" y="493" on="1"/>
        <pt x="549" y="528" on="0"/>
      </contour>
    </TTGlyph>
    <TTGlyph name="Q" xMin="103" yMin="-200" xMax="683" yMax="700">
      <contour>
        <pt x="427" y="67" on="0"/>
        <pt x="328" y="-10" on="0"/>
        <pt x="190" y="-10" on="0"/>
        <pt x="103" y="80" on="0"/>
        <pt x="103" y="164" on="1"/>
        <pt x="103" y="202" on="0"/>
        <pt x="112" y="247" on="1"/>
        <pt x="154" y="446" on="1"/>
        <pt x="180" y="568" on="0"/>
        <pt x="336" y="700" on="0"/>
        <pt x="421" y="700" on="1"/>
        <pt x="499" y="700" on="0"/>
        <pt x="532" y="632" on="1"/>
        <pt x="547" y="602" on="0"/>
        <pt x="549" y="575" on="1"/>
        <pt x="573" y="690" on="1"/>
        <pt x="683" y="690" on="1"/>
        <pt x="494" y="-200" on="1"/>
        <pt x="384" y="-200" on="1"/>
        <pt x="450" y="110" on="1"/>
      </contour>
      <contour>
        <pt x="532" y="522" on="1"/>
        <pt x="532" y="582" on="0"/>
        <pt x="477" y="665" on="0"/>
        <pt x="424" y="665" on="1"/>
        <pt x="387" y="665" on="0"/>
        <pt x="329" y="627" on="0"/>
        <pt x="312" y="596" on="1"/>
        <pt x="284" y="544" on="0"/>
        <pt x="274" y="496" on="1"/>
        <pt x="210" y="197" on="1"/>
        <pt x="202" y="157" on="0"/>
        <pt x="202" y="131" on="1"/>
        <pt x="202" y="25" on="0"/>
        <pt x="296" y="25" on="1"/>
        <pt x="360" y="25" on="0"/>
        <pt x="458" y="145" on="0"/>
        <pt x="475" y="226" on="1"/>
        <pt x="526" y="468" on="1"/>
        <pt x="532" y="495" on="0"/>
      </contour>
    </TTGlyph>
    <TTGlyph name="R" xMin="70" yMin="0" xMax="613" yMax="690">
      <contour>
        <pt x="443" y="221" on="1"/>
        <pt x="443" y="325" on="0"/>
        <pt x="328" y="325" on="1"/>
        <pt x="313" y="325" on="0"/>
        <pt x="301" y="324" on="1"/>
        <pt x="307" y="349" on="1"/>
        <pt x="406" y="352" on="0"/>
        <pt x="510" y="476" on="0"/>
        <pt x="510" y="560" on="1"/>
        <pt x="510" y="611" on="0"/>
        <pt x="442" y="657" on="0"/>
        <pt x="372" y="657" on="1"/>
        <pt x="317" y="657" on="1"/>
        <pt x="178" y="0" on="1"/>
        <pt x="70" y="0" on="1"/>
        <pt x="216" y="690" on="1"/>
        <pt x="411" y="690" on="1"/>
        <pt x="613" y="690" on="0"/>
        <pt x="613" y="560" on="1"/>
        <pt x="613" y="477" on="0"/>
        <pt x="502" y="363" on="0"/>
        <pt x="410" y="339" on="1"/>
        <pt x="545" y="311" on="0"/>
        <pt x="545" y="193" on="1"/>
        <pt x="545" y="172" on="0"/>
        <pt x="538" y="135" on="1"/>
        <pt x="510" y="0" on="1"/>
        <pt x="402" y="0" on="1"/>
        <pt x="437" y="169" on="1"/>
        <pt x="443" y="197" on="0"/>
      </contour>
    </TTGlyph>
    <TTGlyph name="S" xMin="65" yMin="-10" xMax="532" yMax="700">
      <contour>
        <pt x="488" y="211" on="1"/>
        <pt x="488" y="118" on="0"/>
        <pt x="342" y="-10" on="0"/>
        <pt x="239" y="-10" on="1"/>
        <pt x="65" y="-10" on="0"/>
        <pt x="65" y="123" on="1"/>
        <pt x="65" y="147" on="0"/>
        <pt x="74" y="184" on="1"/>
        <pt x="153" y="184" on="1"/>
        <pt x="142" y="134" on="0"/>
        <pt x="142" y="111" on="1"/>
        <pt x="142" y="25" on="0"/>
        <pt x="241" y="25" on="1"/>
        <pt x="299" y="25" on="0"/>
        <pt x="385" y="100" on="0"/>
        <pt x="385" y="157" on="1"/>
        <pt x="385" y="185" on="0"/>
        <pt x="364" y="207" on="1"/>
        <pt x="197" y="385" on="1"/>
        <pt x="164" y="419" on="0"/>
        <pt x="164" y="476" on="1"/>
        <pt x="164" y="565" on="0"/>
        <pt x="293" y="700" on="0"/>
        <pt x="392" y="700" on="1"/>
        <pt x="463" y="700" on="0"/>
        <pt x="532" y="636" on="0"/>
        <pt x="532" y="591" on="1"/>
        <pt x="530" y="563" on="1"/>
        <pt x="497" y="563" on="1"/>
        <pt x="498" y="569" on="0"/>
        <pt x="498" y="576" on="1"/>
        <pt x="498" y="609" on="0"/>
        <pt x="450" y="665" on="0"/>
        <pt x="341" y="665" on="0"/>
        <pt x="263" y="591" on="0"/>
        <pt x="263" y="528" on="1"/>
        <pt x="263" y="493" on="0"/>
        <pt x="285" y="470" on="1"/>
        <pt x="457" y="286" on="1"/>
        <pt x="488" y="254" on="0"/>
      </contour>
    </TTGlyph>
    <TTGlyph name="Scaron" xMin="65" yMin="-10" xMax="554" yMax="912">
      <contour>
        <pt x="488" y="211" on="1"/>
        <pt x="488" y="118" on="0"/>
        <pt x="342" y="-10" on="0"/>
        <pt x="239" y="-10" on="1"/>
        <pt x="65" y="-10" on="0"/>
        <pt x="65" y="123" on="1"/>
        <pt x="65" y="147" on="0"/>
        <pt x="74" y="184" on="1"/>
        <pt x="153" y="184" on="1"/>
        <pt x="142" y="134" on="0"/>
        <pt x="142" y="111" on="1"/>
        <pt x="142" y="25" on="0"/>
        <pt x="241" y="25" on="1"/>
        <pt x="299" y="25" on="0"/>
        <pt x="385" y="100" on="0"/>
        <pt x="385" y="157" on="1"/>
        <pt x="385" y="185" on="0"/>
        <pt x="364" y="207" on="1"/>
        <pt x="197" y="385" on="1"/>
        <pt x="164" y="419" on="0"/>
        <pt x="164" y="476" on="1"/>
        <pt x="164" y="565" on="0"/>
        <pt x="293" y="700" on="0"/>
        <pt x="392" y="700" on="1"/>
        <pt x="463" y="700" on="0"/>
        <pt x="532" y="636" on="0"/>
        <pt x="532" y="591" on="1"/>
        <pt x="530" y="563" on="1"/>
        <pt x="497" y="563" on="1"/>
        <pt x="498" y="569" on="0"/>
        <pt x="498" y="576" on="1"/>
        <pt x="498" y="609" on="0"/>
        <pt x="450" y="665" on="0"/>
        <pt x="341" y="665" on="0"/>
        <pt x="263" y="591" on="0"/>
        <pt x="263" y="528" on="1"/>
        <pt x="263" y="493" on="0"/>
        <pt x="285" y="470" on="1"/>
        <pt x="457" y="286" on="1"/>
        <pt x="488" y="254" on="0"/>
      </contour>
      <contour>
        <pt x="452" y="776" on="1"/>
        <pt x="439" y="759" on="0"/>
        <pt x="400" y="759" on="0"/>
        <pt x="394" y="776" on="1"/>
        <pt x="346" y="902" on="1"/>
        <pt x="362" y="912" on="1"/>
        <pt x="433" y="815" on="1"/>
        <pt x="542" y="912" on="1"/>
        <pt x="554" y="902" on="1"/>
      </contour>
    </TTGlyph>
    <TTGlyph name="T" xMin="126" yMin="0" xMax="686" yMax="700">
      <contour>
        <pt x="585" y="563" on="1"/>
        <pt x="585" y="607" on="0"/>
        <pt x="539" y="653" on="0"/>
        <pt x="493" y="665" on="1"/>
        <pt x="351" y="0" on="1"/>
        <pt x="242" y="0" on="1"/>
        <pt x="384" y="665" on="1"/>
        <pt x="319" y="650" on="0"/>
        <pt x="284" y="618" on="1"/>
        <pt x="244" y="581" on="0"/>
        <pt x="229" y="496" on="1"/>
        <pt x="126" y="496" on="1"/>
        <pt x="129" y="513" on="1"/>
        <pt x="162" y="700" on="0"/>
        <pt x="445" y="700" on="1"/>
        <pt x="686" y="700" on="0"/>
        <pt x="686" y="553" on="1"/>
        <pt x="686" y="536" on="0"/>
        <pt x="679" y="496" on="1"/>
        <pt x="575" y="496" on="1"/>
        <pt x="585" y="541" on="0"/>
      </contour>
    </TTGlyph>
    <TTGlyph name="Thorn" xMin="27" yMin="-200" xMax="633" yMax="690">
      <contour>
        <pt x="330" y="-10" on="1"/>
        <pt x="295" y="-10" on="0"/>
        <pt x="242" y="19" on="0"/>
        <pt x="229" y="42" on="1"/>
        <pt x="206" y="83" on="0"/>
        <pt x="202" y="115" on="1"/>
        <pt x="135" y="-200" on="1"/>
        <pt x="27" y="-200" on="1"/>
        <pt x="217" y="690" on="1"/>
        <pt x="325" y="690" on="1"/>
        <pt x="285" y="501" on="1"/>
        <pt x="308" y="544" on="0"/>
        <pt x="407" y="621" on="0"/>
        <pt x="545" y="621" on="0"/>
        <pt x="633" y="531" on="0"/>
        <pt x="633" y="446" on="1"/>
        <pt x="633" y="409" on="0"/>
        <pt x="624" y="364" on="1"/>
        <pt x="597" y="244" on="1"/>
        <pt x="571" y="121" on="0"/>
        <pt x="416" y="-10" on="0"/>
      </contour>
      <contour>
        <pt x="533" y="482" on="1"/>
        <pt x="533" y="586" on="0"/>
        <pt x="441" y="586" on="1"/>
        <pt x="377" y="586" on="0"/>
        <pt x="278" y="465" on="0"/>
        <pt x="261" y="384" on="1"/>
        <pt x="226" y="222" on="1"/>
        <pt x="220" y="197" on="0"/>
        <pt x="220" y="169" on="1"/>
        <pt x="220" y="109" on="0"/>
        <pt x="275" y="25" on="0"/>
        <pt x="328" y="25" on="1"/>
        <pt x="365" y="25" on="0"/>
        <pt x="423" y="62" on="0"/>
        <pt x="440" y="93" on="1"/>
        <pt x="468" y="145" on="0"/>
        <pt x="478" y="193" on="1"/>
        <pt x="525" y="414" on="1"/>
        <pt x="533" y="449" on="0"/>
      </contour>
    </TTGlyph>
    <TTGlyph name="U" xMin="103" yMin="-10" xMax="682" yMax="690">
      <contour>
        <pt x="427" y="67" on="0"/>
        <pt x="328" y="-10" on="0"/>
        <pt x="190" y="-10" on="0"/>
        <pt x="103" y="81" on="0"/>
        <pt x="103" y="165" on="1"/>
        <pt x="103" y="202" on="0"/>
        <pt x="112" y="247" on="1"/>
        <pt x="206" y="690" on="1"/>
        <pt x="314" y="690" on="1"/>
        <pt x="209" y="197" on="1"/>
        <pt x="201" y="157" on="0"/>
        <pt x="201" y="131" on="1"/>
        <pt x="201" y="25" on="0"/>
        <pt x="294" y="25" on="1"/>
        <pt x="359" y="25" on="0"/>
        <pt x="457" y="146" on="0"/>
        <pt x="474" y="227" on="1"/>
        <pt x="572" y="690" on="1"/>
        <pt x="682" y="690" on="1"/>
        <pt x="536" y="0" on="1"/>
        <pt x="427" y="0" on="1"/>
        <pt x="450" y="110" on="1"/>
      </contour>
    </TTGlyph>
    <TTGlyph name="Uacute" xMin="103" yMin="-10" xMax="682" yMax="922">
      <contour>
        <pt x="427" y="67" on="0"/>
        <pt x="328" y="-10" on="0"/>
        <pt x="190" y="-10" on="0"/>
        <pt x="103" y="81" on="0"/>
        <pt x="103" y="165" on="1"/>
        <pt x="103" y="202" on="0"/>
        <pt x="112" y="247" on="1"/>
        <pt x="206" y="690" on="1"/>
        <pt x="314" y="690" on="1"/>
        <pt x="209" y="197" on="1"/>
        <pt x="201" y="157" on="0"/>
        <pt x="201" y="131" on="1"/>
        <pt x="201" y="25" on="0"/>
        <pt x="294" y="25" on="1"/>
        <pt x="359" y="25" on="0"/>
        <pt x="457" y="146" on="0"/>
        <pt x="474" y="227" on="1"/>
        <pt x="572" y="690" on="1"/>
        <pt x="682" y="690" on="1"/>
        <pt x="536" y="0" on="1"/>
        <pt x="427" y="0" on="1"/>
        <pt x="450" y="110" on="1"/>
      </contour>
      <contour>
        <pt x="485" y="906" on="1"/>
        <pt x="494" y="922" on="0"/>
        <pt x="527" y="922" on="0"/>
        <pt x="554" y="897" on="0"/>
        <pt x="554" y="868" on="0"/>
        <pt x="543" y="859" on="1"/>
        <pt x="428" y="759" on="1"/>
        <pt x="411" y="771" on="1"/>
      </contour>
    </TTGlyph>
    <TTGlyph name="Ucircumflex" xMin="103" yMin="-10" xMax="682" yMax="910">
      <contour>
        <pt x="427" y="67" on="0"/>
        <pt x="328" y="-10" on="0"/>
        <pt x="190" y="-10" on="0"/>
        <pt x="103" y="81" on="0"/>
        <pt x="103" y="165" on="1"/>
        <pt x="103" y="202" on="0"/>
        <pt x="112" y="247" on="1"/>
        <pt x="206" y="690" on="1"/>
        <pt x="314" y="690" on="1"/>
        <pt x="209" y="197" on="1"/>
        <pt x="201" y="157" on="0"/>
        <pt x="201" y="131" on="1"/>
        <pt x="201" y="25" on="0"/>
        <pt x="294" y="25" on="1"/>
        <pt x="359" y="25" on="0"/>
        <pt x="457" y="146" on="0"/>
        <pt x="474" y="227" on="1"/>
        <pt x="572" y="690" on="1"/>
        <pt x="682" y="690" on="1"/>
        <pt x="536" y="0" on="1"/>
        <pt x="427" y="0" on="1"/>
        <pt x="450" y="110" on="1"/>
      </contour>
      <contour>
        <pt x="453" y="893" on="1"/>
        <pt x="464" y="910" on="0"/>
        <pt x="503" y="910" on="0"/>
        <pt x="511" y="893" on="1"/>
        <pt x="559" y="767" on="1"/>
        <pt x="545" y="757" on="1"/>
        <pt x="474" y="854" on="1"/>
        <pt x="361" y="757" on="1"/>
        <pt x="351" y="767" on="1"/>
      </contour>
    </TTGlyph>
    <TTGlyph name="Udieresis" xMin="103" yMin="-10" xMax="682" yMax="866">
      <contour>
        <pt x="427" y="67" on="0"/>
        <pt x="328" y="-10" on="0"/>
        <pt x="190" y="-10" on="0"/>
        <pt x="103" y="81" on="0"/>
        <pt x="103" y="165" on="1"/>
        <pt x="103" y="202" on="0"/>
        <pt x="112" y="247" on="1"/>
        <pt x="206" y="690" on="1"/>
        <pt x="314" y="690" on="1"/>
        <pt x="209" y="197" on="1"/>
        <pt x="201" y="157" on="0"/>
        <pt x="201" y="131" on="1"/>
        <pt x="201" y="25" on="0"/>
        <pt x="294" y="25" on="1"/>
        <pt x="359" y="25" on="0"/>
        <pt x="457" y="146" on="0"/>
        <pt x="474" y="227" on="1"/>
        <pt x="572" y="690" on="1"/>
        <pt x="682" y="690" on="1"/>
        <pt x="536" y="0" on="1"/>
        <pt x="427" y="0" on="1"/>
        <pt x="450" y="110" on="1"/>
      </contour>
      <contour>
        <pt x="582" y="866" on="0"/>
        <pt x="601" y="843" on="0"/>
        <pt x="601" y="800" on="0"/>
        <pt x="565" y="758" on="0"/>
        <pt x="529" y="758" on="0"/>
        <pt x="510" y="781" on="0"/>
        <pt x="510" y="824" on="0"/>
        <pt x="545" y="866" on="0"/>
      </contour>
      <contour>
        <pt x="430" y="866" on="0"/>
        <pt x="449" y="843" on="0"/>
        <pt x="449" y="800" on="0"/>
        <pt x="413" y="758" on="0"/>
        <pt x="377" y="758" on="0"/>
        <pt x="358" y="781" on="0"/>
        <pt x="358" y="824" on="0"/>
        <pt x="393" y="866" on="0"/>
      </contour>
    </TTGlyph>
    <TTGlyph name="Ugrave" xMin="103" yMin="-10" xMax="682" yMax="919">
      <contour>
        <pt x="427" y="67" on="0"/>
        <pt x="328" y="-10" on="0"/>
        <pt x="190" y="-10" on="0"/>
        <pt x="103" y="81" on="0"/>
        <pt x="103" y="165" on="1"/>
        <pt x="103" y="202" on="0"/>
        <pt x="112" y="247" on="1"/>
        <pt x="206" y="690" on="1"/>
        <pt x="314" y="690" on="1"/>
        <pt x="209" y="197" on="1"/>
        <pt x="201" y="157" on="0"/>
        <pt x="201" y="131" on="1"/>
        <pt x="201" y="25" on="0"/>
        <pt x="294" y="25" on="1"/>
        <pt x="359" y="25" on="0"/>
        <pt x="457" y="146" on="0"/>
        <pt x="474" y="227" on="1"/>
        <pt x="572" y="690" on="1"/>
        <pt x="682" y="690" on="1"/>
        <pt x="536" y="0" on="1"/>
        <pt x="427" y="0" on="1"/>
        <pt x="450" y="110" on="1"/>
      </contour>
      <contour>
        <pt x="362" y="855" on="1"/>
        <pt x="351" y="866" on="0"/>
        <pt x="351" y="894" on="0"/>
        <pt x="377" y="919" on="0"/>
        <pt x="411" y="919" on="0"/>
        <pt x="420" y="903" on="1"/>
        <pt x="494" y="768" on="1"/>
        <pt x="477" y="755" on="1"/>
      </contour>
    </TTGlyph>
    <TTGlyph name="V" xMin="168" yMin="0" xMax="625" yMax="690">
      <contour>
        <pt x="625" y="690" on="1"/>
        <pt x="306" y="0" on="1"/>
        <pt x="183" y="0" on="1"/>
        <pt x="168" y="690" on="1"/>
        <pt x="280" y="690" on="1"/>
        <pt x="293" y="77" on="1"/>
        <pt x="575" y="690" on="1"/>
      </contour>
    </TTGlyph>
    <TTGlyph name="W" xMin="168" yMin="0" xMax="933" yMax="690">
      <contour>
        <pt x="475" y="690" on="1"/>
        <pt x="525" y="690" on="1"/>
        <pt x="529" y="590" on="1"/>
        <pt x="575" y="690" on="1"/>
        <pt x="625" y="690" on="1"/>
        <pt x="532" y="491" on="1"/>
        <pt x="547" y="77" on="1"/>
        <pt x="821" y="690" on="1"/>
        <pt x="933" y="690" on="1"/>
        <pt x="625" y="0" on="1"/>
        <pt x="502" y="0" on="1"/>
        <pt x="487" y="392" on="1"/>
        <pt x="306" y="0" on="1"/>
        <pt x="183" y="0" on="1"/>
        <pt x="168" y="690" on="1"/>
        <pt x="280" y="690" on="1"/>
        <pt x="293" y="77" on="1"/>
        <pt x="483" y="491" on="1"/>
      </contour>
    </TTGlyph>
    <TTGlyph name="W.alt1" xMin="167" yMin="0" xMax="1002" yMax="690">
      <contour>
        <pt x="658" y="690" on="1"/>
        <pt x="670" y="77" on="1"/>
        <pt x="954" y="690" on="1"/>
        <pt x="1002" y="690" on="1"/>
        <pt x="685" y="0" on="1"/>
        <pt x="561" y="0" on="1"/>
        <pt x="550" y="528" on="1"/>
        <pt x="306" y="0" on="1"/>
        <pt x="183" y="0" on="1"/>
        <pt x="167" y="690" on="1"/>
        <pt x="279" y="690" on="1"/>
        <pt x="293" y="77" on="1"/>
        <pt x="548" y="631" on="1"/>
        <pt x="546" y="690" on="1"/>
      </contour>
    </TTGlyph>
    <TTGlyph name="X" xMin="71" yMin="-10" xMax="783" yMax="700">
      <contour>
        <pt x="688" y="94" on="0"/>
        <pt x="559" y="-10" on="0"/>
        <pt x="402" y="-10" on="0"/>
        <pt x="362" y="37" on="1"/>
        <pt x="298" y="-10" on="0"/>
        <pt x="154" y="-10" on="0"/>
        <pt x="71" y="70" on="0"/>
        <pt x="71" y="131" on="1"/>
        <pt x="71" y="151" on="0"/>
        <pt x="78" y="179" on="1"/>
        <pt x="158" y="179" on="1"/>
        <pt x="142" y="106" on="0"/>
        <pt x="142" y="97" on="1"/>
        <pt x="142" y="66" on="0"/>
        <pt x="182" y="25" on="0"/>
        <pt x="254" y="25" on="0"/>
        <pt x="314" y="75" on="0"/>
        <pt x="324" y="119" on="1"/>
        <pt x="420" y="571" on="1"/>
        <pt x="423" y="585" on="0"/>
        <pt x="423" y="596" on="1"/>
        <pt x="423" y="629" on="0"/>
        <pt x="384" y="665" on="0"/>
        <pt x="313" y="665" on="0"/>
        <pt x="250" y="612" on="0"/>
        <pt x="242" y="575" on="1"/>
        <pt x="228" y="511" on="1"/>
        <pt x="148" y="511" on="1"/>
        <pt x="151" y="523" on="1"/>
        <pt x="169" y="597" on="0"/>
        <pt x="295" y="700" on="0"/>
        <pt x="449" y="700" on="0"/>
        <pt x="493" y="653" on="1"/>
        <pt x="553" y="700" on="0"/>
        <pt x="700" y="700" on="0"/>
        <pt x="783" y="620" on="0"/>
        <pt x="783" y="559" on="1"/>
        <pt x="783" y="539" on="0"/>
        <pt x="776" y="511" on="1"/>
        <pt x="696" y="511" on="1"/>
        <pt x="712" y="584" on="0"/>
        <pt x="712" y="593" on="1"/>
        <pt x="712" y="624" on="0"/>
        <pt x="672" y="665" on="0"/>
        <pt x="600" y="665" on="0"/>
        <pt x="539" y="615" on="0"/>
        <pt x="530" y="571" on="1"/>
        <pt x="434" y="119" on="1"/>
        <pt x="431" y="106" on="0"/>
        <pt x="431" y="93" on="1"/>
        <pt x="431" y="61" on="0"/>
        <pt x="470" y="25" on="0"/>
        <pt x="541" y="25" on="0"/>
        <pt x="604" y="78" on="0"/>
        <pt x="612" y="115" on="1"/>
        <pt x="626" y="179" on="1"/>
        <pt x="706" y="179" on="1"/>
        <pt x="703" y="167" on="1"/>
      </contour>
    </TTGlyph>
    <TTGlyph name="Y" xMin="148" yMin="0" xMax="686" yMax="690">
      <contour>
        <pt x="148" y="552" on="1"/>
        <pt x="148" y="581" on="0"/>
        <pt x="154" y="611" on="1"/>
        <pt x="171" y="690" on="1"/>
        <pt x="280" y="690" on="1"/>
        <pt x="248" y="538" on="1"/>
        <pt x="244" y="521" on="0"/>
        <pt x="244" y="500" on="1"/>
        <pt x="244" y="447" on="0"/>
        <pt x="308" y="382" on="0"/>
        <pt x="429" y="382" on="0"/>
        <pt x="530" y="470" on="0"/>
        <pt x="544" y="538" on="1"/>
        <pt x="576" y="690" on="1"/>
        <pt x="686" y="690" on="1"/>
        <pt x="669" y="611" on="1"/>
        <pt x="649" y="514" on="0"/>
        <pt x="506" y="371" on="0"/>
        <pt x="411" y="353" on="1"/>
        <pt x="337" y="0" on="1"/>
        <pt x="228" y="0" on="1"/>
        <pt x="302" y="352" on="1"/>
        <pt x="230" y="368" on="0"/>
        <pt x="148" y="476" on="0"/>
      </contour>
    </TTGlyph>
    <TTGlyph name="Yacute" xMin="148" yMin="0" xMax="686" yMax="922">
      <contour>
        <pt x="148" y="552" on="1"/>
        <pt x="148" y="581" on="0"/>
        <pt x="154" y="611" on="1"/>
        <pt x="171" y="690" on="1"/>
        <pt x="280" y="690" on="1"/>
        <pt x="248" y="538" on="1"/>
        <pt x="244" y="521" on="0"/>
        <pt x="244" y="500" on="1"/>
        <pt x="244" y="447" on="0"/>
        <pt x="308" y="382" on="0"/>
        <pt x="429" y="382" on="0"/>
        <pt x="530" y="470" on="0"/>
        <pt x="544" y="538" on="1"/>
        <pt x="576" y="690" on="1"/>
        <pt x="686" y="690" on="1"/>
        <pt x="669" y="611" on="1"/>
        <pt x="649" y="514" on="0"/>
        <pt x="506" y="371" on="0"/>
        <pt x="411" y="353" on="1"/>
        <pt x="337" y="0" on="1"/>
        <pt x="228" y="0" on="1"/>
        <pt x="302" y="352" on="1"/>
        <pt x="230" y="368" on="0"/>
        <pt x="148" y="476" on="0"/>
      </contour>
      <contour>
        <pt x="483" y="906" on="1"/>
        <pt x="492" y="922" on="0"/>
        <pt x="525" y="922" on="0"/>
        <pt x="552" y="897" on="0"/>
        <pt x="552" y="868" on="0"/>
        <pt x="541" y="859" on="1"/>
        <pt x="426" y="759" on="1"/>
        <pt x="409" y="771" on="1"/>
      </contour>
    </TTGlyph>
    <TTGlyph name="Ydieresis" xMin="148" yMin="0" xMax="686" yMax="866">
      <contour>
        <pt x="148" y="552" on="1"/>
        <pt x="148" y="581" on="0"/>
        <pt x="154" y="611" on="1"/>
        <pt x="171" y="690" on="1"/>
        <pt x="280" y="690" on="1"/>
        <pt x="248" y="538" on="1"/>
        <pt x="244" y="521" on="0"/>
        <pt x="244" y="500" on="1"/>
        <pt x="244" y="447" on="0"/>
        <pt x="308" y="382" on="0"/>
        <pt x="429" y="382" on="0"/>
        <pt x="530" y="470" on="0"/>
        <pt x="544" y="538" on="1"/>
        <pt x="576" y="690" on="1"/>
        <pt x="686" y="690" on="1"/>
        <pt x="669" y="611" on="1"/>
        <pt x="649" y="514" on="0"/>
        <pt x="506" y="371" on="0"/>
        <pt x="411" y="353" on="1"/>
        <pt x="337" y="0" on="1"/>
        <pt x="228" y="0" on="1"/>
        <pt x="302" y="352" on="1"/>
        <pt x="230" y="368" on="0"/>
        <pt x="148" y="476" on="0"/>
      </contour>
      <contour>
        <pt x="556" y="866" on="0"/>
        <pt x="575" y="843" on="0"/>
        <pt x="575" y="800" on="0"/>
        <pt x="539" y="758" on="0"/>
        <pt x="503" y="758" on="0"/>
        <pt x="484" y="781" on="0"/>
        <pt x="484" y="824" on="0"/>
        <pt x="519" y="866" on="0"/>
      </contour>
      <contour>
        <pt x="404" y="866" on="0"/>
        <pt x="423" y="843" on="0"/>
        <pt x="423" y="800" on="0"/>
        <pt x="387" y="758" on="0"/>
        <pt x="351" y="758" on="0"/>
        <pt x="332" y="781" on="0"/>
        <pt x="332" y="824" on="0"/>
        <pt x="367" y="866" on="0"/>
      </contour>
    </TTGlyph>
    <TTGlyph name="Z" xMin="30" yMin="0" xMax="625" yMax="690">
      <contour>
        <pt x="495" y="0" on="1"/>
        <pt x="30" y="0" on="1"/>
        <pt x="482" y="643" on="1"/>
        <pt x="174" y="643" on="1"/>
        <pt x="184" y="690" on="1"/>
        <pt x="625" y="690" on="1"/>
        <pt x="172" y="47" on="1"/>
        <pt x="504" y="47" on="1"/>
      </contour>
    </TTGlyph>
    <TTGlyph name="Zcaron" xMin="30" yMin="0" xMax="625" yMax="912">
      <contour>
        <pt x="495" y="0" on="1"/>
        <pt x="30" y="0" on="1"/>
        <pt x="482" y="643" on="1"/>
        <pt x="174" y="643" on="1"/>
        <pt x="184" y="690" on="1"/>
        <pt x="625" y="690" on="1"/>
        <pt x="172" y="47" on="1"/>
        <pt x="504" y="47" on="1"/>
      </contour>
      <contour>
        <pt x="494" y="776" on="1"/>
        <pt x="481" y="759" on="0"/>
        <pt x="442" y="759" on="0"/>
        <pt x="436" y="776" on="1"/>
        <pt x="388" y="902" on="1"/>
        <pt x="404" y="912" on="1"/>
        <pt x="475" y="815" on="1"/>
        <pt x="584" y="912" on="1"/>
        <pt x="596" y="902" on="1"/>
      </contour>
    </TTGlyph>
    <TTGlyph name="a" xMin="76" yMin="-10" xMax="465" yMax="480">
      <contour>
        <pt x="396" y="40" on="1"/>
        <pt x="417" y="40" on="0"/>
        <pt x="435" y="72" on="1"/>
        <pt x="453" y="69" on="1"/>
        <pt x="436" y="18" on="0"/>
        <pt x="396" y="-2" on="1"/>
        <pt x="378" y="-10" on="0"/>
        <pt x="358" y="-10" on="1"/>
        <pt x="294" y="-10" on="0"/>
        <pt x="294" y="53" on="1"/>
        <pt x="294" y="64" on="1"/>
        <pt x="250" y="-10" on="0"/>
        <pt x="178" y="-10" on="1"/>
        <pt x="129" y="-10" on="0"/>
        <pt x="76" y="48" on="0"/>
        <pt x="76" y="100" on="1"/>
        <pt x="76" y="128" on="0"/>
        <pt x="81" y="149" on="1"/>
        <pt x="118" y="322" on="1"/>
        <pt x="133" y="394" on="0"/>
        <pt x="223" y="480" on="0"/>
        <pt x="283" y="480" on="1"/>
        <pt x="353" y="480" on="0"/>
        <pt x="366" y="412" on="1"/>
        <pt x="378" y="470" on="1"/>
        <pt x="465" y="470" on="1"/>
        <pt x="379" y="65" on="0"/>
        <pt x="379" y="59" on="1"/>
        <pt x="379" y="40" on="0"/>
      </contour>
      <contour>
        <pt x="349" y="334" on="1"/>
        <pt x="353" y="350" on="0"/>
        <pt x="353" y="405" on="0"/>
        <pt x="322" y="450" on="0"/>
        <pt x="291" y="450" on="1"/>
        <pt x="232" y="450" on="0"/>
        <pt x="212" y="356" on="1"/>
        <pt x="161" y="115" on="1"/>
        <pt x="156" y="88" on="0"/>
        <pt x="156" y="73" on="1"/>
        <pt x="156" y="22" on="0"/>
        <pt x="240" y="22" on="0"/>
        <pt x="299" y="92" on="0"/>
        <pt x="310" y="146" on="1"/>
      </contour>
    </TTGlyph>
    <TTGlyph name="aacute" xMin="76" yMin="-10" xMax="465" yMax="690">
      <contour>
        <pt x="396" y="40" on="1"/>
        <pt x="417" y="40" on="0"/>
        <pt x="435" y="72" on="1"/>
        <pt x="453" y="69" on="1"/>
        <pt x="436" y="18" on="0"/>
        <pt x="396" y="-2" on="1"/>
        <pt x="378" y="-10" on="0"/>
        <pt x="358" y="-10" on="1"/>
        <pt x="294" y="-10" on="0"/>
        <pt x="294" y="53" on="1"/>
        <pt x="294" y="64" on="1"/>
        <pt x="250" y="-10" on="0"/>
        <pt x="178" y="-10" on="1"/>
        <pt x="129" y="-10" on="0"/>
        <pt x="76" y="48" on="0"/>
        <pt x="76" y="100" on="1"/>
        <pt x="76" y="128" on="0"/>
        <pt x="81" y="149" on="1"/>
        <pt x="118" y="322" on="1"/>
        <pt x="133" y="394" on="0"/>
        <pt x="223" y="480" on="0"/>
        <pt x="283" y="480" on="1"/>
        <pt x="353" y="480" on="0"/>
        <pt x="366" y="412" on="1"/>
        <pt x="378" y="470" on="1"/>
        <pt x="465" y="470" on="1"/>
        <pt x="379" y="65" on="0"/>
        <pt x="379" y="59" on="1"/>
        <pt x="379" y="40" on="0"/>
      </contour>
      <contour>
        <pt x="349" y="334" on="1"/>
        <pt x="353" y="350" on="0"/>
        <pt x="353" y="405" on="0"/>
        <pt x="322" y="450" on="0"/>
        <pt x="291" y="450" on="1"/>
        <pt x="232" y="450" on="0"/>
        <pt x="212" y="356" on="1"/>
        <pt x="161" y="115" on="1"/>
        <pt x="156" y="88" on="0"/>
        <pt x="156" y="73" on="1"/>
        <pt x="156" y="22" on="0"/>
        <pt x="240" y="22" on="0"/>
        <pt x="299" y="92" on="0"/>
        <pt x="310" y="146" on="1"/>
      </contour>
      <contour>
        <pt x="344" y="674" on="1"/>
        <pt x="353" y="690" on="0"/>
        <pt x="386" y="690" on="0"/>
        <pt x="413" y="665" on="0"/>
        <pt x="413" y="636" on="0"/>
        <pt x="402" y="627" on="1"/>
        <pt x="287" y="527" on="1"/>
        <pt x="270" y="539" on="1"/>
      </contour>
    </TTGlyph>
    <TTGlyph name="acircumflex" xMin="76" yMin="-10" xMax="465" yMax="690">
      <contour>
        <pt x="396" y="40" on="1"/>
        <pt x="417" y="40" on="0"/>
        <pt x="435" y="72" on="1"/>
        <pt x="453" y="69" on="1"/>
        <pt x="436" y="18" on="0"/>
        <pt x="396" y="-2" on="1"/>
        <pt x="378" y="-10" on="0"/>
        <pt x="358" y="-10" on="1"/>
        <pt x="294" y="-10" on="0"/>
        <pt x="294" y="53" on="1"/>
        <pt x="294" y="64" on="1"/>
        <pt x="250" y="-10" on="0"/>
        <pt x="178" y="-10" on="1"/>
        <pt x="129" y="-10" on="0"/>
        <pt x="76" y="48" on="0"/>
        <pt x="76" y="100" on="1"/>
        <pt x="76" y="128" on="0"/>
        <pt x="81" y="149" on="1"/>
        <pt x="118" y="322" on="1"/>
        <pt x="133" y="394" on="0"/>
        <pt x="223" y="480" on="0"/>
        <pt x="283" y="480" on="1"/>
        <pt x="353" y="480" on="0"/>
        <pt x="366" y="412" on="1"/>
        <pt x="378" y="470" on="1"/>
        <pt x="465" y="470" on="1"/>
        <pt x="379" y="65" on="0"/>
        <pt x="379" y="59" on="1"/>
        <pt x="379" y="40" on="0"/>
      </contour>
      <contour>
        <pt x="349" y="334" on="1"/>
        <pt x="353" y="350" on="0"/>
        <pt x="353" y="405" on="0"/>
        <pt x="322" y="450" on="0"/>
        <pt x="291" y="450" on="1"/>
        <pt x="232" y="450" on="0"/>
        <pt x="212" y="356" on="1"/>
        <pt x="161" y="115" on="1"/>
        <pt x="156" y="88" on="0"/>
        <pt x="156" y="73" on="1"/>
        <pt x="156" y="22" on="0"/>
        <pt x="240" y="22" on="0"/>
        <pt x="299" y="92" on="0"/>
        <pt x="310" y="146" on="1"/>
      </contour>
      <contour>
        <pt x="312" y="673" on="1"/>
        <pt x="323" y="690" on="0"/>
        <pt x="362" y="690" on="0"/>
        <pt x="370" y="673" on="1"/>
        <pt x="418" y="547" on="1"/>
        <pt x="404" y="537" on="1"/>
        <pt x="333" y="634" on="1"/>
        <pt x="220" y="537" on="1"/>
        <pt x="210" y="547" on="1"/>
      </contour>
    </TTGlyph>
    <TTGlyph name="acute" xMin="50" yMin="527" xMax="193" yMax="690">
      <contour>
        <pt x="124" y="674" on="1"/>
        <pt x="133" y="690" on="0"/>
        <pt x="166" y="690" on="0"/>
        <pt x="193" y="665" on="0"/>
        <pt x="193" y="636" on="0"/>
        <pt x="182" y="627" on="1"/>
        <pt x="67" y="527" on="1"/>
        <pt x="50" y="539" on="1"/>
      </contour>
    </TTGlyph>
    <TTGlyph name="adieresis" xMin="76" yMin="-10" xMax="465" yMax="676">
      <contour>
        <pt x="396" y="40" on="1"/>
        <pt x="417" y="40" on="0"/>
        <pt x="435" y="72" on="1"/>
        <pt x="453" y="69" on="1"/>
        <pt x="436" y="18" on="0"/>
        <pt x="396" y="-2" on="1"/>
        <pt x="378" y="-10" on="0"/>
        <pt x="358" y="-10" on="1"/>
        <pt x="294" y="-10" on="0"/>
        <pt x="294" y="53" on="1"/>
        <pt x="294" y="64" on="1"/>
        <pt x="250" y="-10" on="0"/>
        <pt x="178" y="-10" on="1"/>
        <pt x="129" y="-10" on="0"/>
        <pt x="76" y="48" on="0"/>
        <pt x="76" y="100" on="1"/>
        <pt x="76" y="128" on="0"/>
        <pt x="81" y="149" on="1"/>
        <pt x="118" y="322" on="1"/>
        <pt x="133" y="394" on="0"/>
        <pt x="223" y="480" on="0"/>
        <pt x="283" y="480" on="1"/>
        <pt x="353" y="480" on="0"/>
        <pt x="366" y="412" on="1"/>
        <pt x="378" y="470" on="1"/>
        <pt x="465" y="470" on="1"/>
        <pt x="379" y="65" on="0"/>
        <pt x="379" y="59" on="1"/>
        <pt x="379" y="40" on="0"/>
      </contour>
      <contour>
        <pt x="349" y="334" on="1"/>
        <pt x="353" y="350" on="0"/>
        <pt x="353" y="405" on="0"/>
        <pt x="322" y="450" on="0"/>
        <pt x="291" y="450" on="1"/>
        <pt x="232" y="450" on="0"/>
        <pt x="212" y="356" on="1"/>
        <pt x="161" y="115" on="1"/>
        <pt x="156" y="88" on="0"/>
        <pt x="156" y="73" on="1"/>
        <pt x="156" y="22" on="0"/>
        <pt x="240" y="22" on="0"/>
        <pt x="299" y="92" on="0"/>
        <pt x="310" y="146" on="1"/>
      </contour>
      <contour>
        <pt x="442" y="676" on="0"/>
        <pt x="461" y="653" on="0"/>
        <pt x="461" y="610" on="0"/>
        <pt x="425" y="568" on="0"/>
        <pt x="389" y="568" on="0"/>
        <pt x="370" y="591" on="0"/>
        <pt x="370" y="633" on="0"/>
        <pt x="405" y="676" on="0"/>
      </contour>
      <contour>
        <pt x="290" y="676" on="0"/>
        <pt x="309" y="653" on="0"/>
        <pt x="309" y="610" on="0"/>
        <pt x="273" y="568" on="0"/>
        <pt x="237" y="568" on="0"/>
        <pt x="218" y="591" on="0"/>
        <pt x="218" y="633" on="0"/>
        <pt x="253" y="676" on="0"/>
      </contour>
    </TTGlyph>
    <TTGlyph name="agrave" xMin="76" yMin="-10" xMax="465" yMax="690">
      <contour>
        <pt x="396" y="40" on="1"/>
        <pt x="417" y="40" on="0"/>
        <pt x="435" y="72" on="1"/>
        <pt x="453" y="69" on="1"/>
        <pt x="436" y="18" on="0"/>
        <pt x="396" y="-2" on="1"/>
        <pt x="378" y="-10" on="0"/>
        <pt x="358" y="-10" on="1"/>
        <pt x="294" y="-10" on="0"/>
        <pt x="294" y="53" on="1"/>
        <pt x="294" y="64" on="1"/>
        <pt x="250" y="-10" on="0"/>
        <pt x="178" y="-10" on="1"/>
        <pt x="129" y="-10" on="0"/>
        <pt x="76" y="48" on="0"/>
        <pt x="76" y="100" on="1"/>
        <pt x="76" y="128" on="0"/>
        <pt x="81" y="149" on="1"/>
        <pt x="118" y="322" on="1"/>
        <pt x="133" y="394" on="0"/>
        <pt x="223" y="480" on="0"/>
        <pt x="283" y="480" on="1"/>
        <pt x="353" y="480" on="0"/>
        <pt x="366" y="412" on="1"/>
        <pt x="378" y="470" on="1"/>
        <pt x="465" y="470" on="1"/>
        <pt x="379" y="65" on="0"/>
        <pt x="379" y="59" on="1"/>
        <pt x="379" y="40" on="0"/>
      </contour>
      <contour>
        <pt x="349" y="334" on="1"/>
        <pt x="353" y="350" on="0"/>
        <pt x="353" y="405" on="0"/>
        <pt x="322" y="450" on="0"/>
        <pt x="291" y="450" on="1"/>
        <pt x="232" y="450" on="0"/>
        <pt x="212" y="356" on="1"/>
        <pt x="161" y="115" on="1"/>
        <pt x="156" y="88" on="0"/>
        <pt x="156" y="73" on="1"/>
        <pt x="156" y="22" on="0"/>
        <pt x="240" y="22" on="0"/>
        <pt x="299" y="92" on="0"/>
        <pt x="310" y="146" on="1"/>
      </contour>
      <contour>
        <pt x="220" y="626" on="1"/>
        <pt x="209" y="637" on="0"/>
        <pt x="209" y="665" on="0"/>
        <pt x="235" y="690" on="0"/>
        <pt x="269" y="690" on="0"/>
        <pt x="278" y="674" on="1"/>
        <pt x="352" y="539" on="1"/>
        <pt x="335" y="526" on="1"/>
      </contour>
    </TTGlyph>
    <TTGlyph name="ampersand" xMin="105" yMin="-10" xMax="690" yMax="700">
      <contour>
        <pt x="201" y="130" on="1"/>
        <pt x="201" y="81" on="0"/>
        <pt x="252" y="25" on="0"/>
        <pt x="367" y="25" on="0"/>
        <pt x="451" y="110" on="0"/>
        <pt x="466" y="182" on="1"/>
        <pt x="491" y="300" on="1"/>
        <pt x="232" y="300" on="1"/>
        <pt x="207" y="182" on="1"/>
        <pt x="201" y="155" on="0"/>
      </contour>
      <contour>
        <pt x="527" y="55" on="1"/>
        <pt x="527" y="40" on="0"/>
        <pt x="564" y="40" on="0"/>
        <pt x="584" y="72" on="1"/>
        <pt x="602" y="69" on="1"/>
        <pt x="585" y="19" on="0"/>
        <pt x="546" y="0" on="1"/>
        <pt x="528" y="-9" on="0"/>
        <pt x="508" y="-9" on="1"/>
        <pt x="453" y="-9" on="0"/>
        <pt x="444" y="36" on="1"/>
        <pt x="372" y="-10" on="0"/>
        <pt x="204" y="-10" on="0"/>
        <pt x="105" y="97" on="0"/>
        <pt x="105" y="184" on="1"/>
        <pt x="105" y="214" on="0"/>
        <pt x="113" y="254" on="1"/>
        <pt x="152" y="436" on="1"/>
        <pt x="177" y="550" on="0"/>
        <pt x="337" y="700" on="0"/>
        <pt x="446" y="700" on="1"/>
        <pt x="519" y="700" on="0"/>
        <pt x="622" y="618" on="0"/>
        <pt x="622" y="545" on="1"/>
        <pt x="622" y="520" on="0"/>
        <pt x="616" y="490" on="1"/>
        <pt x="530" y="490" on="1"/>
        <pt x="539" y="538" on="0"/>
        <pt x="539" y="560" on="1"/>
        <pt x="539" y="609" on="0"/>
        <pt x="490" y="665" on="0"/>
        <pt x="375" y="665" on="0"/>
        <pt x="291" y="579" on="0"/>
        <pt x="276" y="508" on="1"/>
        <pt x="242" y="347" on="1"/>
        <pt x="501" y="347" on="1"/>
        <pt x="514" y="409" on="1"/>
        <pt x="601" y="409" on="1"/>
        <pt x="588" y="347" on="1"/>
        <pt x="690" y="347" on="1"/>
        <pt x="680" y="300" on="1"/>
        <pt x="578" y="300" on="1"/>
      </contour>
    </TTGlyph>
    <TTGlyph name="aring" xMin="76" yMin="-10" xMax="465" yMax="690">
      <contour>
        <pt x="396" y="40" on="1"/>
        <pt x="417" y="40" on="0"/>
        <pt x="435" y="72" on="1"/>
        <pt x="453" y="69" on="1"/>
        <pt x="436" y="18" on="0"/>
        <pt x="396" y="-2" on="1"/>
        <pt x="378" y="-10" on="0"/>
        <pt x="358" y="-10" on="1"/>
        <pt x="294" y="-10" on="0"/>
        <pt x="294" y="53" on="1"/>
        <pt x="294" y="64" on="1"/>
        <pt x="250" y="-10" on="0"/>
        <pt x="178" y="-10" on="1"/>
        <pt x="129" y="-10" on="0"/>
        <pt x="76" y="48" on="0"/>
        <pt x="76" y="100" on="1"/>
        <pt x="76" y="128" on="0"/>
        <pt x="81" y="149" on="1"/>
        <pt x="118" y="322" on="1"/>
        <pt x="133" y="394" on="0"/>
        <pt x="223" y="480" on="0"/>
        <pt x="283" y="480" on="1"/>
        <pt x="353" y="480" on="0"/>
        <pt x="366" y="412" on="1"/>
        <pt x="378" y="470" on="1"/>
        <pt x="465" y="470" on="1"/>
        <pt x="379" y="65" on="0"/>
        <pt x="379" y="59" on="1"/>
        <pt x="379" y="40" on="0"/>
      </contour>
      <contour>
        <pt x="349" y="334" on="1"/>
        <pt x="353" y="350" on="0"/>
        <pt x="353" y="405" on="0"/>
        <pt x="322" y="450" on="0"/>
        <pt x="291" y="450" on="1"/>
        <pt x="232" y="450" on="0"/>
        <pt x="212" y="356" on="1"/>
        <pt x="161" y="115" on="1"/>
        <pt x="156" y="88" on="0"/>
        <pt x="156" y="73" on="1"/>
        <pt x="156" y="22" on="0"/>
        <pt x="240" y="22" on="0"/>
        <pt x="299" y="92" on="0"/>
        <pt x="310" y="146" on="1"/>
      </contour>
      <contour>
        <pt x="384" y="593" on="0"/>
        <pt x="343" y="556" on="0"/>
        <pt x="297" y="556" on="0"/>
        <pt x="271" y="583" on="0"/>
        <pt x="271" y="611" on="0"/>
        <pt x="279" y="652" on="0"/>
        <pt x="321" y="690" on="0"/>
        <pt x="367" y="690" on="0"/>
        <pt x="393" y="662" on="0"/>
        <pt x="393" y="635" on="0"/>
      </contour>
      <contour>
        <pt x="337" y="580" on="0"/>
        <pt x="363" y="605" on="0"/>
        <pt x="368" y="627" on="0"/>
        <pt x="368" y="647" on="0"/>
        <pt x="353" y="665" on="0"/>
        <pt x="327" y="665" on="0"/>
        <pt x="314" y="652" on="1"/>
        <pt x="296" y="635" on="0"/>
        <pt x="296" y="617" on="1"/>
        <pt x="296" y="580" on="0"/>
        <pt x="323" y="580" on="1"/>
      </contour>
    </TTGlyph>
    <TTGlyph name="asciicircum" xMin="186" yMin="367" xMax="552" yMax="650">
      <contour>
        <pt x="429" y="650" on="1"/>
        <pt x="552" y="367" on="1"/>
        <pt x="494" y="367" on="1"/>
        <pt x="407" y="557" on="1"/>
        <pt x="244" y="367" on="1"/>
        <pt x="186" y="367" on="1"/>
      </contour>
    </TTGlyph>
    <TTGlyph name="asciitilde" xMin="139" yMin="388" xMax="390" yMax="478">
      <contour>
        <pt x="314" y="388" on="0"/>
        <pt x="274" y="388" on="0"/>
        <pt x="221" y="428" on="0"/>
        <pt x="207" y="428" on="1"/>
        <pt x="178" y="428" on="0"/>
        <pt x="149" y="408" on="1"/>
        <pt x="139" y="420" on="1"/>
        <pt x="197" y="478" on="0"/>
        <pt x="247" y="478" on="1"/>
        <pt x="262" y="478" on="0"/>
        <pt x="312" y="444" on="0"/>
        <pt x="357" y="444" on="0"/>
        <pt x="379" y="458" on="1"/>
        <pt x="390" y="444" on="1"/>
        <pt x="370" y="421" on="0"/>
      </contour>
    </TTGlyph>
    <TTGlyph name="asterisk" xMin="179" yMin="320" xMax="563" yMax="700">
      <contour>
        <pt x="203" y="394" on="1"/>
        <pt x="206" y="415" on="0"/>
        <pt x="225" y="430" on="0"/>
        <pt x="324" y="491" on="1"/>
        <pt x="222" y="471" on="0"/>
        <pt x="207" y="471" on="1"/>
        <pt x="205" y="471" on="1"/>
        <pt x="193" y="471" on="0"/>
        <pt x="179" y="488" on="0"/>
        <pt x="179" y="505" on="0"/>
        <pt x="183" y="523" on="0"/>
        <pt x="207" y="546" on="0"/>
        <pt x="231" y="546" on="0"/>
        <pt x="327" y="530" on="1"/>
        <pt x="257" y="585" on="0"/>
        <pt x="246" y="599" on="0"/>
        <pt x="246" y="606" on="1"/>
        <pt x="246" y="627" on="0"/>
        <pt x="276" y="655" on="0"/>
        <pt x="307" y="655" on="0"/>
        <pt x="314" y="647" on="1"/>
        <pt x="333" y="614" on="0"/>
        <pt x="361" y="556" on="1"/>
        <pt x="366" y="658" on="0"/>
        <pt x="370" y="682" on="0"/>
        <pt x="397" y="700" on="0"/>
        <pt x="425" y="700" on="0"/>
        <pt x="444" y="686" on="0"/>
        <pt x="444" y="674" on="1"/>
        <pt x="441" y="655" on="0"/>
        <pt x="400" y="558" on="1"/>
        <pt x="478" y="646" on="0"/>
        <pt x="492" y="658" on="0"/>
        <pt x="520" y="658" on="0"/>
        <pt x="532" y="646" on="1"/>
        <pt x="539" y="636" on="0"/>
        <pt x="539" y="620" on="0"/>
        <pt x="536" y="606" on="0"/>
        <pt x="513" y="586" on="0"/>
        <pt x="423" y="531" on="1"/>
        <pt x="523" y="551" on="0"/>
        <pt x="536" y="551" on="1"/>
        <pt x="537" y="551" on="1"/>
        <pt x="549" y="551" on="0"/>
        <pt x="563" y="533" on="0"/>
        <pt x="563" y="502" on="0"/>
        <pt x="536" y="475" on="0"/>
        <pt x="502" y="475" on="0"/>
        <pt x="415" y="492" on="1"/>
        <pt x="490" y="432" on="0"/>
        <pt x="498" y="422" on="0"/>
        <pt x="498" y="412" on="1"/>
        <pt x="498" y="407" on="1"/>
        <pt x="495" y="393" on="0"/>
        <pt x="480" y="378" on="1"/>
        <pt x="464" y="365" on="0"/>
        <pt x="435" y="365" on="0"/>
        <pt x="424" y="380" on="0"/>
        <pt x="382" y="462" on="1"/>
        <pt x="380" y="360" on="0"/>
        <pt x="378" y="354" on="1"/>
        <pt x="378" y="352" on="1"/>
        <pt x="375" y="339" on="0"/>
        <pt x="349" y="320" on="0"/>
        <pt x="321" y="320" on="0"/>
        <pt x="302" y="335" on="0"/>
        <pt x="302" y="346" on="1"/>
        <pt x="303" y="351" on="1"/>
        <pt x="303" y="352" on="1"/>
        <pt x="306" y="365" on="0"/>
        <pt x="342" y="461" on="1"/>
        <pt x="267" y="377" on="0"/>
        <pt x="249" y="362" on="0"/>
        <pt x="220" y="362" on="0"/>
        <pt x="203" y="382" on="0"/>
      </contour>
    </TTGlyph>
    <TTGlyph name="at" xMin="76" yMin="-145" xMax="957" yMax="690">
      <contour>
        <pt x="267" y="-145" on="1"/>
        <pt x="172" y="-145" on="0"/>
        <pt x="76" y="-47" on="0"/>
        <pt x="76" y="41" on="1"/>
        <pt x="76" y="75" on="0"/>
        <pt x="86" y="125" on="1"/>
        <pt x="149" y="419" on="1"/>
        <pt x="175" y="544" on="0"/>
        <pt x="328" y="690" on="0"/>
        <pt x="444" y="690" on="1"/>
        <pt x="767" y="690" on="1"/>
        <pt x="861" y="690" on="0"/>
        <pt x="957" y="591" on="0"/>
        <pt x="957" y="503" on="1"/>
        <pt x="957" y="464" on="0"/>
        <pt x="948" y="419" on="1"/>
        <pt x="914" y="260" on="1"/>
        <pt x="888" y="138" on="0"/>
        <pt x="737" y="-10" on="0"/>
        <pt x="635" y="-10" on="1"/>
        <pt x="605" y="-10" on="1"/>
        <pt x="541" y="-10" on="0"/>
        <pt x="541" y="53" on="1"/>
        <pt x="541" y="64" on="1"/>
        <pt x="497" y="-10" on="0"/>
        <pt x="425" y="-10" on="1"/>
        <pt x="376" y="-10" on="0"/>
        <pt x="323" y="48" on="0"/>
        <pt x="323" y="100" on="1"/>
        <pt x="323" y="128" on="0"/>
        <pt x="328" y="149" on="1"/>
        <pt x="365" y="322" on="1"/>
        <pt x="380" y="394" on="0"/>
        <pt x="470" y="480" on="0"/>
        <pt x="530" y="480" on="1"/>
        <pt x="600" y="480" on="0"/>
        <pt x="613" y="412" on="1"/>
        <pt x="625" y="470" on="1"/>
        <pt x="712" y="470" on="1"/>
        <pt x="624" y="54" on="0"/>
        <pt x="624" y="48" on="1"/>
        <pt x="624" y="25" on="0"/>
        <pt x="644" y="25" on="1"/>
        <pt x="754" y="25" on="0"/>
        <pt x="787" y="182" on="1"/>
        <pt x="854" y="498" on="1"/>
        <pt x="860" y="525" on="0"/>
        <pt x="860" y="550" on="1"/>
        <pt x="860" y="599" on="0"/>
        <pt x="811" y="655" on="0"/>
        <pt x="760" y="655" on="1"/>
        <pt x="437" y="655" on="1"/>
        <pt x="373" y="655" on="0"/>
        <pt x="289" y="568" on="0"/>
        <pt x="274" y="498" on="1"/>
        <pt x="178" y="47" on="1"/>
        <pt x="172" y="20" on="0"/>
        <pt x="172" y="-5" on="1"/>
        <pt x="172" y="-54" on="0"/>
        <pt x="222" y="-110" on="0"/>
        <pt x="274" y="-110" on="1"/>
        <pt x="589" y="-110" on="1"/>
        <pt x="582" y="-145" on="1"/>
      </contour>
      <contour>
        <pt x="596" y="334" on="1"/>
        <pt x="600" y="354" on="0"/>
        <pt x="600" y="405" on="0"/>
        <pt x="569" y="450" on="0"/>
        <pt x="538" y="450" on="1"/>
        <pt x="479" y="450" on="0"/>
        <pt x="459" y="356" on="1"/>
        <pt x="408" y="115" on="1"/>
        <pt x="403" y="95" on="0"/>
        <pt x="403" y="73" on="1"/>
        <pt x="403" y="22" on="0"/>
        <pt x="487" y="22" on="0"/>
        <pt x="545" y="89" on="0"/>
        <pt x="555" y="137" on="1"/>
      </contour>
    </TTGlyph>
    <TTGlyph name="atilde" xMin="76" yMin="-10" xMax="465" yMax="619">
      <contour>
        <pt x="396" y="40" on="1"/>
        <pt x="417" y="40" on="0"/>
        <pt x="435" y="72" on="1"/>
        <pt x="453" y="69" on="1"/>
        <pt x="436" y="18" on="0"/>
        <pt x="396" y="-2" on="1"/>
        <pt x="378" y="-10" on="0"/>
        <pt x="358" y="-10" on="1"/>
        <pt x="294" y="-10" on="0"/>
        <pt x="294" y="53" on="1"/>
        <pt x="294" y="64" on="1"/>
        <pt x="250" y="-10" on="0"/>
        <pt x="178" y="-10" on="1"/>
        <pt x="129" y="-10" on="0"/>
        <pt x="76" y="48" on="0"/>
        <pt x="76" y="100" on="1"/>
        <pt x="76" y="128" on="0"/>
        <pt x="81" y="149" on="1"/>
        <pt x="118" y="322" on="1"/>
        <pt x="133" y="394" on="0"/>
        <pt x="223" y="480" on="0"/>
        <pt x="283" y="480" on="1"/>
        <pt x="353" y="480" on="0"/>
        <pt x="366" y="412" on="1"/>
        <pt x="378" y="470" on="1"/>
        <pt x="465" y="470" on="1"/>
        <pt x="379" y="65" on="0"/>
        <pt x="379" y="59" on="1"/>
        <pt x="379" y="40" on="0"/>
      </contour>
      <contour>
        <pt x="349" y="334" on="1"/>
        <pt x="353" y="350" on="0"/>
        <pt x="353" y="405" on="0"/>
        <pt x="322" y="450" on="0"/>
        <pt x="291" y="450" on="1"/>
        <pt x="232" y="450" on="0"/>
        <pt x="212" y="356" on="1"/>
        <pt x="161" y="115" on="1"/>
        <pt x="156" y="88" on="0"/>
        <pt x="156" y="73" on="1"/>
        <pt x="156" y="22" on="0"/>
        <pt x="240" y="22" on="0"/>
        <pt x="299" y="92" on="0"/>
        <pt x="310" y="146" on="1"/>
      </contour>
      <contour>
        <pt x="397" y="536" on="0"/>
        <pt x="353" y="536" on="0"/>
        <pt x="279" y="573" on="0"/>
        <pt x="263" y="573" on="1"/>
        <pt x="232" y="573" on="0"/>
        <pt x="203" y="544" on="1"/>
        <pt x="190" y="555" on="1"/>
        <pt x="245" y="619" on="0"/>
        <pt x="299" y="619" on="1"/>
        <pt x="316" y="619" on="0"/>
        <pt x="379" y="586" on="0"/>
        <pt x="427" y="586" on="0"/>
        <pt x="449" y="600" on="1"/>
        <pt x="450" y="601" on="1"/>
        <pt x="462" y="591" on="1"/>
        <pt x="444" y="566" on="0"/>
      </contour>
    </TTGlyph>
    <TTGlyph name="b" xMin="60" yMin="-10" xMax="449" yMax="690">
      <contour>
        <pt x="392" y="76" on="0"/>
        <pt x="302" y="-10" on="0"/>
        <pt x="173" y="-10" on="0"/>
        <pt x="158" y="60" on="1"/>
        <pt x="146" y="0" on="1"/>
        <pt x="60" y="0" on="1"/>
        <pt x="206" y="690" on="1"/>
        <pt x="292" y="690" on="1"/>
        <pt x="233" y="412" on="1"/>
        <pt x="277" y="480" on="0"/>
        <pt x="347" y="480" on="1"/>
        <pt x="396" y="480" on="0"/>
        <pt x="449" y="422" on="0"/>
        <pt x="449" y="370" on="1"/>
        <pt x="449" y="343" on="0"/>
        <pt x="444" y="322" on="1"/>
        <pt x="407" y="149" on="1"/>
      </contour>
      <contour>
        <pt x="368" y="399" on="1"/>
        <pt x="368" y="450" on="0"/>
        <pt x="324" y="450" on="1"/>
        <pt x="285" y="450" on="0"/>
        <pt x="225" y="379" on="0"/>
        <pt x="216" y="334" on="1"/>
        <pt x="175" y="137" on="1"/>
        <pt x="171" y="120" on="0"/>
        <pt x="171" y="99" on="1"/>
        <pt x="171" y="22" on="0"/>
        <pt x="235" y="22" on="1"/>
        <pt x="292" y="22" on="0"/>
        <pt x="312" y="115" on="1"/>
        <pt x="363" y="356" on="1"/>
        <pt x="368" y="383" on="0"/>
      </contour>
    </TTGlyph>
    <TTGlyph name="backslash" xMin="221" yMin="0" xMax="297" yMax="690">
      <contour>
        <pt x="221" y="690" on="1"/>
        <pt x="297" y="690" on="1"/>
        <pt x="297" y="0" on="1"/>
        <pt x="221" y="0" on="1"/>
      </contour>
    </TTGlyph>
    <TTGlyph name="bar" xMin="29" yMin="-145" xMax="292" yMax="689">
      <contour>
        <pt x="115" y="-145" on="1"/>
        <pt x="29" y="-145" on="1"/>
        <pt x="206" y="689" on="1"/>
        <pt x="292" y="689" on="1"/>
      </contour>
    </TTGlyph>
    <TTGlyph name="braceleft" xMin="131" yMin="-40" xMax="511" yMax="730">
      <contour>
        <pt x="325" y="249" on="1"/>
        <pt x="325" y="224" on="0"/>
        <pt x="292" y="76" on="0"/>
        <pt x="292" y="17" on="0"/>
        <pt x="322" y="-10" on="0"/>
        <pt x="353" y="-10" on="1"/>
        <pt x="347" y="-40" on="1"/>
        <pt x="263" y="-40" on="0"/>
        <pt x="189" y="5" on="0"/>
        <pt x="189" y="69" on="1"/>
        <pt x="189" y="89" on="0"/>
        <pt x="215" y="238" on="0"/>
        <pt x="215" y="250" on="1"/>
        <pt x="215" y="338" on="0"/>
        <pt x="131" y="338" on="1"/>
        <pt x="138" y="368" on="1"/>
        <pt x="200" y="368" on="0"/>
        <pt x="264" y="454" on="0"/>
        <pt x="282" y="537" on="1"/>
        <pt x="308" y="655" on="0"/>
        <pt x="407" y="730" on="0"/>
        <pt x="511" y="730" on="1"/>
        <pt x="504" y="700" on="1"/>
        <pt x="463" y="700" on="0"/>
        <pt x="416" y="652" on="0"/>
        <pt x="404" y="595" on="1"/>
        <pt x="388" y="519" on="1"/>
        <pt x="360" y="387" on="0"/>
        <pt x="257" y="353" on="1"/>
        <pt x="325" y="327" on="0"/>
      </contour>
    </TTGlyph>
    <TTGlyph name="braceright" xMin="11" yMin="-40" xMax="394" yMax="730">
      <contour>
        <pt x="201" y="458" on="1"/>
        <pt x="201" y="483" on="0"/>
        <pt x="230" y="622" on="0"/>
        <pt x="230" y="641" on="1"/>
        <pt x="230" y="700" on="0"/>
        <pt x="168" y="700" on="1"/>
        <pt x="175" y="730" on="1"/>
        <pt x="259" y="730" on="0"/>
        <pt x="333" y="686" on="0"/>
        <pt x="333" y="622" on="1"/>
        <pt x="333" y="602" on="0"/>
        <pt x="311" y="474" on="0"/>
        <pt x="311" y="455" on="1"/>
        <pt x="311" y="368" on="0"/>
        <pt x="394" y="368" on="1"/>
        <pt x="387" y="338" on="1"/>
        <pt x="325" y="338" on="0"/>
        <pt x="260" y="248" on="0"/>
        <pt x="212" y="37" on="0"/>
        <pt x="114" y="-40" on="0"/>
        <pt x="11" y="-40" on="1"/>
        <pt x="17" y="-10" on="1"/>
        <pt x="58" y="-10" on="0"/>
        <pt x="106" y="39" on="0"/>
        <pt x="118" y="95" on="1"/>
        <pt x="137" y="187" on="1"/>
        <pt x="166" y="320" on="0"/>
        <pt x="269" y="353" on="1"/>
        <pt x="201" y="379" on="0"/>
      </contour>
    </TTGlyph>
    <TTGlyph name="bracketleft" xMin="47" yMin="-57" xMax="392" yMax="690">
      <contour>
        <pt x="143" y="-10" on="1"/>
        <pt x="243" y="-10" on="1"/>
        <pt x="233" y="-57" on="1"/>
        <pt x="47" y="-57" on="1"/>
        <pt x="206" y="690" on="1"/>
        <pt x="392" y="690" on="1"/>
        <pt x="382" y="643" on="1"/>
        <pt x="282" y="643" on="1"/>
      </contour>
    </TTGlyph>
    <TTGlyph name="bracketright" xMin="7" yMin="-57" xMax="352" yMax="690">
      <contour>
        <pt x="17" y="-10" on="1"/>
        <pt x="117" y="-10" on="1"/>
        <pt x="256" y="643" on="1"/>
        <pt x="156" y="643" on="1"/>
        <pt x="166" y="690" on="1"/>
        <pt x="352" y="690" on="1"/>
        <pt x="193" y="-57" on="1"/>
        <pt x="7" y="-57" on="1"/>
      </contour>
    </TTGlyph>
    <TTGlyph name="breve" xMin="187" yMin="535" xMax="445" yMax="655">
      <contour>
        <pt x="429" y="599" on="0"/>
        <pt x="346" y="535" on="0"/>
        <pt x="242" y="535" on="0"/>
        <pt x="187" y="585" on="0"/>
        <pt x="187" y="630" on="1"/>
        <pt x="187" y="637" on="0"/>
        <pt x="189" y="655" on="1"/>
        <pt x="215" y="655" on="1"/>
        <pt x="224" y="594" on="0"/>
        <pt x="387" y="594" on="0"/>
        <pt x="418" y="655" on="1"/>
        <pt x="445" y="655" on="1"/>
      </contour>
    </TTGlyph>
    <TTGlyph name="bullet" xMin="109" yMin="154" xMax="289" yMax="330">
      <contour>
        <pt x="109" y="266" on="0"/>
        <pt x="176" y="330" on="0"/>
        <pt x="250" y="330" on="0"/>
        <pt x="289" y="290" on="0"/>
        <pt x="289" y="218" on="0"/>
        <pt x="222" y="154" on="0"/>
        <pt x="148" y="154" on="0"/>
        <pt x="109" y="194" on="0"/>
      </contour>
    </TTGlyph>
    <TTGlyph name="c" xMin="77" yMin="-10" xMax="392" yMax="480">
      <contour>
        <pt x="363" y="349" on="1"/>
        <pt x="365" y="369" on="1"/>
        <pt x="365" y="374" on="1"/>
        <pt x="365" y="450" on="0"/>
        <pt x="305" y="450" on="1"/>
        <pt x="274" y="450" on="0"/>
        <pt x="221" y="399" on="0"/>
        <pt x="211" y="352" on="1"/>
        <pt x="162" y="118" on="1"/>
        <pt x="158" y="96" on="0"/>
        <pt x="158" y="55" on="0"/>
        <pt x="188" y="20" on="0"/>
        <pt x="215" y="20" on="1"/>
        <pt x="257" y="20" on="0"/>
        <pt x="307" y="87" on="0"/>
        <pt x="315" y="122" on="1"/>
        <pt x="340" y="122" on="1"/>
        <pt x="331" y="78" on="0"/>
        <pt x="257" y="-10" on="0"/>
        <pt x="137" y="-10" on="0"/>
        <pt x="77" y="53" on="0"/>
        <pt x="77" y="108" on="1"/>
        <pt x="77" y="132" on="0"/>
        <pt x="83" y="157" on="1"/>
        <pt x="116" y="313" on="1"/>
        <pt x="132" y="388" on="0"/>
        <pt x="231" y="480" on="0"/>
        <pt x="351" y="480" on="0"/>
        <pt x="392" y="420" on="0"/>
        <pt x="392" y="380" on="1"/>
        <pt x="389" y="349" on="1"/>
      </contour>
    </TTGlyph>
    <TTGlyph name="caron" xMin="50" yMin="537" xMax="258" yMax="690">
      <contour>
        <pt x="156" y="554" on="1"/>
        <pt x="143" y="537" on="0"/>
        <pt x="104" y="537" on="0"/>
        <pt x="98" y="554" on="1"/>
        <pt x="50" y="680" on="1"/>
        <pt x="66" y="690" on="1"/>
        <pt x="137" y="593" on="1"/>
        <pt x="246" y="690" on="1"/>
        <pt x="258" y="680" on="1"/>
      </contour>
    </TTGlyph>
    <TTGlyph name="ccedilla" xMin="77" yMin="-148" xMax="392" yMax="480">
      <contour>
        <pt x="77" y="107" on="1"/>
        <pt x="77" y="130" on="0"/>
        <pt x="83" y="157" on="1"/>
        <pt x="116" y="313" on="1"/>
        <pt x="132" y="388" on="0"/>
        <pt x="231" y="480" on="0"/>
        <pt x="351" y="480" on="0"/>
        <pt x="392" y="421" on="0"/>
        <pt x="392" y="381" on="1"/>
        <pt x="392" y="367" on="0"/>
        <pt x="389" y="349" on="1"/>
        <pt x="363" y="349" on="1"/>
        <pt x="366" y="367" on="0"/>
        <pt x="366" y="403" on="0"/>
        <pt x="339" y="450" on="0"/>
        <pt x="274" y="450" on="0"/>
        <pt x="221" y="399" on="0"/>
        <pt x="211" y="352" on="1"/>
        <pt x="162" y="118" on="1"/>
        <pt x="158" y="102" on="0"/>
        <pt x="158" y="55" on="0"/>
        <pt x="188" y="20" on="0"/>
        <pt x="215" y="20" on="1"/>
        <pt x="257" y="20" on="0"/>
        <pt x="308" y="88" on="0"/>
        <pt x="314" y="122" on="1"/>
        <pt x="340" y="122" on="1"/>
        <pt x="333" y="86" on="0"/>
        <pt x="276" y="7" on="0"/>
        <pt x="230" y="-5" on="1"/>
        <pt x="213" y="-77" on="0"/>
        <pt x="108" y="-148" on="1"/>
        <pt x="97" y="-138" on="1"/>
        <pt x="116" y="-119" on="0"/>
        <pt x="131" y="-89" on="1"/>
        <pt x="147" y="-56" on="0"/>
        <pt x="159" y="-6" on="1"/>
        <pt x="77" y="12" on="0"/>
      </contour>
    </TTGlyph>
    <TTGlyph name="cedilla" xMin="20" yMin="-148" xMax="154" yMax="0">
      <contour>
        <pt x="154" y="0" on="1"/>
        <pt x="136" y="-77" on="0"/>
        <pt x="31" y="-148" on="1"/>
        <pt x="20" y="-138" on="1"/>
        <pt x="39" y="-119" on="0"/>
        <pt x="54" y="-89" on="1"/>
        <pt x="68" y="-61" on="0"/>
        <pt x="84" y="0" on="1"/>
      </contour>
    </TTGlyph>
    <TTGlyph name="cent" xMin="87" yMin="-60" xMax="402" yMax="530">
      <contour>
        <pt x="87" y="108" on="1"/>
        <pt x="87" y="132" on="0"/>
        <pt x="93" y="157" on="1"/>
        <pt x="126" y="313" on="1"/>
        <pt x="142" y="388" on="0"/>
        <pt x="241" y="480" on="0"/>
        <pt x="308" y="480" on="1"/>
        <pt x="309" y="480" on="1"/>
        <pt x="319" y="530" on="1"/>
        <pt x="349" y="530" on="1"/>
        <pt x="338" y="476" on="1"/>
        <pt x="402" y="460" on="0"/>
        <pt x="402" y="379" on="1"/>
        <pt x="402" y="361" on="0"/>
        <pt x="400" y="349" on="1"/>
        <pt x="373" y="349" on="1"/>
        <pt x="375" y="360" on="0"/>
        <pt x="375" y="373" on="1"/>
        <pt x="375" y="437" on="0"/>
        <pt x="332" y="448" on="1"/>
        <pt x="241" y="21" on="1"/>
        <pt x="275" y="28" on="0"/>
        <pt x="318" y="92" on="0"/>
        <pt x="324" y="122" on="1"/>
        <pt x="350" y="122" on="1"/>
        <pt x="343" y="85" on="0"/>
        <pt x="284" y="5" on="0"/>
        <pt x="235" y="-6" on="1"/>
        <pt x="224" y="-60" on="1"/>
        <pt x="194" y="-60" on="1"/>
        <pt x="204" y="-10" on="1"/>
        <pt x="147" y="-10" on="0"/>
        <pt x="87" y="53" on="0"/>
      </contour>
      <contour>
        <pt x="168" y="84" on="1"/>
        <pt x="168" y="29" on="0"/>
        <pt x="211" y="21" on="1"/>
        <pt x="302" y="448" on="1"/>
        <pt x="240" y="437" on="0"/>
        <pt x="221" y="352" on="1"/>
        <pt x="172" y="118" on="1"/>
        <pt x="168" y="102" on="0"/>
      </contour>
    </TTGlyph>
    <TTGlyph name="circumflex" xMin="50" yMin="537" xMax="258" yMax="690">
      <contour>
        <pt x="152" y="673" on="1"/>
        <pt x="163" y="690" on="0"/>
        <pt x="202" y="690" on="0"/>
        <pt x="210" y="673" on="1"/>
        <pt x="258" y="547" on="1"/>
        <pt x="244" y="537" on="1"/>
        <pt x="173" y="634" on="1"/>
        <pt x="60" y="537" on="1"/>
        <pt x="50" y="547" on="1"/>
      </contour>
    </TTGlyph>
    <TTGlyph name="colon" xMin="57" yMin="-10" xMax="214" yMax="406">
      <contour>
        <pt x="129" y="96" on="0"/>
        <pt x="148" y="73" on="0"/>
        <pt x="148" y="31" on="0"/>
        <pt x="112" y="-10" on="0"/>
        <pt x="76" y="-10" on="0"/>
        <pt x="57" y="12" on="0"/>
        <pt x="57" y="54" on="0"/>
        <pt x="93" y="96" on="0"/>
      </contour>
      <contour>
        <pt x="195" y="406" on="0"/>
        <pt x="214" y="383" on="0"/>
        <pt x="214" y="341" on="0"/>
        <pt x="178" y="300" on="0"/>
        <pt x="142" y="300" on="0"/>
        <pt x="123" y="322" on="0"/>
        <pt x="123" y="364" on="0"/>
        <pt x="159" y="406" on="0"/>
      </contour>
    </TTGlyph>
    <TTGlyph name="comma" xMin="11" yMin="-98" xMax="157" yMax="110">
      <contour>
        <pt x="157" y="110" on="1"/>
        <pt x="141" y="39" on="0"/>
        <pt x="80" y="-59" on="0"/>
        <pt x="22" y="-98" on="1"/>
        <pt x="11" y="-88" on="1"/>
        <pt x="30" y="-69" on="0"/>
        <pt x="62" y="1" on="0"/>
        <pt x="74" y="51" on="1"/>
        <pt x="87" y="110" on="1"/>
      </contour>
    </TTGlyph>
    <TTGlyph name="copyright" xMin="116" yMin="0" xMax="822" yMax="690">
      <contour>
        <pt x="487" y="0" on="1"/>
        <pt x="307" y="0" on="1"/>
        <pt x="212" y="0" on="0"/>
        <pt x="116" y="98" on="0"/>
        <pt x="116" y="186" on="1"/>
        <pt x="116" y="220" on="0"/>
        <pt x="126" y="270" on="1"/>
        <pt x="157" y="419" on="1"/>
        <pt x="183" y="544" on="0"/>
        <pt x="336" y="690" on="0"/>
        <pt x="452" y="690" on="1"/>
        <pt x="632" y="690" on="1"/>
        <pt x="726" y="690" on="0"/>
        <pt x="822" y="591" on="0"/>
        <pt x="822" y="503" on="1"/>
        <pt x="822" y="464" on="0"/>
        <pt x="813" y="419" on="1"/>
        <pt x="782" y="270" on="1"/>
        <pt x="756" y="146" on="0"/>
        <pt x="603" y="0" on="0"/>
      </contour>
      <contour>
        <pt x="720" y="498" on="1"/>
        <pt x="725" y="520" on="0"/>
        <pt x="725" y="598" on="0"/>
        <pt x="676" y="655" on="0"/>
        <pt x="625" y="655" on="1"/>
        <pt x="445" y="655" on="1"/>
        <pt x="381" y="655" on="0"/>
        <pt x="298" y="569" on="0"/>
        <pt x="283" y="498" on="1"/>
        <pt x="219" y="192" on="1"/>
        <pt x="213" y="164" on="0"/>
        <pt x="213" y="140" on="1"/>
        <pt x="213" y="91" on="0"/>
        <pt x="263" y="35" on="0"/>
        <pt x="314" y="35" on="1"/>
        <pt x="494" y="35" on="1"/>
        <pt x="558" y="35" on="0"/>
        <pt x="641" y="121" on="0"/>
        <pt x="656" y="192" on="1"/>
      </contour>
      <contour>
        <pt x="471" y="100" on="0"/>
        <pt x="369" y="100" on="0"/>
        <pt x="309" y="165" on="0"/>
        <pt x="309" y="218" on="1"/>
        <pt x="309" y="236" on="0"/>
        <pt x="314" y="261" on="1"/>
        <pt x="347" y="414" on="1"/>
        <pt x="362" y="483" on="0"/>
        <pt x="459" y="575" on="0"/>
        <pt x="525" y="575" on="1"/>
        <pt x="570" y="575" on="0"/>
        <pt x="632" y="525" on="0"/>
        <pt x="632" y="480" on="1"/>
        <pt x="632" y="466" on="0"/>
        <pt x="627" y="444" on="1"/>
        <pt x="575" y="444" on="1"/>
        <pt x="582" y="479" on="0"/>
        <pt x="582" y="490" on="1"/>
        <pt x="582" y="553" on="0"/>
        <pt x="520" y="553" on="1"/>
        <pt x="443" y="553" on="0"/>
        <pt x="422" y="458" on="1"/>
        <pt x="371" y="217" on="1"/>
        <pt x="367" y="195" on="0"/>
        <pt x="367" y="185" on="1"/>
        <pt x="367" y="122" on="0"/>
        <pt x="429" y="122" on="1"/>
        <pt x="506" y="122" on="0"/>
        <pt x="527" y="217" on="1"/>
        <pt x="530" y="230" on="1"/>
        <pt x="581" y="230" on="1"/>
        <pt x="570" y="164" on="0"/>
      </contour>
    </TTGlyph>
    <TTGlyph name="d" xMin="76" yMin="-10" xMax="512" yMax="690">
      <contour>
        <pt x="178" y="-10" on="1"/>
        <pt x="129" y="-10" on="0"/>
        <pt x="76" y="48" on="0"/>
        <pt x="76" y="100" on="1"/>
        <pt x="76" y="128" on="0"/>
        <pt x="81" y="149" on="1"/>
        <pt x="118" y="322" on="1"/>
        <pt x="133" y="394" on="0"/>
        <pt x="223" y="480" on="0"/>
        <pt x="283" y="480" on="1"/>
        <pt x="353" y="480" on="0"/>
        <pt x="366" y="412" on="1"/>
        <pt x="425" y="690" on="1"/>
        <pt x="512" y="690" on="1"/>
        <pt x="366" y="0" on="1"/>
        <pt x="279" y="0" on="1"/>
        <pt x="291" y="60" on="1"/>
        <pt x="248" y="-10" on="0"/>
      </contour>
      <contour>
        <pt x="349" y="334" on="1"/>
        <pt x="353" y="354" on="0"/>
        <pt x="353" y="405" on="0"/>
        <pt x="322" y="450" on="0"/>
        <pt x="291" y="450" on="1"/>
        <pt x="232" y="450" on="0"/>
        <pt x="212" y="356" on="1"/>
        <pt x="161" y="115" on="1"/>
        <pt x="156" y="88" on="0"/>
        <pt x="156" y="73" on="1"/>
        <pt x="156" y="22" on="0"/>
        <pt x="240" y="22" on="0"/>
        <pt x="298" y="88" on="0"/>
        <pt x="308" y="137" on="1"/>
      </contour>
    </TTGlyph>
    <TTGlyph name="dagger" xMin="177" yMin="0" xMax="561" yMax="690">
      <contour>
        <pt x="561" y="619" on="1"/>
        <pt x="547" y="554" on="1"/>
        <pt x="416" y="554" on="1"/>
        <pt x="299" y="0" on="1"/>
        <pt x="190" y="0" on="1"/>
        <pt x="307" y="554" on="1"/>
        <pt x="177" y="554" on="1"/>
        <pt x="191" y="619" on="1"/>
        <pt x="321" y="619" on="1"/>
        <pt x="336" y="690" on="1"/>
        <pt x="445" y="690" on="1"/>
        <pt x="430" y="619" on="1"/>
      </contour>
    </TTGlyph>
    <TTGlyph name="daggerdbl" xMin="150" yMin="0" xMax="561" yMax="690">
      <contour>
        <pt x="520" y="424" on="1"/>
        <pt x="389" y="424" on="1"/>
        <pt x="299" y="0" on="1"/>
        <pt x="190" y="0" on="1"/>
        <pt x="280" y="424" on="1"/>
        <pt x="150" y="424" on="1"/>
        <pt x="163" y="489" on="1"/>
        <pt x="293" y="489" on="1"/>
        <pt x="307" y="554" on="1"/>
        <pt x="177" y="554" on="1"/>
        <pt x="191" y="619" on="1"/>
        <pt x="321" y="619" on="1"/>
        <pt x="336" y="690" on="1"/>
        <pt x="445" y="690" on="1"/>
        <pt x="430" y="619" on="1"/>
        <pt x="561" y="619" on="1"/>
        <pt x="547" y="554" on="1"/>
        <pt x="416" y="554" on="1"/>
        <pt x="402" y="489" on="1"/>
        <pt x="533" y="489" on="1"/>
      </contour>
    </TTGlyph>
    <TTGlyph name="degree" xMin="189" yMin="432" xMax="451" yMax="700">
      <contour>
        <pt x="451" y="598" on="1"/>
        <pt x="451" y="530" on="0"/>
        <pt x="355" y="432" on="0"/>
        <pt x="292" y="432" on="1"/>
        <pt x="245" y="432" on="0"/>
        <pt x="189" y="488" on="0"/>
        <pt x="189" y="534" on="1"/>
        <pt x="189" y="601" on="0"/>
        <pt x="287" y="700" on="0"/>
        <pt x="349" y="700" on="1"/>
        <pt x="395" y="700" on="0"/>
        <pt x="451" y="644" on="0"/>
      </contour>
      <contour>
        <pt x="339" y="483" on="0"/>
        <pt x="397" y="544" on="0"/>
        <pt x="397" y="612" on="0"/>
        <pt x="364" y="649" on="0"/>
        <pt x="302" y="649" on="0"/>
        <pt x="242" y="586" on="0"/>
        <pt x="242" y="518" on="0"/>
        <pt x="276" y="483" on="0"/>
      </contour>
    </TTGlyph>
    <TTGlyph name="dieresis" xMin="180" yMin="568" xMax="423" yMax="676">
      <contour>
        <pt x="404" y="676" on="0"/>
        <pt x="423" y="653" on="0"/>
        <pt x="423" y="610" on="0"/>
        <pt x="387" y="568" on="0"/>
        <pt x="351" y="568" on="0"/>
        <pt x="332" y="591" on="0"/>
        <pt x="332" y="633" on="0"/>
        <pt x="367" y="676" on="0"/>
      </contour>
      <contour>
        <pt x="252" y="676" on="0"/>
        <pt x="271" y="653" on="0"/>
        <pt x="271" y="610" on="0"/>
        <pt x="235" y="568" on="0"/>
        <pt x="199" y="568" on="0"/>
        <pt x="180" y="591" on="0"/>
        <pt x="180" y="633" on="0"/>
        <pt x="215" y="676" on="0"/>
      </contour>
    </TTGlyph>
    <TTGlyph name="dollar" xMin="80" yMin="-48" xMax="547" yMax="749">
      <contour>
        <pt x="547" y="592" on="1"/>
        <pt x="547" y="581" on="0"/>
        <pt x="544" y="563" on="1"/>
        <pt x="512" y="563" on="1"/>
        <pt x="513" y="571" on="0"/>
        <pt x="513" y="576" on="1"/>
        <pt x="513" y="606" on="0"/>
        <pt x="471" y="660" on="0"/>
        <pt x="429" y="664" on="1"/>
        <pt x="371" y="394" on="1"/>
        <pt x="472" y="286" on="1"/>
        <pt x="502" y="253" on="0"/>
        <pt x="502" y="213" on="1"/>
        <pt x="502" y="127" on="0"/>
        <pt x="378" y="1" on="0"/>
        <pt x="286" y="-8" on="1"/>
        <pt x="277" y="-48" on="1"/>
        <pt x="237" y="-48" on="1"/>
        <pt x="245" y="-10" on="1"/>
        <pt x="80" y="-4" on="0"/>
        <pt x="80" y="123" on="1"/>
        <pt x="80" y="151" on="0"/>
        <pt x="89" y="184" on="1"/>
        <pt x="168" y="184" on="1"/>
        <pt x="157" y="136" on="0"/>
        <pt x="157" y="111" on="1"/>
        <pt x="157" y="26" on="0"/>
        <pt x="253" y="25" on="1"/>
        <pt x="308" y="283" on="1"/>
        <pt x="212" y="385" on="1"/>
        <pt x="179" y="419" on="0"/>
        <pt x="179" y="476" on="1"/>
        <pt x="179" y="563" on="0"/>
        <pt x="301" y="694" on="0"/>
        <pt x="396" y="700" on="1"/>
        <pt x="407" y="749" on="1"/>
        <pt x="447" y="749" on="1"/>
        <pt x="436" y="698" on="1"/>
        <pt x="492" y="692" on="0"/>
        <pt x="547" y="631" on="0"/>
      </contour>
      <contour>
        <pt x="341" y="659" on="0"/>
        <pt x="278" y="582" on="0"/>
        <pt x="278" y="495" on="0"/>
        <pt x="300" y="470" on="1"/>
        <pt x="339" y="429" on="1"/>
        <pt x="388" y="663" on="1"/>
      </contour>
      <contour>
        <pt x="400" y="157" on="1"/>
        <pt x="400" y="185" on="0"/>
        <pt x="379" y="207" on="1"/>
        <pt x="340" y="248" on="1"/>
        <pt x="294" y="29" on="1"/>
        <pt x="338" y="39" on="0"/>
        <pt x="400" y="111" on="0"/>
      </contour>
    </TTGlyph>
    <TTGlyph name="dotaccent" xMin="181" yMin="569" xMax="271" yMax="675">
      <contour>
        <pt x="219" y="675" on="0"/>
        <pt x="252" y="675" on="0"/>
        <pt x="271" y="652" on="0"/>
        <pt x="271" y="639" on="1"/>
        <pt x="271" y="605" on="0"/>
        <pt x="232" y="569" on="0"/>
        <pt x="199" y="569" on="0"/>
        <pt x="181" y="592" on="0"/>
        <pt x="181" y="604" on="1"/>
        <pt x="181" y="639" on="0"/>
      </contour>
    </TTGlyph>
    <TTGlyph name="dotlessi" xMin="74" yMin="-10" xMax="245" yMax="470">
      <contour>
        <pt x="159" y="58" on="1"/>
        <pt x="159" y="40" on="0"/>
        <pt x="196" y="40" on="0"/>
        <pt x="216" y="72" on="1"/>
        <pt x="234" y="69" on="1"/>
        <pt x="217" y="18" on="0"/>
        <pt x="176" y="-2" on="1"/>
        <pt x="159" y="-10" on="0"/>
        <pt x="139" y="-10" on="1"/>
        <pt x="74" y="-10" on="0"/>
        <pt x="74" y="54" on="1"/>
        <pt x="74" y="67" on="0"/>
        <pt x="78" y="89" on="1"/>
        <pt x="159" y="470" on="1"/>
        <pt x="245" y="470" on="1"/>
        <pt x="159" y="65" on="0"/>
      </contour>
    </TTGlyph>
    <TTGlyph name="e" xMin="77" yMin="-10" xMax="409" yMax="480">
      <contour>
        <pt x="156" y="79" on="1"/>
        <pt x="156" y="20" on="0"/>
        <pt x="220" y="20" on="1"/>
        <pt x="263" y="20" on="0"/>
        <pt x="323" y="90" on="0"/>
        <pt x="328" y="115" on="1"/>
        <pt x="350" y="115" on="1"/>
        <pt x="344" y="83" on="0"/>
        <pt x="311" y="41" on="1"/>
        <pt x="294" y="19" on="0"/>
        <pt x="235" y="-10" on="0"/>
        <pt x="200" y="-10" on="1"/>
        <pt x="77" y="-10" on="0"/>
        <pt x="77" y="105" on="1"/>
        <pt x="77" y="130" on="0"/>
        <pt x="83" y="157" on="1"/>
        <pt x="116" y="314" on="1"/>
        <pt x="132" y="387" on="0"/>
        <pt x="232" y="480" on="0"/>
        <pt x="309" y="480" on="1"/>
        <pt x="409" y="480" on="0"/>
        <pt x="409" y="372" on="1"/>
        <pt x="409" y="348" on="0"/>
        <pt x="402" y="311" on="1"/>
        <pt x="385" y="232" on="1"/>
        <pt x="185" y="232" on="1"/>
        <pt x="161" y="118" on="1"/>
        <pt x="156" y="95" on="0"/>
      </contour>
      <contour>
        <pt x="358" y="390" on="1"/>
        <pt x="358" y="450" on="0"/>
        <pt x="304" y="450" on="1"/>
        <pt x="232" y="450" on="0"/>
        <pt x="211" y="353" on="1"/>
        <pt x="191" y="262" on="1"/>
        <pt x="334" y="262" on="1"/>
        <pt x="354" y="353" on="1"/>
        <pt x="358" y="372" on="0"/>
      </contour>
    </TTGlyph>
    <TTGlyph name="eacute" xMin="77" yMin="-10" xMax="431" yMax="690">
      <contour>
        <pt x="156" y="79" on="1"/>
        <pt x="156" y="20" on="0"/>
        <pt x="220" y="20" on="1"/>
        <pt x="263" y="20" on="0"/>
        <pt x="323" y="90" on="0"/>
        <pt x="328" y="115" on="1"/>
        <pt x="350" y="115" on="1"/>
        <pt x="344" y="83" on="0"/>
        <pt x="311" y="41" on="1"/>
        <pt x="294" y="19" on="0"/>
        <pt x="235" y="-10" on="0"/>
        <pt x="200" y="-10" on="1"/>
        <pt x="77" y="-10" on="0"/>
        <pt x="77" y="105" on="1"/>
        <pt x="77" y="130" on="0"/>
        <pt x="83" y="157" on="1"/>
        <pt x="116" y="314" on="1"/>
        <pt x="132" y="387" on="0"/>
        <pt x="232" y="480" on="0"/>
        <pt x="309" y="480" on="1"/>
        <pt x="409" y="480" on="0"/>
        <pt x="409" y="372" on="1"/>
        <pt x="409" y="348" on="0"/>
        <pt x="402" y="311" on="1"/>
        <pt x="385" y="232" on="1"/>
        <pt x="185" y="232" on="1"/>
        <pt x="161" y="118" on="1"/>
        <pt x="156" y="95" on="0"/>
      </contour>
      <contour>
        <pt x="358" y="390" on="1"/>
        <pt x="358" y="450" on="0"/>
        <pt x="304" y="450" on="1"/>
        <pt x="232" y="450" on="0"/>
        <pt x="211" y="353" on="1"/>
        <pt x="191" y="262" on="1"/>
        <pt x="334" y="262" on="1"/>
        <pt x="354" y="353" on="1"/>
        <pt x="358" y="372" on="0"/>
      </contour>
      <contour>
        <pt x="362" y="674" on="1"/>
        <pt x="371" y="690" on="0"/>
        <pt x="404" y="690" on="0"/>
        <pt x="431" y="665" on="0"/>
        <pt x="431" y="636" on="0"/>
        <pt x="420" y="627" on="1"/>
        <pt x="305" y="527" on="1"/>
        <pt x="288" y="539" on="1"/>
      </contour>
    </TTGlyph>
    <TTGlyph name="ecircumflex" xMin="77" yMin="-10" xMax="414" yMax="690">
      <contour>
        <pt x="156" y="79" on="1"/>
        <pt x="156" y="20" on="0"/>
        <pt x="220" y="20" on="1"/>
        <pt x="263" y="20" on="0"/>
        <pt x="323" y="90" on="0"/>
        <pt x="328" y="115" on="1"/>
        <pt x="350" y="115" on="1"/>
        <pt x="344" y="83" on="0"/>
        <pt x="311" y="41" on="1"/>
        <pt x="294" y="19" on="0"/>
        <pt x="235" y="-10" on="0"/>
        <pt x="200" y="-10" on="1"/>
        <pt x="77" y="-10" on="0"/>
        <pt x="77" y="105" on="1"/>
        <pt x="77" y="130" on="0"/>
        <pt x="83" y="157" on="1"/>
        <pt x="116" y="314" on="1"/>
        <pt x="132" y="387" on="0"/>
        <pt x="232" y="480" on="0"/>
        <pt x="309" y="480" on="1"/>
        <pt x="409" y="480" on="0"/>
        <pt x="409" y="372" on="1"/>
        <pt x="409" y="348" on="0"/>
        <pt x="402" y="311" on="1"/>
        <pt x="385" y="232" on="1"/>
        <pt x="185" y="232" on="1"/>
        <pt x="161" y="118" on="1"/>
        <pt x="156" y="95" on="0"/>
      </contour>
      <contour>
        <pt x="358" y="390" on="1"/>
        <pt x="358" y="450" on="0"/>
        <pt x="304" y="450" on="1"/>
        <pt x="232" y="450" on="0"/>
        <pt x="211" y="353" on="1"/>
        <pt x="191" y="262" on="1"/>
        <pt x="334" y="262" on="1"/>
        <pt x="354" y="353" on="1"/>
        <pt x="358" y="372" on="0"/>
      </contour>
      <contour>
        <pt x="308" y="673" on="1"/>
        <pt x="319" y="690" on="0"/>
        <pt x="358" y="690" on="0"/>
        <pt x="366" y="673" on="1"/>
        <pt x="414" y="547" on="1"/>
        <pt x="400" y="537" on="1"/>
        <pt x="329" y="634" on="1"/>
        <pt x="216" y="537" on="1"/>
        <pt x="206" y="547" on="1"/>
      </contour>
    </TTGlyph>
    <TTGlyph name="edieresis" xMin="77" yMin="-10" xMax="453" yMax="676">
      <contour>
        <pt x="156" y="79" on="1"/>
        <pt x="156" y="20" on="0"/>
        <pt x="220" y="20" on="1"/>
        <pt x="263" y="20" on="0"/>
        <pt x="323" y="90" on="0"/>
        <pt x="328" y="115" on="1"/>
        <pt x="350" y="115" on="1"/>
        <pt x="344" y="83" on="0"/>
        <pt x="311" y="41" on="1"/>
        <pt x="294" y="19" on="0"/>
        <pt x="235" y="-10" on="0"/>
        <pt x="200" y="-10" on="1"/>
        <pt x="77" y="-10" on="0"/>
        <pt x="77" y="105" on="1"/>
        <pt x="77" y="130" on="0"/>
        <pt x="83" y="157" on="1"/>
        <pt x="116" y="314" on="1"/>
        <pt x="132" y="387" on="0"/>
        <pt x="232" y="480" on="0"/>
        <pt x="309" y="480" on="1"/>
        <pt x="409" y="480" on="0"/>
        <pt x="409" y="372" on="1"/>
        <pt x="409" y="348" on="0"/>
        <pt x="402" y="311" on="1"/>
        <pt x="385" y="232" on="1"/>
        <pt x="185" y="232" on="1"/>
        <pt x="161" y="118" on="1"/>
        <pt x="156" y="95" on="0"/>
      </contour>
      <contour>
        <pt x="358" y="390" on="1"/>
        <pt x="358" y="450" on="0"/>
        <pt x="304" y="450" on="1"/>
        <pt x="232" y="450" on="0"/>
        <pt x="211" y="353" on="1"/>
        <pt x="191" y="262" on="1"/>
        <pt x="334" y="262" on="1"/>
        <pt x="354" y="353" on="1"/>
        <pt x="358" y="372" on="0"/>
      </contour>
      <contour>
        <pt x="434" y="676" on="0"/>
        <pt x="453" y="653" on="0"/>
        <pt x="453" y="610" on="0"/>
        <pt x="417" y="568" on="0"/>
        <pt x="381" y="568" on="0"/>
        <pt x="362" y="591" on="0"/>
        <pt x="362" y="633" on="0"/>
        <pt x="397" y="676" on="0"/>
      </contour>
      <contour>
        <pt x="282" y="676" on="0"/>
        <pt x="301" y="653" on="0"/>
        <pt x="301" y="610" on="0"/>
        <pt x="265" y="568" on="0"/>
        <pt x="229" y="568" on="0"/>
        <pt x="210" y="591" on="0"/>
        <pt x="210" y="633" on="0"/>
        <pt x="245" y="676" on="0"/>
      </contour>
    </TTGlyph>
    <TTGlyph name="egrave" xMin="77" yMin="-10" xMax="409" yMax="690">
      <contour>
        <pt x="156" y="79" on="1"/>
        <pt x="156" y="20" on="0"/>
        <pt x="220" y="20" on="1"/>
        <pt x="263" y="20" on="0"/>
        <pt x="323" y="90" on="0"/>
        <pt x="328" y="115" on="1"/>
        <pt x="350" y="115" on="1"/>
        <pt x="344" y="83" on="0"/>
        <pt x="311" y="41" on="1"/>
        <pt x="294" y="19" on="0"/>
        <pt x="235" y="-10" on="0"/>
        <pt x="200" y="-10" on="1"/>
        <pt x="77" y="-10" on="0"/>
        <pt x="77" y="105" on="1"/>
        <pt x="77" y="130" on="0"/>
        <pt x="83" y="157" on="1"/>
        <pt x="116" y="314" on="1"/>
        <pt x="132" y="387" on="0"/>
        <pt x="232" y="480" on="0"/>
        <pt x="309" y="480" on="1"/>
        <pt x="409" y="480" on="0"/>
        <pt x="409" y="372" on="1"/>
        <pt x="409" y="348" on="0"/>
        <pt x="402" y="311" on="1"/>
        <pt x="385" y="232" on="1"/>
        <pt x="185" y="232" on="1"/>
        <pt x="161" y="118" on="1"/>
        <pt x="156" y="95" on="0"/>
      </contour>
      <contour>
        <pt x="358" y="390" on="1"/>
        <pt x="358" y="450" on="0"/>
        <pt x="304" y="450" on="1"/>
        <pt x="232" y="450" on="0"/>
        <pt x="211" y="353" on="1"/>
        <pt x="191" y="262" on="1"/>
        <pt x="334" y="262" on="1"/>
        <pt x="354" y="353" on="1"/>
        <pt x="358" y="372" on="0"/>
      </contour>
      <contour>
        <pt x="238" y="626" on="1"/>
        <pt x="227" y="637" on="0"/>
        <pt x="227" y="665" on="0"/>
        <pt x="253" y="690" on="0"/>
        <pt x="287" y="690" on="0"/>
        <pt x="296" y="674" on="1"/>
        <pt x="370" y="539" on="1"/>
        <pt x="353" y="526" on="1"/>
      </contour>
    </TTGlyph>
    <TTGlyph name="eight" xMin="85" yMin="-10" xMax="568" yMax="700">
      <contour>
        <pt x="568" y="566" on="1"/>
        <pt x="568" y="550" on="0"/>
        <pt x="551" y="465" on="0"/>
        <pt x="473" y="385" on="0"/>
        <pt x="418" y="365" on="1"/>
        <pt x="459" y="349" on="0"/>
        <pt x="505" y="285" on="0"/>
        <pt x="505" y="244" on="1"/>
        <pt x="505" y="229" on="0"/>
        <pt x="475" y="87" on="0"/>
        <pt x="339" y="-10" on="0"/>
        <pt x="177" y="-10" on="0"/>
        <pt x="85" y="67" on="0"/>
        <pt x="85" y="126" on="1"/>
        <pt x="85" y="141" on="0"/>
        <pt x="100" y="214" on="1"/>
        <pt x="110" y="264" on="0"/>
        <pt x="190" y="345" on="0"/>
        <pt x="247" y="365" on="1"/>
        <pt x="166" y="400" on="0"/>
        <pt x="166" y="483" on="1"/>
        <pt x="166" y="499" on="0"/>
        <pt x="173" y="534" on="1"/>
        <pt x="188" y="604" on="0"/>
        <pt x="320" y="700" on="0"/>
        <pt x="478" y="700" on="0"/>
        <pt x="568" y="625" on="0"/>
      </contour>
      <contour>
        <pt x="404" y="281" on="1"/>
        <pt x="404" y="350" on="0"/>
        <pt x="330" y="350" on="1"/>
        <pt x="283" y="350" on="0"/>
        <pt x="225" y="295" on="0"/>
        <pt x="216" y="253" on="1"/>
        <pt x="188" y="118" on="1"/>
        <pt x="185" y="103" on="0"/>
        <pt x="185" y="90" on="1"/>
        <pt x="185" y="20" on="0"/>
        <pt x="260" y="20" on="1"/>
        <pt x="307" y="20" on="0"/>
        <pt x="364" y="75" on="0"/>
        <pt x="373" y="118" on="1"/>
        <pt x="401" y="253" on="1"/>
        <pt x="404" y="268" on="0"/>
      </contour>
      <contour>
        <pt x="470" y="603" on="1"/>
        <pt x="470" y="670" on="0"/>
        <pt x="398" y="670" on="1"/>
        <pt x="351" y="670" on="0"/>
        <pt x="295" y="616" on="0"/>
        <pt x="286" y="573" on="1"/>
        <pt x="266" y="476" on="1"/>
        <pt x="263" y="461" on="0"/>
        <pt x="263" y="446" on="1"/>
        <pt x="263" y="383" on="0"/>
        <pt x="331" y="380" on="1"/>
        <pt x="341" y="380" on="1"/>
        <pt x="427" y="383" on="0"/>
        <pt x="447" y="476" on="1"/>
        <pt x="467" y="573" on="1"/>
        <pt x="470" y="588" on="0"/>
      </contour>
    </TTGlyph>
    <TTGlyph name="ellipsis" xMin="57" yMin="-10" xMax="501" yMax="96">
      <contour>
        <pt x="129" y="96" on="0"/>
        <pt x="149" y="73" on="0"/>
        <pt x="149" y="32" on="0"/>
        <pt x="112" y="-10" on="0"/>
        <pt x="76" y="-10" on="0"/>
        <pt x="57" y="12" on="0"/>
        <pt x="57" y="54" on="0"/>
        <pt x="92" y="96" on="0"/>
      </contour>
      <contour>
        <pt x="305" y="96" on="0"/>
        <pt x="325" y="73" on="0"/>
        <pt x="325" y="32" on="0"/>
        <pt x="288" y="-10" on="0"/>
        <pt x="252" y="-10" on="0"/>
        <pt x="233" y="12" on="0"/>
        <pt x="233" y="54" on="0"/>
        <pt x="268" y="96" on="0"/>
      </contour>
      <contour>
        <pt x="481" y="96" on="0"/>
        <pt x="501" y="73" on="0"/>
        <pt x="501" y="32" on="0"/>
        <pt x="464" y="-10" on="0"/>
        <pt x="428" y="-10" on="0"/>
        <pt x="409" y="12" on="0"/>
        <pt x="409" y="54" on="0"/>
        <pt x="444" y="96" on="0"/>
      </contour>
    </TTGlyph>
    <TTGlyph name="emdash" xMin="53" yMin="250" xMax="1063" yMax="300">
      <contour>
        <pt x="1053" y="250" on="1"/>
        <pt x="53" y="250" on="1"/>
        <pt x="63" y="300" on="1"/>
        <pt x="1063" y="300" on="1"/>
      </contour>
    </TTGlyph>
    <TTGlyph name="endash" xMin="53" yMin="250" xMax="563" yMax="300">
      <contour>
        <pt x="553" y="250" on="1"/>
        <pt x="53" y="250" on="1"/>
        <pt x="63" y="300" on="1"/>
        <pt x="563" y="300" on="1"/>
      </contour>
    </TTGlyph>
    <TTGlyph name="equal" xMin="84" yMin="160" xMax="524" yMax="350">
      <contour>
        <pt x="513" y="300" on="1"/>
        <pt x="113" y="300" on="1"/>
        <pt x="124" y="350" on="1"/>
        <pt x="524" y="350" on="1"/>
      </contour>
      <contour>
        <pt x="484" y="160" on="1"/>
        <pt x="84" y="160" on="1"/>
        <pt x="94" y="210" on="1"/>
        <pt x="494" y="210" on="1"/>
      </contour>
    </TTGlyph>
    <TTGlyph name="eth" xMin="76" yMin="-10" xMax="558" yMax="690">
      <contour>
        <pt x="178" y="-10" on="1"/>
        <pt x="129" y="-10" on="0"/>
        <pt x="76" y="48" on="0"/>
        <pt x="76" y="100" on="1"/>
        <pt x="76" y="128" on="0"/>
        <pt x="81" y="149" on="1"/>
        <pt x="118" y="322" on="1"/>
        <pt x="133" y="394" on="0"/>
        <pt x="223" y="480" on="0"/>
        <pt x="283" y="480" on="1"/>
        <pt x="353" y="480" on="0"/>
        <pt x="366" y="412" on="1"/>
        <pt x="398" y="560" on="1"/>
        <pt x="288" y="560" on="1"/>
        <pt x="301" y="625" on="1"/>
        <pt x="411" y="625" on="1"/>
        <pt x="425" y="690" on="1"/>
        <pt x="512" y="690" on="1"/>
        <pt x="498" y="625" on="1"/>
        <pt x="558" y="625" on="1"/>
        <pt x="545" y="560" on="1"/>
        <pt x="485" y="560" on="1"/>
        <pt x="366" y="0" on="1"/>
        <pt x="279" y="0" on="1"/>
        <pt x="291" y="60" on="1"/>
        <pt x="248" y="-10" on="0"/>
      </contour>
      <contour>
        <pt x="349" y="334" on="1"/>
        <pt x="353" y="350" on="0"/>
        <pt x="353" y="405" on="0"/>
        <pt x="322" y="450" on="0"/>
        <pt x="291" y="450" on="1"/>
        <pt x="232" y="450" on="0"/>
        <pt x="212" y="356" on="1"/>
        <pt x="161" y="115" on="1"/>
        <pt x="156" y="88" on="0"/>
        <pt x="156" y="73" on="1"/>
        <pt x="156" y="22" on="0"/>
        <pt x="240" y="22" on="0"/>
        <pt x="298" y="88" on="0"/>
        <pt x="308" y="137" on="1"/>
      </contour>
    </TTGlyph>
    <TTGlyph name="exclam" xMin="72" yMin="-10" xMax="297" yMax="700">
      <contour>
        <pt x="200" y="670" on="0"/>
        <pt x="238" y="700" on="0"/>
        <pt x="273" y="700" on="0"/>
        <pt x="297" y="677" on="0"/>
        <pt x="297" y="651" on="0"/>
        <pt x="294" y="639" on="1"/>
        <pt x="160" y="154" on="1"/>
        <pt x="123" y="154" on="1"/>
        <pt x="197" y="646" on="1"/>
      </contour>
      <contour>
        <pt x="144" y="96" on="0"/>
        <pt x="163" y="74" on="0"/>
        <pt x="163" y="31" on="0"/>
        <pt x="128" y="-10" on="0"/>
        <pt x="91" y="-10" on="0"/>
        <pt x="72" y="12" on="0"/>
        <pt x="72" y="53" on="0"/>
        <pt x="108" y="96" on="0"/>
      </contour>
    </TTGlyph>
    <TTGlyph name="exclamdown" xMin="39" yMin="-145" xMax="263" yMax="565">
      <contour>
        <pt x="136" y="-115" on="0"/>
        <pt x="98" y="-145" on="0"/>
        <pt x="63" y="-145" on="0"/>
        <pt x="39" y="-122" on="0"/>
        <pt x="39" y="-95" on="0"/>
        <pt x="40" y="-91" on="1"/>
        <pt x="176" y="401" on="1"/>
        <pt x="213" y="401" on="1"/>
        <pt x="139" y="-91" on="1"/>
      </contour>
      <contour>
        <pt x="244" y="565" on="0"/>
        <pt x="263" y="542" on="0"/>
        <pt x="263" y="500" on="0"/>
        <pt x="229" y="459" on="0"/>
        <pt x="192" y="459" on="0"/>
        <pt x="173" y="481" on="0"/>
        <pt x="173" y="524" on="0"/>
        <pt x="207" y="565" on="0"/>
      </contour>
    </TTGlyph>
    <TTGlyph name="f" xMin="73" yMin="0" xMax="425" yMax="720">
      <contour>
        <pt x="372" y="606" on="1"/>
        <pt x="372" y="665" on="0"/>
        <pt x="337" y="665" on="1"/>
        <pt x="315" y="665" on="0"/>
        <pt x="291" y="625" on="0"/>
        <pt x="282" y="587" on="1"/>
        <pt x="221" y="300" on="1"/>
        <pt x="306" y="300" on="1"/>
        <pt x="300" y="270" on="1"/>
        <pt x="215" y="270" on="1"/>
        <pt x="158" y="0" on="1"/>
        <pt x="73" y="0" on="1"/>
        <pt x="130" y="270" on="1"/>
        <pt x="97" y="270" on="1"/>
        <pt x="103" y="300" on="1"/>
        <pt x="136" y="300" on="1"/>
        <pt x="191" y="557" on="1"/>
        <pt x="205" y="624" on="0"/>
        <pt x="274" y="700" on="0"/>
        <pt x="317" y="700" on="1"/>
        <pt x="377" y="700" on="0"/>
        <pt x="385" y="644" on="1"/>
        <pt x="402" y="720" on="1"/>
        <pt x="425" y="720" on="1"/>
        <pt x="381" y="515" on="1"/>
        <pt x="358" y="515" on="1"/>
        <pt x="372" y="583" on="0"/>
      </contour>
    </TTGlyph>
    <TTGlyph name="ff" xMin="73" yMin="0" xMax="659" yMax="720">
      <contour>
        <pt x="607" y="606" on="1"/>
        <pt x="607" y="665" on="0"/>
        <pt x="534" y="665" on="0"/>
        <pt x="516" y="587" on="1"/>
        <pt x="455" y="300" on="1"/>
        <pt x="541" y="300" on="1"/>
        <pt x="535" y="270" on="1"/>
        <pt x="449" y="270" on="1"/>
        <pt x="392" y="0" on="1"/>
        <pt x="307" y="0" on="1"/>
        <pt x="364" y="270" on="1"/>
        <pt x="215" y="270" on="1"/>
        <pt x="158" y="0" on="1"/>
        <pt x="73" y="0" on="1"/>
        <pt x="130" y="270" on="1"/>
        <pt x="97" y="270" on="1"/>
        <pt x="103" y="300" on="1"/>
        <pt x="136" y="300" on="1"/>
        <pt x="191" y="557" on="1"/>
        <pt x="205" y="624" on="0"/>
        <pt x="274" y="700" on="0"/>
        <pt x="317" y="700" on="1"/>
        <pt x="377" y="700" on="0"/>
        <pt x="385" y="644" on="1"/>
        <pt x="402" y="720" on="1"/>
        <pt x="425" y="720" on="1"/>
        <pt x="381" y="516" on="1"/>
        <pt x="358" y="516" on="1"/>
        <pt x="372" y="582" on="0"/>
        <pt x="372" y="606" on="1"/>
        <pt x="372" y="665" on="0"/>
        <pt x="337" y="665" on="1"/>
        <pt x="315" y="665" on="0"/>
        <pt x="291" y="625" on="0"/>
        <pt x="282" y="587" on="1"/>
        <pt x="221" y="300" on="1"/>
        <pt x="370" y="300" on="1"/>
        <pt x="425" y="557" on="1"/>
        <pt x="439" y="624" on="0"/>
        <pt x="508" y="700" on="0"/>
        <pt x="552" y="700" on="1"/>
        <pt x="611" y="700" on="0"/>
        <pt x="620" y="644" on="1"/>
        <pt x="637" y="720" on="1"/>
        <pt x="659" y="720" on="1"/>
        <pt x="615" y="516" on="1"/>
        <pt x="593" y="516" on="1"/>
        <pt x="607" y="582" on="0"/>
      </contour>
    </TTGlyph>
    <TTGlyph name="fi" xMin="73" yMin="-10" xMax="491" yMax="720">
      <contour>
        <pt x="423" y="545" on="1"/>
        <pt x="428" y="568" on="0"/>
        <pt x="428" y="618" on="0"/>
        <pt x="396" y="665" on="0"/>
        <pt x="339" y="665" on="0"/>
        <pt x="291" y="624" on="0"/>
        <pt x="284" y="591" on="1"/>
        <pt x="221" y="300" on="1"/>
        <pt x="306" y="300" on="1"/>
        <pt x="300" y="270" on="1"/>
        <pt x="215" y="270" on="1"/>
        <pt x="158" y="0" on="1"/>
        <pt x="73" y="0" on="1"/>
        <pt x="130" y="270" on="1"/>
        <pt x="97" y="270" on="1"/>
        <pt x="103" y="300" on="1"/>
        <pt x="136" y="300" on="1"/>
        <pt x="193" y="566" on="1"/>
        <pt x="207" y="629" on="0"/>
        <pt x="305" y="700" on="0"/>
        <pt x="394" y="700" on="0"/>
        <pt x="440" y="656" on="0"/>
        <pt x="441" y="633" on="1"/>
        <pt x="460" y="720" on="1"/>
        <pt x="482" y="720" on="1"/>
        <pt x="445" y="545" on="1"/>
      </contour>
      <contour>
        <pt x="405" y="58" on="1"/>
        <pt x="405" y="40" on="0"/>
        <pt x="442" y="40" on="0"/>
        <pt x="462" y="72" on="1"/>
        <pt x="480" y="69" on="1"/>
        <pt x="463" y="18" on="0"/>
        <pt x="422" y="-2" on="1"/>
        <pt x="405" y="-10" on="0"/>
        <pt x="385" y="-10" on="1"/>
        <pt x="320" y="-10" on="0"/>
        <pt x="320" y="53" on="1"/>
        <pt x="320" y="65" on="0"/>
        <pt x="324" y="89" on="1"/>
        <pt x="405" y="470" on="1"/>
        <pt x="491" y="470" on="1"/>
        <pt x="405" y="65" on="0"/>
      </contour>
    </TTGlyph>
    <TTGlyph name="five" xMin="91" yMin="-10" xMax="569" yMax="690">
      <contour>
        <pt x="497" y="292" on="1"/>
        <pt x="497" y="258" on="0"/>
        <pt x="487" y="212" on="1"/>
        <pt x="439" y="-10" on="0"/>
        <pt x="230" y="-10" on="1"/>
        <pt x="168" y="-10" on="0"/>
        <pt x="95" y="54" on="0"/>
        <pt x="91" y="112" on="1"/>
        <pt x="119" y="120" on="1"/>
        <pt x="123" y="86" on="0"/>
        <pt x="174" y="25" on="0"/>
        <pt x="228" y="25" on="1"/>
        <pt x="339" y="25" on="0"/>
        <pt x="368" y="160" on="1"/>
        <pt x="389" y="259" on="1"/>
        <pt x="397" y="297" on="0"/>
        <pt x="397" y="325" on="1"/>
        <pt x="397" y="415" on="0"/>
        <pt x="316" y="415" on="1"/>
        <pt x="221" y="415" on="0"/>
        <pt x="175" y="307" on="1"/>
        <pt x="125" y="307" on="1"/>
        <pt x="206" y="690" on="1"/>
        <pt x="569" y="690" on="1"/>
        <pt x="548" y="590" on="1"/>
        <pt x="235" y="590" on="1"/>
        <pt x="190" y="381" on="1"/>
        <pt x="244" y="450" on="0"/>
        <pt x="420" y="450" on="0"/>
        <pt x="497" y="361" on="0"/>
      </contour>
    </TTGlyph>
    <TTGlyph name="fl" xMin="73" yMin="-10" xMax="538" yMax="700">
      <contour>
        <pt x="405" y="57" on="1"/>
        <pt x="405" y="40" on="0"/>
        <pt x="444" y="40" on="0"/>
        <pt x="462" y="72" on="1"/>
        <pt x="480" y="69" on="1"/>
        <pt x="463" y="18" on="0"/>
        <pt x="422" y="-2" on="1"/>
        <pt x="405" y="-10" on="0"/>
        <pt x="384" y="-10" on="1"/>
        <pt x="319" y="-10" on="0"/>
        <pt x="319" y="54" on="1"/>
        <pt x="319" y="67" on="0"/>
        <pt x="323" y="89" on="1"/>
        <pt x="424" y="560" on="1"/>
        <pt x="427" y="575" on="0"/>
        <pt x="427" y="589" on="1"/>
        <pt x="427" y="625" on="0"/>
        <pt x="391" y="668" on="0"/>
        <pt x="340" y="668" on="0"/>
        <pt x="291" y="626" on="0"/>
        <pt x="284" y="594" on="1"/>
        <pt x="221" y="300" on="1"/>
        <pt x="306" y="300" on="1"/>
        <pt x="300" y="270" on="1"/>
        <pt x="215" y="270" on="1"/>
        <pt x="158" y="0" on="1"/>
        <pt x="73" y="0" on="1"/>
        <pt x="130" y="270" on="1"/>
        <pt x="97" y="270" on="1"/>
        <pt x="103" y="300" on="1"/>
        <pt x="136" y="300" on="1"/>
        <pt x="193" y="569" on="1"/>
        <pt x="207" y="632" on="0"/>
        <pt x="303" y="700" on="0"/>
        <pt x="393" y="700" on="0"/>
        <pt x="438" y="658" on="0"/>
        <pt x="439" y="635" on="1"/>
        <pt x="451" y="690" on="1"/>
        <pt x="538" y="690" on="1"/>
        <pt x="407" y="74" on="1"/>
        <pt x="405" y="62" on="0"/>
      </contour>
    </TTGlyph>
    <TTGlyph name="florin" xMin="25" yMin="-163" xMax="523" yMax="710">
      <contour>
        <pt x="471" y="596" on="1"/>
        <pt x="471" y="655" on="0"/>
        <pt x="436" y="655" on="1"/>
        <pt x="397" y="655" on="0"/>
        <pt x="381" y="577" on="1"/>
        <pt x="329" y="330" on="1"/>
        <pt x="414" y="330" on="1"/>
        <pt x="407" y="300" on="1"/>
        <pt x="322" y="300" on="1"/>
        <pt x="259" y="0" on="1"/>
        <pt x="244" y="-68" on="0"/>
        <pt x="175" y="-143" on="0"/>
        <pt x="132" y="-143" on="1"/>
        <pt x="72" y="-143" on="0"/>
        <pt x="64" y="-87" on="1"/>
        <pt x="48" y="-163" on="1"/>
        <pt x="25" y="-163" on="1"/>
        <pt x="68" y="42" on="1"/>
        <pt x="91" y="42" on="1"/>
        <pt x="77" y="-26" on="0"/>
        <pt x="77" y="-48" on="1"/>
        <pt x="77" y="-108" on="0"/>
        <pt x="150" y="-108" on="0"/>
        <pt x="164" y="-43" on="1"/>
        <pt x="237" y="300" on="1"/>
        <pt x="204" y="300" on="1"/>
        <pt x="211" y="330" on="1"/>
        <pt x="244" y="330" on="1"/>
        <pt x="290" y="547" on="1"/>
        <pt x="304" y="614" on="0"/>
        <pt x="373" y="690" on="0"/>
        <pt x="416" y="690" on="1"/>
        <pt x="476" y="690" on="0"/>
        <pt x="484" y="634" on="1"/>
        <pt x="500" y="710" on="1"/>
        <pt x="523" y="710" on="1"/>
        <pt x="480" y="505" on="1"/>
        <pt x="457" y="505" on="1"/>
        <pt x="471" y="573" on="0"/>
      </contour>
    </TTGlyph>
    <TTGlyph name="four" xMin="58" yMin="0" xMax="534" yMax="690">
      <contour>
        <pt x="389" y="0" on="1"/>
        <pt x="280" y="0" on="1"/>
        <pt x="318" y="183" on="1"/>
        <pt x="58" y="183" on="1"/>
        <pt x="427" y="690" on="1"/>
        <pt x="534" y="690" on="1"/>
        <pt x="201" y="232" on="1"/>
        <pt x="329" y="232" on="1"/>
        <pt x="358" y="369" on="1"/>
        <pt x="467" y="369" on="1"/>
        <pt x="438" y="232" on="1"/>
        <pt x="465" y="232" on="1"/>
        <pt x="454" y="182" on="1"/>
        <pt x="427" y="182" on="1"/>
      </contour>
    </TTGlyph>
    <TTGlyph name="fraction" xMin="50" yMin="-39" xMax="668" yMax="739">
      <contour>
        <pt x="583" y="739" on="1"/>
        <pt x="668" y="739" on="1"/>
        <pt x="136" y="-39" on="1"/>
        <pt x="50" y="-39" on="1"/>
      </contour>
    </TTGlyph>
    <TTGlyph name="g" xMin="43" yMin="-167" xMax="464" yMax="480">
      <contour>
        <pt x="63" y="-83" on="1"/>
        <pt x="88" y="-133" on="0"/>
        <pt x="209" y="-133" on="0"/>
        <pt x="240" y="-88" on="1"/>
        <pt x="271" y="-42" on="0"/>
        <pt x="290" y="60" on="1"/>
        <pt x="249" y="-10" on="0"/>
        <pt x="178" y="-10" on="1"/>
        <pt x="129" y="-10" on="0"/>
        <pt x="76" y="48" on="0"/>
        <pt x="76" y="100" on="1"/>
        <pt x="76" y="126" on="0"/>
        <pt x="81" y="149" on="1"/>
        <pt x="118" y="322" on="1"/>
        <pt x="134" y="395" on="0"/>
        <pt x="223" y="480" on="0"/>
        <pt x="283" y="480" on="1"/>
        <pt x="354" y="480" on="0"/>
        <pt x="365" y="413" on="1"/>
        <pt x="377" y="470" on="1"/>
        <pt x="464" y="470" on="1"/>
        <pt x="380" y="71" on="1"/>
        <pt x="328" y="-167" on="0"/>
        <pt x="152" y="-167" on="1"/>
        <pt x="112" y="-167" on="0"/>
        <pt x="58" y="-132" on="0"/>
        <pt x="50" y="-114" on="1"/>
        <pt x="43" y="-97" on="1"/>
      </contour>
      <contour>
        <pt x="348" y="334" on="1"/>
        <pt x="352" y="354" on="0"/>
        <pt x="352" y="405" on="0"/>
        <pt x="322" y="450" on="0"/>
        <pt x="291" y="450" on="1"/>
        <pt x="232" y="450" on="0"/>
        <pt x="212" y="357" on="1"/>
        <pt x="161" y="116" on="1"/>
        <pt x="156" y="93" on="0"/>
        <pt x="156" y="73" on="1"/>
        <pt x="156" y="22" on="0"/>
        <pt x="240" y="22" on="0"/>
        <pt x="297" y="88" on="0"/>
        <pt x="307" y="137" on="1"/>
      </contour>
    </TTGlyph>
    <TTGlyph name="germandbls" xMin="73" yMin="-10" xMax="522" yMax="700">
      <contour>
        <pt x="203" y="614" on="0"/>
        <pt x="296" y="700" on="0"/>
        <pt x="408" y="700" on="0"/>
        <pt x="457" y="643" on="0"/>
        <pt x="458" y="608" on="1"/>
        <pt x="476" y="690" on="1"/>
        <pt x="499" y="690" on="1"/>
        <pt x="455" y="485" on="1"/>
        <pt x="425" y="485" on="0"/>
        <pt x="375" y="434" on="0"/>
        <pt x="375" y="380" on="0"/>
        <pt x="394" y="353" on="1"/>
        <pt x="497" y="207" on="1"/>
        <pt x="522" y="172" on="0"/>
        <pt x="522" y="144" on="1"/>
        <pt x="522" y="80" on="0"/>
        <pt x="422" y="-10" on="0"/>
        <pt x="287" y="-10" on="0"/>
        <pt x="239" y="43" on="0"/>
        <pt x="239" y="82" on="1"/>
        <pt x="239" y="100" on="0"/>
        <pt x="242" y="113" on="1"/>
        <pt x="269" y="113" on="1"/>
        <pt x="265" y="96" on="0"/>
        <pt x="265" y="87" on="1"/>
        <pt x="265" y="57" on="0"/>
        <pt x="306" y="20" on="0"/>
        <pt x="384" y="20" on="0"/>
        <pt x="439" y="66" on="0"/>
        <pt x="439" y="106" on="1"/>
        <pt x="439" y="122" on="0"/>
        <pt x="422" y="147" on="1"/>
        <pt x="325" y="286" on="1"/>
        <pt x="298" y="324" on="0"/>
        <pt x="298" y="359" on="1"/>
        <pt x="298" y="415" on="0"/>
        <pt x="381" y="500" on="0"/>
        <pt x="436" y="505" on="1"/>
        <pt x="439" y="524" on="0"/>
        <pt x="439" y="595" on="0"/>
        <pt x="404" y="665" on="0"/>
        <pt x="336" y="665" on="0"/>
        <pt x="288" y="616" on="0"/>
        <pt x="282" y="587" on="1"/>
        <pt x="158" y="0" on="1"/>
        <pt x="73" y="0" on="1"/>
        <pt x="130" y="270" on="1"/>
        <pt x="97" y="270" on="1"/>
        <pt x="103" y="300" on="1"/>
        <pt x="136" y="300" on="1"/>
        <pt x="191" y="557" on="1"/>
      </contour>
    </TTGlyph>
    <TTGlyph name="grave" xMin="49" yMin="526" xMax="192" yMax="690">
      <contour>
        <pt x="60" y="626" on="1"/>
        <pt x="49" y="637" on="0"/>
        <pt x="49" y="665" on="0"/>
        <pt x="75" y="690" on="0"/>
        <pt x="109" y="690" on="0"/>
        <pt x="118" y="674" on="1"/>
        <pt x="192" y="539" on="1"/>
        <pt x="175" y="526" on="1"/>
      </contour>
    </TTGlyph>
    <TTGlyph name="greater" xMin="107" yMin="0" xMax="478" yMax="565">
      <contour>
        <pt x="478" y="282" on="1"/>
        <pt x="136" y="0" on="1"/>
        <pt x="107" y="35" on="1"/>
        <pt x="407" y="282" on="1"/>
        <pt x="213" y="530" on="1"/>
        <pt x="256" y="565" on="1"/>
      </contour>
    </TTGlyph>
    <TTGlyph name="guillemotleft" xMin="115" yMin="156" xMax="480" yMax="470">
      <contour>
        <pt x="259" y="183" on="1"/>
        <pt x="261" y="179" on="0"/>
        <pt x="261" y="171" on="0"/>
        <pt x="240" y="156" on="0"/>
        <pt x="229" y="156" on="0"/>
        <pt x="226" y="159" on="1"/>
        <pt x="117" y="302" on="1"/>
        <pt x="115" y="304" on="0"/>
        <pt x="115" y="317" on="0"/>
        <pt x="121" y="323" on="1"/>
        <pt x="292" y="467" on="1"/>
        <pt x="295" y="470" on="0"/>
        <pt x="306" y="470" on="0"/>
        <pt x="319" y="459" on="0"/>
        <pt x="319" y="448" on="0"/>
        <pt x="317" y="446" on="1"/>
        <pt x="199" y="313" on="1"/>
      </contour>
      <contour>
        <pt x="420" y="183" on="1"/>
        <pt x="422" y="179" on="0"/>
        <pt x="422" y="171" on="0"/>
        <pt x="401" y="156" on="0"/>
        <pt x="390" y="156" on="0"/>
        <pt x="387" y="159" on="1"/>
        <pt x="278" y="302" on="1"/>
        <pt x="276" y="304" on="0"/>
        <pt x="276" y="317" on="0"/>
        <pt x="282" y="323" on="1"/>
        <pt x="453" y="467" on="1"/>
        <pt x="456" y="470" on="0"/>
        <pt x="467" y="470" on="0"/>
        <pt x="480" y="459" on="0"/>
        <pt x="480" y="448" on="0"/>
        <pt x="478" y="446" on="1"/>
        <pt x="360" y="313" on="1"/>
      </contour>
    </TTGlyph>
    <TTGlyph name="guillemotright" xMin="87" yMin="156" xMax="452" yMax="470">
      <contour>
        <pt x="307" y="447" on="1"/>
        <pt x="306" y="449" on="0"/>
        <pt x="306" y="456" on="0"/>
        <pt x="326" y="470" on="0"/>
        <pt x="338" y="470" on="0"/>
        <pt x="341" y="467" on="1"/>
        <pt x="450" y="323" on="1"/>
        <pt x="452" y="321" on="0"/>
        <pt x="452" y="308" on="0"/>
        <pt x="446" y="302" on="1"/>
        <pt x="275" y="159" on="1"/>
        <pt x="272" y="156" on="0"/>
        <pt x="259" y="156" on="0"/>
        <pt x="248" y="170" on="0"/>
        <pt x="248" y="178" on="0"/>
        <pt x="250" y="180" on="1"/>
        <pt x="368" y="313" on="1"/>
      </contour>
      <contour>
        <pt x="146" y="447" on="1"/>
        <pt x="145" y="449" on="0"/>
        <pt x="145" y="456" on="0"/>
        <pt x="165" y="470" on="0"/>
        <pt x="177" y="470" on="0"/>
        <pt x="180" y="467" on="1"/>
        <pt x="289" y="323" on="1"/>
        <pt x="291" y="321" on="0"/>
        <pt x="291" y="308" on="0"/>
        <pt x="285" y="302" on="1"/>
        <pt x="114" y="159" on="1"/>
        <pt x="111" y="156" on="0"/>
        <pt x="98" y="156" on="0"/>
        <pt x="87" y="170" on="0"/>
        <pt x="87" y="178" on="0"/>
        <pt x="89" y="180" on="1"/>
        <pt x="207" y="313" on="1"/>
      </contour>
    </TTGlyph>
    <TTGlyph name="guilsinglleft" xMin="115" yMin="156" xMax="319" yMax="470">
      <contour>
        <pt x="259" y="183" on="1"/>
        <pt x="261" y="179" on="0"/>
        <pt x="261" y="171" on="0"/>
        <pt x="240" y="156" on="0"/>
        <pt x="229" y="156" on="0"/>
        <pt x="226" y="159" on="1"/>
        <pt x="117" y="302" on="1"/>
        <pt x="115" y="304" on="0"/>
        <pt x="115" y="317" on="0"/>
        <pt x="121" y="323" on="1"/>
        <pt x="292" y="467" on="1"/>
        <pt x="295" y="470" on="0"/>
        <pt x="306" y="470" on="0"/>
        <pt x="319" y="459" on="0"/>
        <pt x="319" y="448" on="0"/>
        <pt x="317" y="446" on="1"/>
        <pt x="199" y="313" on="1"/>
      </contour>
    </TTGlyph>
    <TTGlyph name="guilsinglright" xMin="87" yMin="156" xMax="291" yMax="470">
      <contour>
        <pt x="146" y="447" on="1"/>
        <pt x="145" y="449" on="0"/>
        <pt x="145" y="456" on="0"/>
        <pt x="165" y="470" on="0"/>
        <pt x="177" y="470" on="0"/>
        <pt x="180" y="467" on="1"/>
        <pt x="289" y="323" on="1"/>
        <pt x="291" y="321" on="0"/>
        <pt x="291" y="308" on="0"/>
        <pt x="285" y="302" on="1"/>
        <pt x="114" y="159" on="1"/>
        <pt x="111" y="156" on="0"/>
        <pt x="98" y="156" on="0"/>
        <pt x="87" y="170" on="0"/>
        <pt x="87" y="178" on="0"/>
        <pt x="89" y="180" on="1"/>
        <pt x="207" y="313" on="1"/>
      </contour>
    </TTGlyph>
    <TTGlyph name="h" xMin="60" yMin="-10" xMax="462" yMax="690">
      <contour>
        <pt x="388" y="57" on="1"/>
        <pt x="388" y="40" on="0"/>
        <pt x="426" y="40" on="0"/>
        <pt x="444" y="72" on="1"/>
        <pt x="462" y="69" on="1"/>
        <pt x="445" y="19" on="0"/>
        <pt x="405" y="-2" on="1"/>
        <pt x="388" y="-10" on="0"/>
        <pt x="368" y="-10" on="1"/>
        <pt x="302" y="-10" on="0"/>
        <pt x="302" y="53" on="1"/>
        <pt x="302" y="65" on="0"/>
        <pt x="306" y="89" on="1"/>
        <pt x="363" y="356" on="1"/>
        <pt x="369" y="381" on="0"/>
        <pt x="369" y="400" on="1"/>
        <pt x="369" y="450" on="0"/>
        <pt x="324" y="450" on="1"/>
        <pt x="285" y="450" on="0"/>
        <pt x="226" y="380" on="0"/>
        <pt x="216" y="334" on="1"/>
        <pt x="146" y="0" on="1"/>
        <pt x="60" y="0" on="1"/>
        <pt x="206" y="690" on="1"/>
        <pt x="292" y="690" on="1"/>
        <pt x="233" y="412" on="1"/>
        <pt x="277" y="480" on="0"/>
        <pt x="347" y="480" on="1"/>
        <pt x="395" y="480" on="0"/>
        <pt x="449" y="423" on="0"/>
        <pt x="449" y="372" on="1"/>
        <pt x="449" y="349" on="0"/>
        <pt x="443" y="322" on="1"/>
        <pt x="388" y="65" on="0"/>
      </contour>
    </TTGlyph>
    <TTGlyph name="hungarumlaut" xMin="50" yMin="527" xMax="342" yMax="690">
      <contour>
        <pt x="123" y="674" on="1"/>
        <pt x="133" y="690" on="0"/>
        <pt x="166" y="690" on="0"/>
        <pt x="192" y="665" on="0"/>
        <pt x="192" y="635" on="0"/>
        <pt x="181" y="627" on="1"/>
        <pt x="67" y="527" on="1"/>
        <pt x="50" y="539" on="1"/>
      </contour>
      <contour>
        <pt x="273" y="674" on="1"/>
        <pt x="283" y="690" on="0"/>
        <pt x="316" y="690" on="0"/>
        <pt x="342" y="665" on="0"/>
        <pt x="342" y="635" on="0"/>
        <pt x="331" y="627" on="1"/>
        <pt x="217" y="527" on="1"/>
        <pt x="200" y="539" on="1"/>
      </contour>
    </TTGlyph>
    <TTGlyph name="hyphen" xMin="99" yMin="235" xMax="338" yMax="300">
      <contour>
        <pt x="324" y="235" on="1"/>
        <pt x="99" y="235" on="1"/>
        <pt x="113" y="300" on="1"/>
        <pt x="338" y="300" on="1"/>
      </contour>
    </TTGlyph>
    <TTGlyph name="i" xMin="74" yMin="-10" xMax="281" yMax="690">
      <contour>
        <pt x="263" y="690" on="0"/>
        <pt x="281" y="664" on="0"/>
        <pt x="281" y="612" on="0"/>
        <pt x="243" y="554" on="0"/>
        <pt x="220" y="554" on="1"/>
        <pt x="207" y="554" on="0"/>
        <pt x="190" y="581" on="0"/>
        <pt x="190" y="632" on="0"/>
        <pt x="227" y="690" on="0"/>
      </contour>
      <contour>
        <pt x="159" y="57" on="1"/>
        <pt x="159" y="40" on="0"/>
        <pt x="196" y="40" on="0"/>
        <pt x="216" y="72" on="1"/>
        <pt x="234" y="69" on="1"/>
        <pt x="217" y="18" on="0"/>
        <pt x="176" y="-2" on="1"/>
        <pt x="159" y="-10" on="0"/>
        <pt x="139" y="-10" on="1"/>
        <pt x="74" y="-10" on="0"/>
        <pt x="74" y="54" on="1"/>
        <pt x="74" y="67" on="0"/>
        <pt x="78" y="89" on="1"/>
        <pt x="159" y="470" on="1"/>
        <pt x="245" y="470" on="1"/>
        <pt x="161" y="74" on="1"/>
        <pt x="159" y="64" on="0"/>
      </contour>
    </TTGlyph>
    <TTGlyph name="iacute" xMin="74" yMin="-10" xMax="321" yMax="690">
      <contour>
        <pt x="159" y="58" on="1"/>
        <pt x="159" y="40" on="0"/>
        <pt x="196" y="40" on="0"/>
        <pt x="216" y="72" on="1"/>
        <pt x="234" y="69" on="1"/>
        <pt x="217" y="18" on="0"/>
        <pt x="176" y="-2" on="1"/>
        <pt x="159" y="-10" on="0"/>
        <pt x="139" y="-10" on="1"/>
        <pt x="74" y="-10" on="0"/>
        <pt x="74" y="54" on="1"/>
        <pt x="74" y="67" on="0"/>
        <pt x="78" y="89" on="1"/>
        <pt x="159" y="470" on="1"/>
        <pt x="245" y="470" on="1"/>
        <pt x="159" y="65" on="0"/>
      </contour>
      <contour>
        <pt x="252" y="674" on="1"/>
        <pt x="261" y="690" on="0"/>
        <pt x="294" y="690" on="0"/>
        <pt x="321" y="665" on="0"/>
        <pt x="321" y="636" on="0"/>
        <pt x="310" y="627" on="1"/>
        <pt x="195" y="527" on="1"/>
        <pt x="178" y="539" on="1"/>
      </contour>
    </TTGlyph>
    <TTGlyph name="icircumflex" xMin="74" yMin="-10" xMax="310" yMax="690">
      <contour>
        <pt x="159" y="58" on="1"/>
        <pt x="159" y="40" on="0"/>
        <pt x="196" y="40" on="0"/>
        <pt x="216" y="72" on="1"/>
        <pt x="234" y="69" on="1"/>
        <pt x="217" y="18" on="0"/>
        <pt x="176" y="-2" on="1"/>
        <pt x="159" y="-10" on="0"/>
        <pt x="139" y="-10" on="1"/>
        <pt x="74" y="-10" on="0"/>
        <pt x="74" y="54" on="1"/>
        <pt x="74" y="67" on="0"/>
        <pt x="78" y="89" on="1"/>
        <pt x="159" y="470" on="1"/>
        <pt x="245" y="470" on="1"/>
        <pt x="159" y="65" on="0"/>
      </contour>
      <contour>
        <pt x="204" y="673" on="1"/>
        <pt x="215" y="690" on="0"/>
        <pt x="254" y="690" on="0"/>
        <pt x="262" y="673" on="1"/>
        <pt x="310" y="547" on="1"/>
        <pt x="296" y="537" on="1"/>
        <pt x="225" y="634" on="1"/>
        <pt x="112" y="537" on="1"/>
        <pt x="102" y="547" on="1"/>
      </contour>
    </TTGlyph>
    <TTGlyph name="idieresis" xMin="74" yMin="-10" xMax="355" yMax="676">
      <contour>
        <pt x="159" y="58" on="1"/>
        <pt x="159" y="40" on="0"/>
        <pt x="196" y="40" on="0"/>
        <pt x="216" y="72" on="1"/>
        <pt x="234" y="69" on="1"/>
        <pt x="217" y="18" on="0"/>
        <pt x="176" y="-2" on="1"/>
        <pt x="159" y="-10" on="0"/>
        <pt x="139" y="-10" on="1"/>
        <pt x="74" y="-10" on="0"/>
        <pt x="74" y="54" on="1"/>
        <pt x="74" y="67" on="0"/>
        <pt x="78" y="89" on="1"/>
        <pt x="159" y="470" on="1"/>
        <pt x="245" y="470" on="1"/>
        <pt x="159" y="65" on="0"/>
      </contour>
      <contour>
        <pt x="336" y="676" on="0"/>
        <pt x="355" y="653" on="0"/>
        <pt x="355" y="610" on="0"/>
        <pt x="319" y="568" on="0"/>
        <pt x="283" y="568" on="0"/>
        <pt x="264" y="591" on="0"/>
        <pt x="264" y="633" on="0"/>
        <pt x="299" y="676" on="0"/>
      </contour>
      <contour>
        <pt x="184" y="676" on="0"/>
        <pt x="203" y="653" on="0"/>
        <pt x="203" y="610" on="0"/>
        <pt x="167" y="568" on="0"/>
        <pt x="131" y="568" on="0"/>
        <pt x="112" y="591" on="0"/>
        <pt x="112" y="633" on="0"/>
        <pt x="147" y="676" on="0"/>
      </contour>
    </TTGlyph>
    <TTGlyph name="igrave" xMin="74" yMin="-10" xMax="266" yMax="690">
      <contour>
        <pt x="159" y="58" on="1"/>
        <pt x="159" y="40" on="0"/>
        <pt x="196" y="40" on="0"/>
        <pt x="216" y="72" on="1"/>
        <pt x="234" y="69" on="1"/>
        <pt x="217" y="18" on="0"/>
        <pt x="176" y="-2" on="1"/>
        <pt x="159" y="-10" on="0"/>
        <pt x="139" y="-10" on="1"/>
        <pt x="74" y="-10" on="0"/>
        <pt x="74" y="54" on="1"/>
        <pt x="74" y="67" on="0"/>
        <pt x="78" y="89" on="1"/>
        <pt x="159" y="470" on="1"/>
        <pt x="245" y="470" on="1"/>
        <pt x="159" y="65" on="0"/>
      </contour>
      <contour>
        <pt x="134" y="626" on="1"/>
        <pt x="123" y="637" on="0"/>
        <pt x="123" y="665" on="0"/>
        <pt x="149" y="690" on="0"/>
        <pt x="183" y="690" on="0"/>
        <pt x="192" y="674" on="1"/>
        <pt x="266" y="539" on="1"/>
        <pt x="249" y="526" on="1"/>
      </contour>
    </TTGlyph>
    <TTGlyph name="j" xMin="-28" yMin="-210" xMax="294" yMax="690">
      <contour>
        <pt x="277" y="690" on="0"/>
        <pt x="294" y="664" on="0"/>
        <pt x="294" y="612" on="0"/>
        <pt x="256" y="554" on="0"/>
        <pt x="234" y="554" on="1"/>
        <pt x="204" y="554" on="0"/>
        <pt x="204" y="600" on="1"/>
        <pt x="204" y="631" on="0"/>
        <pt x="240" y="690" on="0"/>
      </contour>
      <contour>
        <pt x="33" y="-210" on="1"/>
        <pt x="-28" y="-210" on="0"/>
        <pt x="-28" y="-140" on="1"/>
        <pt x="-28" y="-132" on="1"/>
        <pt x="-8" y="-128" on="1"/>
        <pt x="-6" y="-160" on="0"/>
        <pt x="40" y="-160" on="0"/>
        <pt x="47" y="-126" on="1"/>
        <pt x="173" y="470" on="1"/>
        <pt x="259" y="470" on="1"/>
        <pt x="136" y="-111" on="1"/>
        <pt x="116" y="-210" on="0"/>
      </contour>
    </TTGlyph>
    <TTGlyph name="k" xMin="60" yMin="0" xMax="430" yMax="690">
      <contour>
        <pt x="354" y="133" on="1"/>
        <pt x="354" y="119" on="0"/>
        <pt x="351" y="104" on="1"/>
        <pt x="329" y="0" on="1"/>
        <pt x="252" y="0" on="1"/>
        <pt x="281" y="140" on="1"/>
        <pt x="283" y="152" on="0"/>
        <pt x="283" y="160" on="1"/>
        <pt x="283" y="193" on="0"/>
        <pt x="236" y="232" on="0"/>
        <pt x="195" y="233" on="1"/>
        <pt x="146" y="0" on="1"/>
        <pt x="60" y="0" on="1"/>
        <pt x="206" y="690" on="1"/>
        <pt x="292" y="690" on="1"/>
        <pt x="206" y="285" on="1"/>
        <pt x="392" y="470" on="1"/>
        <pt x="430" y="470" on="1"/>
        <pt x="218" y="259" on="1"/>
        <pt x="280" y="255" on="0"/>
        <pt x="354" y="185" on="0"/>
      </contour>
    </TTGlyph>
    <TTGlyph name="l" xMin="74" yMin="-10" xMax="292" yMax="690">
      <contour>
        <pt x="159" y="57" on="1"/>
        <pt x="159" y="40" on="0"/>
        <pt x="198" y="40" on="0"/>
        <pt x="216" y="72" on="1"/>
        <pt x="234" y="69" on="1"/>
        <pt x="217" y="18" on="0"/>
        <pt x="176" y="-2" on="1"/>
        <pt x="159" y="-10" on="0"/>
        <pt x="138" y="-10" on="1"/>
        <pt x="74" y="-10" on="0"/>
        <pt x="74" y="53" on="1"/>
        <pt x="74" y="65" on="0"/>
        <pt x="78" y="89" on="1"/>
        <pt x="206" y="690" on="1"/>
        <pt x="292" y="690" on="1"/>
        <pt x="161" y="74" on="1"/>
        <pt x="159" y="62" on="0"/>
      </contour>
    </TTGlyph>
    <TTGlyph name="less" xMin="159" yMin="0" xMax="530" yMax="565">
      <contour>
        <pt x="383" y="0" on="1"/>
        <pt x="159" y="282" on="1"/>
        <pt x="503" y="565" on="1"/>
        <pt x="530" y="530" on="1"/>
        <pt x="230" y="282" on="1"/>
        <pt x="426" y="35" on="1"/>
      </contour>
    </TTGlyph>
    <TTGlyph name="lslash" xMin="66" yMin="-10" xMax="337" yMax="690">
      <contour>
        <pt x="160" y="57" on="1"/>
        <pt x="160" y="40" on="0"/>
        <pt x="199" y="40" on="0"/>
        <pt x="217" y="72" on="1"/>
        <pt x="235" y="69" on="1"/>
        <pt x="218" y="18" on="0"/>
        <pt x="178" y="-2" on="1"/>
        <pt x="160" y="-10" on="0"/>
        <pt x="139" y="-10" on="1"/>
        <pt x="75" y="-10" on="0"/>
        <pt x="75" y="53" on="1"/>
        <pt x="75" y="65" on="0"/>
        <pt x="79" y="89" on="1"/>
        <pt x="130" y="328" on="1"/>
        <pt x="79" y="308" on="1"/>
        <pt x="66" y="367" on="1"/>
        <pt x="145" y="399" on="1"/>
        <pt x="207" y="690" on="1"/>
        <pt x="293" y="690" on="1"/>
        <pt x="239" y="436" on="1"/>
        <pt x="323" y="470" on="1"/>
        <pt x="337" y="410" on="1"/>
        <pt x="224" y="365" on="1"/>
        <pt x="160" y="65" on="0"/>
      </contour>
    </TTGlyph>
    <TTGlyph name="m" xMin="60" yMin="-10" xMax="691" yMax="480">
      <contour>
        <pt x="617" y="57" on="1"/>
        <pt x="617" y="40" on="0"/>
        <pt x="655" y="40" on="0"/>
        <pt x="673" y="72" on="1"/>
        <pt x="691" y="69" on="1"/>
        <pt x="674" y="18" on="0"/>
        <pt x="634" y="-2" on="1"/>
        <pt x="616" y="-10" on="0"/>
        <pt x="596" y="-10" on="1"/>
        <pt x="531" y="-10" on="0"/>
        <pt x="531" y="53" on="1"/>
        <pt x="531" y="65" on="0"/>
        <pt x="535" y="89" on="1"/>
        <pt x="592" y="356" on="1"/>
        <pt x="597" y="383" on="0"/>
        <pt x="597" y="399" on="1"/>
        <pt x="597" y="450" on="0"/>
        <pt x="553" y="450" on="1"/>
        <pt x="514" y="450" on="0"/>
        <pt x="456" y="380" on="0"/>
        <pt x="446" y="334" on="1"/>
        <pt x="376" y="0" on="1"/>
        <pt x="288" y="0" on="1"/>
        <pt x="363" y="356" on="1"/>
        <pt x="369" y="381" on="0"/>
        <pt x="369" y="400" on="1"/>
        <pt x="369" y="450" on="0"/>
        <pt x="324" y="450" on="1"/>
        <pt x="285" y="450" on="0"/>
        <pt x="226" y="380" on="0"/>
        <pt x="216" y="334" on="1"/>
        <pt x="146" y="0" on="1"/>
        <pt x="60" y="0" on="1"/>
        <pt x="159" y="470" on="1"/>
        <pt x="245" y="470" on="1"/>
        <pt x="233" y="412" on="1"/>
        <pt x="277" y="480" on="0"/>
        <pt x="347" y="480" on="1"/>
        <pt x="392" y="480" on="0"/>
        <pt x="444" y="430" on="0"/>
        <pt x="447" y="385" on="1"/>
        <pt x="490" y="480" on="0"/>
        <pt x="576" y="480" on="1"/>
        <pt x="624" y="480" on="0"/>
        <pt x="678" y="423" on="0"/>
        <pt x="678" y="372" on="1"/>
        <pt x="678" y="354" on="0"/>
        <pt x="672" y="322" on="1"/>
        <pt x="617" y="65" on="0"/>
      </contour>
    </TTGlyph>
    <TTGlyph name="macron" xMin="186" yMin="640" xMax="418" yMax="690">
      <contour>
        <pt x="408" y="640" on="1"/>
        <pt x="186" y="640" on="1"/>
        <pt x="196" y="690" on="1"/>
        <pt x="418" y="690" on="1"/>
      </contour>
    </TTGlyph>
    <TTGlyph name="minus" xMin="94" yMin="210" xMax="355" yMax="260">
      <contour>
        <pt x="344" y="210" on="1"/>
        <pt x="94" y="210" on="1"/>
        <pt x="105" y="260" on="1"/>
        <pt x="355" y="260" on="1"/>
      </contour>
    </TTGlyph>
    <TTGlyph name="n" xMin="60" yMin="-10" xMax="462" yMax="480">
      <contour>
        <pt x="388" y="57" on="1"/>
        <pt x="388" y="40" on="0"/>
        <pt x="426" y="40" on="0"/>
        <pt x="444" y="72" on="1"/>
        <pt x="462" y="69" on="1"/>
        <pt x="445" y="18" on="0"/>
        <pt x="406" y="-2" on="1"/>
        <pt x="388" y="-10" on="0"/>
        <pt x="368" y="-10" on="1"/>
        <pt x="302" y="-10" on="0"/>
        <pt x="302" y="53" on="1"/>
        <pt x="302" y="65" on="0"/>
        <pt x="306" y="89" on="1"/>
        <pt x="363" y="356" on="1"/>
        <pt x="369" y="383" on="0"/>
        <pt x="369" y="400" on="1"/>
        <pt x="369" y="450" on="0"/>
        <pt x="324" y="450" on="1"/>
        <pt x="285" y="450" on="0"/>
        <pt x="226" y="380" on="0"/>
        <pt x="216" y="334" on="1"/>
        <pt x="146" y="0" on="1"/>
        <pt x="60" y="0" on="1"/>
        <pt x="159" y="470" on="1"/>
        <pt x="245" y="470" on="1"/>
        <pt x="233" y="412" on="1"/>
        <pt x="277" y="480" on="0"/>
        <pt x="347" y="480" on="1"/>
        <pt x="395" y="480" on="0"/>
        <pt x="449" y="423" on="0"/>
        <pt x="449" y="372" on="1"/>
        <pt x="449" y="354" on="0"/>
        <pt x="443" y="322" on="1"/>
        <pt x="388" y="65" on="0"/>
      </contour>
    </TTGlyph>
    <TTGlyph name="nine" xMin="86" yMin="-10" xMax="553" yMax="700">
      <contour>
        <pt x="173" y="603" on="0"/>
        <pt x="305" y="700" on="0"/>
        <pt x="463" y="700" on="0"/>
        <pt x="553" y="624" on="0"/>
        <pt x="553" y="565" on="1"/>
        <pt x="553" y="550" on="0"/>
        <pt x="550" y="533" on="1"/>
        <pt x="482" y="213" on="1"/>
        <pt x="435" y="-10" on="0"/>
        <pt x="225" y="-10" on="1"/>
        <pt x="163" y="-10" on="0"/>
        <pt x="90" y="54" on="0"/>
        <pt x="86" y="112" on="1"/>
        <pt x="114" y="120" on="1"/>
        <pt x="118" y="86" on="0"/>
        <pt x="169" y="25" on="0"/>
        <pt x="223" y="25" on="1"/>
        <pt x="334" y="25" on="0"/>
        <pt x="363" y="160" on="1"/>
        <pt x="387" y="273" on="1"/>
        <pt x="336" y="240" on="0"/>
        <pt x="217" y="240" on="0"/>
        <pt x="128" y="314" on="0"/>
        <pt x="128" y="374" on="1"/>
        <pt x="128" y="390" on="0"/>
        <pt x="131" y="406" on="1"/>
        <pt x="158" y="533" on="1"/>
      </contour>
      <contour>
        <pt x="228" y="336" on="1"/>
        <pt x="228" y="270" on="0"/>
        <pt x="303" y="270" on="1"/>
        <pt x="342" y="270" on="0"/>
        <pt x="395" y="312" on="0"/>
        <pt x="401" y="342" on="1"/>
        <pt x="450" y="572" on="1"/>
        <pt x="454" y="594" on="0"/>
        <pt x="454" y="604" on="1"/>
        <pt x="454" y="670" on="0"/>
        <pt x="383" y="670" on="1"/>
        <pt x="296" y="670" on="0"/>
        <pt x="275" y="572" on="1"/>
        <pt x="232" y="367" on="1"/>
        <pt x="228" y="345" on="0"/>
      </contour>
    </TTGlyph>
    <TTGlyph name="ntilde" xMin="60" yMin="-10" xMax="473" yMax="619">
      <contour>
        <pt x="388" y="57" on="1"/>
        <pt x="388" y="40" on="0"/>
        <pt x="426" y="40" on="0"/>
        <pt x="444" y="72" on="1"/>
        <pt x="462" y="69" on="1"/>
        <pt x="445" y="18" on="0"/>
        <pt x="406" y="-2" on="1"/>
        <pt x="388" y="-10" on="0"/>
        <pt x="368" y="-10" on="1"/>
        <pt x="302" y="-10" on="0"/>
        <pt x="302" y="53" on="1"/>
        <pt x="302" y="65" on="0"/>
        <pt x="306" y="89" on="1"/>
        <pt x="363" y="356" on="1"/>
        <pt x="369" y="383" on="0"/>
        <pt x="369" y="400" on="1"/>
        <pt x="369" y="450" on="0"/>
        <pt x="324" y="450" on="1"/>
        <pt x="285" y="450" on="0"/>
        <pt x="226" y="380" on="0"/>
        <pt x="216" y="334" on="1"/>
        <pt x="146" y="0" on="1"/>
        <pt x="60" y="0" on="1"/>
        <pt x="159" y="470" on="1"/>
        <pt x="245" y="470" on="1"/>
        <pt x="233" y="412" on="1"/>
        <pt x="277" y="480" on="0"/>
        <pt x="347" y="480" on="1"/>
        <pt x="395" y="480" on="0"/>
        <pt x="449" y="423" on="0"/>
        <pt x="449" y="372" on="1"/>
        <pt x="449" y="354" on="0"/>
        <pt x="443" y="322" on="1"/>
        <pt x="388" y="65" on="0"/>
      </contour>
      <contour>
        <pt x="408" y="536" on="0"/>
        <pt x="364" y="536" on="0"/>
        <pt x="290" y="573" on="0"/>
        <pt x="274" y="573" on="1"/>
        <pt x="243" y="573" on="0"/>
        <pt x="214" y="544" on="1"/>
        <pt x="201" y="555" on="1"/>
        <pt x="256" y="619" on="0"/>
        <pt x="310" y="619" on="1"/>
        <pt x="327" y="619" on="0"/>
        <pt x="390" y="586" on="0"/>
        <pt x="438" y="586" on="0"/>
        <pt x="460" y="600" on="1"/>
        <pt x="461" y="601" on="1"/>
        <pt x="473" y="591" on="1"/>
        <pt x="455" y="566" on="0"/>
      </contour>
    </TTGlyph>
    <TTGlyph name="numbersign" xMin="89" yMin="0" xMax="752" yMax="690">
      <contour>
        <pt x="320" y="268" on="1"/>
        <pt x="454" y="268" on="1"/>
        <pt x="518" y="430" on="1"/>
        <pt x="384" y="430" on="1"/>
      </contour>
      <contour>
        <pt x="650" y="218" on="1"/>
        <pt x="511" y="218" on="1"/>
        <pt x="427" y="0" on="1"/>
        <pt x="351" y="0" on="1"/>
        <pt x="435" y="218" on="1"/>
        <pt x="301" y="218" on="1"/>
        <pt x="217" y="0" on="1"/>
        <pt x="141" y="0" on="1"/>
        <pt x="225" y="218" on="1"/>
        <pt x="89" y="218" on="1"/>
        <pt x="108" y="268" on="1"/>
        <pt x="244" y="268" on="1"/>
        <pt x="308" y="430" on="1"/>
        <pt x="171" y="430" on="1"/>
        <pt x="191" y="480" on="1"/>
        <pt x="328" y="480" on="1"/>
        <pt x="409" y="690" on="1"/>
        <pt x="485" y="690" on="1"/>
        <pt x="404" y="480" on="1"/>
        <pt x="538" y="480" on="1"/>
        <pt x="619" y="690" on="1"/>
        <pt x="694" y="690" on="1"/>
        <pt x="613" y="480" on="1"/>
        <pt x="752" y="480" on="1"/>
        <pt x="732" y="430" on="1"/>
        <pt x="594" y="430" on="1"/>
        <pt x="530" y="268" on="1"/>
        <pt x="669" y="268" on="1"/>
      </contour>
    </TTGlyph>
    <TTGlyph name="o" xMin="78" yMin="-10" xMax="437" yMax="480">
      <contour>
        <pt x="437" y="359" on="1"/>
        <pt x="437" y="341" on="0"/>
        <pt x="432" y="314" on="1"/>
        <pt x="399" y="157" on="1"/>
        <pt x="383" y="84" on="0"/>
        <pt x="280" y="-10" on="0"/>
        <pt x="143" y="-10" on="0"/>
        <pt x="78" y="57" on="0"/>
        <pt x="78" y="112" on="1"/>
        <pt x="78" y="130" on="0"/>
        <pt x="83" y="157" on="1"/>
        <pt x="116" y="314" on="1"/>
        <pt x="132" y="387" on="0"/>
        <pt x="235" y="480" on="0"/>
        <pt x="372" y="480" on="0"/>
        <pt x="437" y="414" on="0"/>
      </contour>
      <contour>
        <pt x="359" y="391" on="1"/>
        <pt x="359" y="450" on="0"/>
        <pt x="303" y="450" on="1"/>
        <pt x="232" y="450" on="0"/>
        <pt x="211" y="353" on="1"/>
        <pt x="161" y="118" on="1"/>
        <pt x="156" y="96" on="0"/>
        <pt x="156" y="80" on="1"/>
        <pt x="156" y="20" on="0"/>
        <pt x="212" y="20" on="1"/>
        <pt x="283" y="20" on="0"/>
        <pt x="304" y="118" on="1"/>
        <pt x="354" y="353" on="1"/>
        <pt x="359" y="375" on="0"/>
      </contour>
    </TTGlyph>
    <TTGlyph name="oacute" xMin="78" yMin="-10" xMax="437" yMax="690">
      <contour>
        <pt x="437" y="359" on="1"/>
        <pt x="437" y="341" on="0"/>
        <pt x="432" y="314" on="1"/>
        <pt x="399" y="157" on="1"/>
        <pt x="383" y="84" on="0"/>
        <pt x="280" y="-10" on="0"/>
        <pt x="143" y="-10" on="0"/>
        <pt x="78" y="57" on="0"/>
        <pt x="78" y="112" on="1"/>
        <pt x="78" y="130" on="0"/>
        <pt x="83" y="157" on="1"/>
        <pt x="116" y="314" on="1"/>
        <pt x="132" y="387" on="0"/>
        <pt x="235" y="480" on="0"/>
        <pt x="372" y="480" on="0"/>
        <pt x="437" y="414" on="0"/>
      </contour>
      <contour>
        <pt x="359" y="391" on="1"/>
        <pt x="359" y="450" on="0"/>
        <pt x="303" y="450" on="1"/>
        <pt x="232" y="450" on="0"/>
        <pt x="211" y="353" on="1"/>
        <pt x="161" y="118" on="1"/>
        <pt x="156" y="96" on="0"/>
        <pt x="156" y="80" on="1"/>
        <pt x="156" y="20" on="0"/>
        <pt x="212" y="20" on="1"/>
        <pt x="283" y="20" on="0"/>
        <pt x="304" y="118" on="1"/>
        <pt x="354" y="353" on="1"/>
        <pt x="359" y="375" on="0"/>
      </contour>
      <contour>
        <pt x="366" y="674" on="1"/>
        <pt x="375" y="690" on="0"/>
        <pt x="408" y="690" on="0"/>
        <pt x="435" y="665" on="0"/>
        <pt x="435" y="636" on="0"/>
        <pt x="424" y="627" on="1"/>
        <pt x="309" y="527" on="1"/>
        <pt x="292" y="539" on="1"/>
      </contour>
    </TTGlyph>
    <TTGlyph name="ocircumflex" xMin="78" yMin="-10" xMax="437" yMax="690">
      <contour>
        <pt x="437" y="359" on="1"/>
        <pt x="437" y="341" on="0"/>
        <pt x="432" y="314" on="1"/>
        <pt x="399" y="157" on="1"/>
        <pt x="383" y="84" on="0"/>
        <pt x="280" y="-10" on="0"/>
        <pt x="143" y="-10" on="0"/>
        <pt x="78" y="57" on="0"/>
        <pt x="78" y="112" on="1"/>
        <pt x="78" y="130" on="0"/>
        <pt x="83" y="157" on="1"/>
        <pt x="116" y="314" on="1"/>
        <pt x="132" y="387" on="0"/>
        <pt x="235" y="480" on="0"/>
        <pt x="372" y="480" on="0"/>
        <pt x="437" y="414" on="0"/>
      </contour>
      <contour>
        <pt x="359" y="391" on="1"/>
        <pt x="359" y="450" on="0"/>
        <pt x="303" y="450" on="1"/>
        <pt x="232" y="450" on="0"/>
        <pt x="211" y="353" on="1"/>
        <pt x="161" y="118" on="1"/>
        <pt x="156" y="96" on="0"/>
        <pt x="156" y="80" on="1"/>
        <pt x="156" y="20" on="0"/>
        <pt x="212" y="20" on="1"/>
        <pt x="283" y="20" on="0"/>
        <pt x="304" y="118" on="1"/>
        <pt x="354" y="353" on="1"/>
        <pt x="359" y="375" on="0"/>
      </contour>
      <contour>
        <pt x="318" y="673" on="1"/>
        <pt x="329" y="690" on="0"/>
        <pt x="368" y="690" on="0"/>
        <pt x="376" y="673" on="1"/>
        <pt x="424" y="547" on="1"/>
        <pt x="410" y="537" on="1"/>
        <pt x="339" y="634" on="1"/>
        <pt x="226" y="537" on="1"/>
        <pt x="216" y="547" on="1"/>
      </contour>
    </TTGlyph>
    <TTGlyph name="odieresis" xMin="78" yMin="-10" xMax="463" yMax="676">
      <contour>
        <pt x="437" y="359" on="1"/>
        <pt x="437" y="341" on="0"/>
        <pt x="432" y="314" on="1"/>
        <pt x="399" y="157" on="1"/>
        <pt x="383" y="84" on="0"/>
        <pt x="280" y="-10" on="0"/>
        <pt x="143" y="-10" on="0"/>
        <pt x="78" y="57" on="0"/>
        <pt x="78" y="112" on="1"/>
        <pt x="78" y="130" on="0"/>
        <pt x="83" y="157" on="1"/>
        <pt x="116" y="314" on="1"/>
        <pt x="132" y="387" on="0"/>
        <pt x="235" y="480" on="0"/>
        <pt x="372" y="480" on="0"/>
        <pt x="437" y="414" on="0"/>
      </contour>
      <contour>
        <pt x="359" y="391" on="1"/>
        <pt x="359" y="450" on="0"/>
        <pt x="303" y="450" on="1"/>
        <pt x="232" y="450" on="0"/>
        <pt x="211" y="353" on="1"/>
        <pt x="161" y="118" on="1"/>
        <pt x="156" y="96" on="0"/>
        <pt x="156" y="80" on="1"/>
        <pt x="156" y="20" on="0"/>
        <pt x="212" y="20" on="1"/>
        <pt x="283" y="20" on="0"/>
        <pt x="304" y="118" on="1"/>
        <pt x="354" y="353" on="1"/>
        <pt x="359" y="375" on="0"/>
      </contour>
      <contour>
        <pt x="444" y="676" on="0"/>
        <pt x="463" y="653" on="0"/>
        <pt x="463" y="610" on="0"/>
        <pt x="427" y="568" on="0"/>
        <pt x="391" y="568" on="0"/>
        <pt x="372" y="591" on="0"/>
        <pt x="372" y="633" on="0"/>
        <pt x="407" y="676" on="0"/>
      </contour>
      <contour>
        <pt x="292" y="676" on="0"/>
        <pt x="311" y="653" on="0"/>
        <pt x="311" y="610" on="0"/>
        <pt x="275" y="568" on="0"/>
        <pt x="239" y="568" on="0"/>
        <pt x="220" y="591" on="0"/>
        <pt x="220" y="633" on="0"/>
        <pt x="255" y="676" on="0"/>
      </contour>
    </TTGlyph>
</ttFont>
